<svg width="20" height="21" viewBox="0 0 20 21" fill="none" xmlns="http://www.w3.org/2000/svg">
<path d="M19.9988 4.002C19.9847 4.44112 19.9195 4.83775 19.8628 5.23438C19.758 5.95681 19.6461 6.67924 19.5356 7.40167C19.4265 8.10993 19.3118 8.81678 19.2084 9.52505C19.1078 10.2206 18.9945 10.9132 18.884 11.6073C18.7579 12.4034 18.629 13.1995 18.5016 13.9942C18.384 14.7294 18.2678 15.4646 18.1503 16.1997C18.0511 16.8188 17.9463 17.4364 17.8556 18.0568C17.8188 18.3104 17.7692 18.5583 17.6616 18.792C17.5695 18.9917 17.4491 19.1702 17.2748 19.3076C17.0085 19.5173 16.7026 19.5598 16.3782 19.5144C15.9617 19.4563 15.5793 19.2991 15.2053 19.1164C14.8002 18.9195 14.4361 18.6588 14.0622 18.4109C13.3426 17.9336 12.6201 17.4619 11.9034 16.9817C11.0648 16.4193 10.2319 15.8499 9.43719 15.2266C9.33378 15.1444 9.23037 15.0609 9.1298 14.9773C9.02073 14.8852 8.93149 14.7775 8.85924 14.6529C8.69068 14.3611 8.69351 14.0707 8.85783 13.7789C8.94424 13.6245 9.06606 13.4998 9.19496 13.3808C9.78565 12.8312 10.3778 12.283 10.967 11.732C11.7971 10.9557 12.6215 10.1724 13.4346 9.37773C13.7987 9.02076 14.1627 8.66522 14.5254 8.30683C14.7279 8.1071 14.8993 7.88329 15.0254 7.62548C15.0693 7.53624 15.1061 7.44417 15.1161 7.34359C15.1302 7.19627 15.0622 7.11978 14.9163 7.11695C14.8115 7.11411 14.7109 7.13961 14.6132 7.17644C14.218 7.32518 13.8553 7.53766 13.5069 7.7728C12.7759 8.26575 12.0507 8.76721 11.3212 9.26299C9.57317 10.45 7.81809 11.6272 6.05168 12.7873C5.84204 12.9247 5.59981 12.9757 5.35758 13.0111C4.86038 13.0834 4.36884 13.0338 3.88723 12.9035C3.13505 12.7023 2.39987 12.4502 1.65902 12.2108C1.25531 12.0805 0.85302 11.9431 0.452142 11.8071C0.222664 11.7292 0.0895104 11.5592 0.021517 11.3368C-0.0181458 11.2093 0.0130178 11.0846 0.0767616 10.9685C0.151838 10.8339 0.26091 10.7291 0.382732 10.6384C0.572547 10.4968 0.77936 10.3835 0.997506 10.2928C2.03016 9.86643 3.06422 9.44006 4.09687 9.0151C5.84912 8.29267 7.60278 7.57307 9.35503 6.85064C10.6016 6.33644 11.8524 5.83074 13.0932 5.30379C14.5608 4.68193 16.034 4.07566 17.5072 3.46655C17.7635 3.36031 18.0199 3.24982 18.2792 3.15066C18.6135 3.02459 18.9591 2.94951 19.3189 3.01184C19.7169 3.08125 19.9493 3.33906 19.9903 3.74135C19.996 3.84051 19.996 3.93967 19.9988 4.002Z" fill="white"/>
</svg>
