<svg width="163" height="160" viewBox="0 0 163 160" fill="none" xmlns="http://www.w3.org/2000/svg">
<path d="M8.24219 126.744L15.2649 120.948C17.0558 119.47 19.6286 119.419 21.4762 120.826L38.9456 134.126C40.5063 135.314 42.6177 135.48 44.3448 134.55L58.8422 126.744M160.501 112.077L144.656 121.495C142.358 122.861 139.393 122.178 137.924 119.945L124.751 99.9221C123.262 97.6587 120.241 96.9931 117.939 98.4209L103.01 107.679" stroke="#E2DDEA" stroke-width="3.80488" stroke-linecap="round" stroke-linejoin="round"/>
<path d="M94.2676 128.264V110.764L87.3172 106.635V109.584L91.7775 112.253V126.775L89.8073 127.955V116.157H87.3172V129.444L85.2923 130.624V112.843H82.8022V132.112L80.7773 133.32V105.708L85.2923 108.404V105.427L79.5186 102L73.7722 105.427V108.376L78.2872 105.708V133.32L76.2623 132.112V112.843H73.7722V130.652L71.7473 129.444V116.157H69.2572V127.983L67.2323 126.775V112.253L67.3691 112.169L71.7473 109.584V106.607L64.7422 110.764V128.264L79.5186 137L94.2676 128.264Z" fill="#3690F2"/>
<path d="M107.047 64.0421C107.047 64.0424 107.046 64.0427 107.046 64.043C106.666 64.3445 106.398 64.5565 106.192 64.7071C106.035 64.5662 105.833 64.3737 105.551 64.1043C100.763 59.524 95.8792 58.2452 91.3512 58.8747C86.9187 59.4909 83.0187 61.9083 80.0244 64.3438C79.8173 64.5122 79.6524 64.6463 79.5084 64.7585C79.4946 64.7693 79.4812 64.7797 79.4682 64.7897C79.3252 64.6479 79.142 64.4564 78.89 64.1914C75.3982 60.5199 71.0302 59.5931 67.0267 60.0481C63.0714 60.4976 59.3931 62.2938 56.9904 64.2005C56.6471 64.473 56.4055 64.6639 56.2207 64.8C56.044 64.6673 55.8132 64.4821 55.4864 64.2186C51.124 60.701 46.1484 60.7629 41.6436 63.1529C41.6424 63.1535 41.6413 63.1542 41.6401 63.1548C41.1027 63.4399 40.6868 63.6594 40.3549 63.8229C40.3776 63.5394 40.4123 63.1899 40.4569 62.7512C42.5838 41.828 60.2571 25.5 81.7422 25.5C102.701 25.5 120.033 41.0384 122.844 61.2233C122.944 61.9422 123.018 62.4867 123.062 62.9084C122.478 62.7068 121.697 62.3928 120.632 61.9627C115.883 60.0466 110.467 61.3293 107.047 64.0421ZM79.125 65.0283C79.1251 65.0282 79.1276 65.0269 79.1324 65.0248C79.1274 65.0274 79.125 65.0285 79.125 65.0283ZM79.7748 65.0656C79.7812 65.0694 79.7845 65.0717 79.7846 65.0719C79.7846 65.0721 79.7814 65.0702 79.7748 65.0656ZM40.3416 64.7106C40.3414 64.7109 40.3403 64.7065 40.3386 64.6966C40.3409 64.7054 40.3418 64.7104 40.3416 64.7106Z" stroke="#3690F2" stroke-width="3" stroke-miterlimit="10" stroke-linecap="round" stroke-linejoin="round"/>
<path d="M77.7422 26C69.8219 28.5714 55.8147 47.0714 54.7422 62.5" stroke="#3690F2" stroke-width="3" stroke-linecap="round" stroke-linejoin="round"/>
<path d="M80.7422 26C92.7614 30 104.711 48.5714 105.742 64" stroke="#3690F2" stroke-width="3" stroke-linecap="round" stroke-linejoin="round"/>
<path d="M123.242 64L92.2422 104" stroke="#3690F2" stroke-width="3" stroke-linecap="round" stroke-linejoin="round"/>
<path d="M40.7422 66L68.7422 103" stroke="#3690F2" stroke-width="3" stroke-linecap="round" stroke-linejoin="round"/>
<path d="M55.7422 65.5L72.7422 100" stroke="#3690F2" stroke-width="3" stroke-linecap="round" stroke-linejoin="round"/>
<path d="M105.742 65.5L87.2422 100.5" stroke="#3690F2" stroke-width="3" stroke-linecap="round" stroke-linejoin="round"/>
<path d="M79.7422 99V65" stroke="#3690F2" stroke-width="3" stroke-linecap="round" stroke-linejoin="round"/>
<path d="M41.6637 38H10.7422C11.2389 34.3043 14.0503 28.6959 19.3108 27.6522C23.0363 26.913 26.7618 30.1159 27.1343 30.9783C27.7552 28.3913 31.0834 21 39.4284 21C45.0167 21 48.0079 25.4348 48.7422 26.913" stroke="#E2DDEA" stroke-width="3.80488" stroke-linecap="round" stroke-linejoin="round"/>
<path d="M128.742 70H159.46C160.983 64.4551 156.16 56.9899 149.305 62.5888C149.305 56.1782 140.623 50.458 134.327 56.6789" stroke="#E2DDEA" stroke-width="3.80488" stroke-linecap="round" stroke-linejoin="round"/>
</svg>
