<svg width="161" height="160" viewBox="0 0 161 160" fill="none" xmlns="http://www.w3.org/2000/svg">
<circle cx="80.5" cy="79.4111" r="38" stroke="#3690F2" stroke-width="3.80488" stroke-miterlimit="10"/>
<circle cx="80.5" cy="79.4111" r="51" stroke="#3690F2" stroke-width="3.80488" stroke-miterlimit="10"/>
<path d="M74.4531 64.0518V68.6611H72.0156V64.0518H74.4531ZM74.1562 89.5674V93.7705H71.7188V89.5674H74.1562ZM75.875 84.4424C75.875 83.8486 75.7656 83.3434 75.5469 82.9268C75.3385 82.5101 74.9948 82.1403 74.5156 81.8174C74.0469 81.4945 73.4115 81.182 72.6094 80.8799C71.2552 80.359 70.0625 79.807 69.0312 79.2236C68.0104 78.6299 67.2135 77.8955 66.6406 77.0205C66.0677 76.1351 65.7812 75.0153 65.7812 73.6611C65.7812 72.3695 66.0885 71.2497 66.7031 70.3018C67.3177 69.3538 68.1667 68.6247 69.25 68.1143C70.3438 67.5934 71.6146 67.333 73.0625 67.333C74.1667 67.333 75.1667 67.4997 76.0625 67.833C76.9583 68.1559 77.7292 68.6351 78.375 69.2705C79.0208 69.8955 79.5156 70.6611 79.8594 71.5674C80.2031 72.4736 80.375 73.5101 80.375 74.6768H75.8906C75.8906 74.0518 75.8229 73.4997 75.6875 73.0205C75.5521 72.5413 75.3542 72.1403 75.0938 71.8174C74.8438 71.4945 74.5417 71.2549 74.1875 71.0986C73.8333 70.932 73.4427 70.8486 73.0156 70.8486C72.3802 70.8486 71.8594 70.9736 71.4531 71.2236C71.0469 71.4736 70.75 71.8122 70.5625 72.2393C70.3854 72.6559 70.2969 73.1351 70.2969 73.6768C70.2969 74.208 70.3906 74.6715 70.5781 75.0674C70.776 75.4632 71.1146 75.8278 71.5938 76.1611C72.0729 76.484 72.7292 76.8174 73.5625 77.1611C74.9167 77.682 76.1042 78.2445 77.125 78.8486C78.1458 79.4528 78.9427 80.1924 79.5156 81.0674C80.0885 81.9424 80.375 83.057 80.375 84.4111C80.375 85.7549 80.0625 86.9007 79.4375 87.8486C78.8125 88.7861 77.9375 89.5049 76.8125 90.0049C75.6875 90.4945 74.3854 90.7393 72.9062 90.7393C71.9479 90.7393 70.9948 90.6143 70.0469 90.3643C69.099 90.1038 68.2396 89.6872 67.4688 89.1143C66.6979 88.5413 66.0833 87.7809 65.625 86.833C65.1667 85.8747 64.9375 84.6976 64.9375 83.3018H69.4375C69.4375 84.0622 69.5365 84.6976 69.7344 85.208C69.9323 85.708 70.1927 86.109 70.5156 86.4111C70.849 86.7028 71.224 86.9111 71.6406 87.0361C72.0573 87.1611 72.4792 87.2236 72.9062 87.2236C73.5729 87.2236 74.1198 87.1038 74.5469 86.8643C74.9844 86.6247 75.3125 86.2965 75.5312 85.8799C75.7604 85.4528 75.875 84.9736 75.875 84.4424ZM94.4062 67.6143V90.4111H89.9062V72.8018L84.5 74.5205V70.9736L93.9219 67.6143H94.4062Z" fill="#3690F2"/>
<path d="M82.5 38V32" stroke="#E2DDEA" stroke-width="3.80488"/>
<path d="M82.5 127.411V121.411" stroke="#E2DDEA" stroke-width="3.80488"/>
<path d="M108.089 48.0041L111.949 43.4111" stroke="#E2DDEA" stroke-width="3.80488"/>
<path d="M50.4987 116.515L54.3594 111.922" stroke="#E2DDEA" stroke-width="3.80488"/>
<path d="M122.351 82.1195L128.348 82.3135" stroke="#E2DDEA" stroke-width="3.80488"/>
<path d="M32.8977 79.226L38.8945 79.4199" stroke="#E2DDEA" stroke-width="3.80488"/>
<path d="M110.499 108.411L114.91 112.479" stroke="#E2DDEA" stroke-width="3.80488"/>
<path d="M45.499 47.4113L49.9102 51.4785" stroke="#E2DDEA" stroke-width="3.80488"/>
</svg>
