<svg width="161" height="160" viewBox="0 0 161 160" fill="none" xmlns="http://www.w3.org/2000/svg">
<path d="M119.644 96.4522L119.644 83.6054C119.644 61.2843 101.55 43.1895 79.2284 43.1895V43.1895C56.9074 43.1895 38.8125 61.2843 38.8125 83.6053L38.8125 96.4522" stroke="#3690F2" stroke-width="3.80488" stroke-miterlimit="10"/>
<path d="M119.641 91.584L119.641 106.95C119.641 120.785 108.425 132 94.5906 132L93.0092 132" stroke="#3690F2" stroke-width="3.80488" stroke-miterlimit="10"/>
<path d="M38.8125 93.2941C38.8125 84.9823 45.5506 78.2441 53.8625 78.2441H56.7674C59.554 78.2441 61.813 80.5032 61.813 83.2898V106.746C61.813 109.533 59.554 111.792 56.7674 111.792H53.8625C45.5506 111.792 38.8125 105.054 38.8125 96.7416V93.2941Z" stroke="#3690F2" stroke-width="3.80488" stroke-miterlimit="10"/>
<path d="M119.641 96.742C119.641 105.054 112.903 111.792 104.591 111.792L101.686 111.792C98.8991 111.792 96.6401 109.533 96.6401 106.746L96.6401 83.2901C96.6401 80.5035 98.8991 78.2445 101.686 78.2445L104.591 78.2445C112.903 78.2445 119.641 84.9826 119.641 93.2945L119.641 96.742Z" stroke="#3690F2" stroke-width="3.80488" stroke-miterlimit="10"/>
<path d="M83.4375 125.178C83.4375 124.046 84.3553 123.128 85.4875 123.128H91.7153C92.8475 123.128 93.7653 124.046 93.7653 125.178V131.999H85.4875C84.3553 131.999 83.4375 131.082 83.4375 129.949V125.178Z" stroke="#3690F2" stroke-width="3.80488" stroke-miterlimit="10"/>
<path d="M50.2808 45.0382C49.2406 45.6103 48.2524 46.1298 44.4704 46.1298C43.0547 46.1298 47.7637 40.7544 46.7575 39.7587C45.1844 38.2023 44.0483 36.1714 43.5979 33.8345C42.4095 27.6683 46.4447 21.7062 52.6108 20.5178C57.1365 19.6456 64.0975 22.0959 65.9131 30.3087" stroke="#E2DDEA" stroke-width="3.80488" stroke-linecap="round" stroke-linejoin="round"/>
<path d="M128.948 78.5628C131.428 79.0407 133.888 79.0299 136.231 78.5977C137.699 78.3267 142.373 85.8907 150.459 84.2369C152.857 83.7465 144.766 74.9448 146.506 73.2237C149.225 70.5333 151.189 67.0227 151.967 62.983C154.022 52.3242 147.046 42.0182 136.387 39.9638C125.729 37.9095 117.198 44.9114 115.177 52.0784" stroke="#E2DDEA" stroke-width="3.80488" stroke-linecap="round" stroke-linejoin="round"/>
</svg>
