<svg width="163" height="160" viewBox="0 0 163 160" fill="none" xmlns="http://www.w3.org/2000/svg">
<path d="M124.864 4.88663C122.332 4.17239 118.607 3.32706 117.672 5.81128C115.7 11.0466 125.776 12.7135 124.016 16.3495C122.256 19.9855 113.439 14.9075 111.406 17.5479C109.562 19.9445 113.044 23.7199 115.02 25.0734" stroke="#E2DDEA" stroke-width="3.80488" stroke-linecap="round" stroke-linejoin="round"/>
<path d="M127.853 64.4756H37.1803C34.9406 64.4756 33.125 66.2912 33.125 68.5308V91.6809C33.125 93.9206 34.9406 95.7362 37.1803 95.7362H127.853C130.093 95.7362 131.908 93.9206 131.908 91.6809V68.5308C131.908 66.2912 130.093 64.4756 127.853 64.4756Z" stroke="#3690F2" stroke-width="3.80488" stroke-miterlimit="10"/>
<path d="M124.407 100.737V131.954C124.407 134.741 122.148 137 119.362 137H45.6745C42.8879 137 40.6289 134.741 40.6289 131.954V100.737" stroke="#3690F2" stroke-width="3.80488" stroke-miterlimit="10"/>
<path d="M83.1406 65.7256L83.1406 135.749" stroke="#3690F2" stroke-width="4.8" stroke-miterlimit="10"/>
<path d="M80.87 47.7622C80.87 56.127 74.089 62.9081 65.7241 62.9081C57.3593 62.9081 50.5782 56.127 50.5782 47.7622C50.5782 39.3974 57.3593 32.6163 65.7241 32.6163C74.089 32.6163 80.87 39.3974 80.87 47.7622Z" stroke="#3690F2" stroke-width="3.80488"/>
<circle cx="96.3257" cy="47.7622" r="15.1459" stroke="#3690F2" stroke-width="3.80488"/>
<path d="M141.394 47.9079C143.776 46.6642 150.933 44.5236 160.499 45.91" stroke="#E2DDEA" stroke-width="3.80488" stroke-linecap="round" stroke-linejoin="round"/>
<path d="M24.2458 64.4839C20.0443 63.7289 10.7147 62.6077 7.00781 64.1631" stroke="#E2DDEA" stroke-width="3.80488" stroke-linecap="round" stroke-linejoin="round"/>
<path d="M59.7097 18.0741C55.9929 10.9535 51.2961 7.4026 46.9097 5.47444" stroke="#E2DDEA" stroke-width="3.80488" stroke-linecap="round" stroke-linejoin="round"/>
</svg>
