<svg width="161" height="160" viewBox="0 0 161 160" fill="none" xmlns="http://www.w3.org/2000/svg">
<path d="M112.877 96.6703L112.48 95.8073C112.196 95.1872 112.071 94.5613 112.107 93.9298C112.142 93.2982 112.351 92.7091 112.734 92.1626C113.116 91.6161 113.688 91.1679 114.45 90.8179C115.235 90.4577 115.959 90.3107 116.623 90.3768C117.294 90.4396 117.877 90.665 118.372 91.0529C118.874 91.4375 119.268 91.9399 119.552 92.56L119.949 93.423C120.226 94.0282 120.348 94.6466 120.312 95.2782C120.284 95.9063 120.078 96.4936 119.696 97.0401C119.314 97.5866 118.738 98.0366 117.968 98.39C117.191 98.7468 116.467 98.8938 115.796 98.8311C115.132 98.7649 114.549 98.5395 114.047 98.155C113.545 97.7704 113.155 97.2755 112.877 96.6703ZM114.621 94.8244L115.017 95.6874C115.137 95.9489 115.301 96.1769 115.508 96.3714C115.719 96.555 115.963 96.6734 116.241 96.7268C116.523 96.7693 116.817 96.7202 117.123 96.5795C117.445 96.432 117.673 96.2409 117.81 96.0063C117.943 95.7642 118.005 95.5051 117.996 95.2289C117.983 94.9452 117.917 94.6726 117.797 94.4111L117.4 93.5481C117.273 93.2716 117.105 93.0416 116.894 92.858C116.687 92.6636 116.446 92.5434 116.172 92.4975C115.901 92.4407 115.605 92.486 115.284 92.6336C114.985 92.7708 114.766 92.9622 114.625 93.2077C114.481 93.4457 114.412 93.7083 114.417 93.9954C114.426 94.2716 114.494 94.5479 114.621 94.8244ZM124.892 102.267L124.496 101.404C124.214 100.792 124.091 100.17 124.127 99.538C124.17 98.903 124.383 98.3122 124.765 97.7657C125.155 97.2158 125.735 96.7642 126.504 96.4108C127.282 96.054 128.002 95.9086 128.666 95.9748C129.329 96.041 129.912 96.2664 130.415 96.6509C130.917 97.0355 131.309 97.5341 131.59 98.1468L131.986 99.0097C132.268 99.6224 132.39 100.245 132.355 100.876C132.326 101.504 132.121 102.092 131.739 102.638C131.357 103.185 130.781 103.635 130.011 103.988C129.234 104.345 128.51 104.492 127.839 104.429C127.168 104.366 126.577 104.144 126.067 103.763C125.565 103.379 125.173 102.88 124.892 102.267ZM126.647 100.416L127.044 101.279C127.167 101.548 127.344 101.775 127.573 101.959C127.802 102.143 128.054 102.258 128.329 102.304C128.61 102.347 128.893 102.303 129.177 102.172C129.536 102.008 129.783 101.808 129.92 101.573C130.057 101.339 130.107 101.085 130.072 100.811C130.045 100.535 129.969 100.262 129.846 99.9927L129.449 99.1297C129.326 98.8607 129.159 98.6345 128.948 98.4509C128.733 98.2598 128.489 98.1413 128.214 98.0954C127.944 98.0386 127.652 98.0823 127.338 98.2264C127.024 98.3705 126.797 98.5653 126.657 98.8108C126.52 99.0454 126.454 99.3062 126.46 99.5934C126.461 99.873 126.524 100.147 126.647 100.416ZM124.259 89.4218L122.147 105.835L120.197 105.726L122.309 89.3129L124.259 89.4218Z" fill="#E2DDEA"/>
<circle cx="123.317" cy="97.7303" r="19.7198" transform="rotate(-24.6641 123.317 97.7303)" stroke="#E2DDEA" stroke-width="4"/>
<path d="M19.6088 36.5424L19.4266 35.8866C19.2958 35.4153 19.2789 34.9582 19.3761 34.5153C19.4733 34.0725 19.6883 33.6794 20.0211 33.3363C20.354 32.9931 20.81 32.7411 21.3891 32.5802C21.9853 32.4147 22.5145 32.3931 22.9766 32.5156C23.4444 32.6364 23.8313 32.8623 24.1372 33.1932C24.4489 33.5226 24.6701 33.9229 24.801 34.3942L24.9831 35.05C25.1108 35.5099 25.1261 35.9613 25.0289 36.4042C24.9374 36.8455 24.7252 37.2377 24.3924 37.5809C24.0596 37.9241 23.6007 38.1769 23.0159 38.3393C22.4254 38.5033 21.8962 38.5248 21.4284 38.404C20.9663 38.2816 20.5794 38.0557 20.2678 37.7263C19.9561 37.397 19.7365 37.0023 19.6088 36.5424ZM21.0534 35.4348L21.2355 36.0907C21.2907 36.2894 21.3805 36.4694 21.5047 36.6306C21.6331 36.7845 21.7925 36.8962 21.9831 36.9656C22.1777 37.0278 22.3914 37.0265 22.6242 36.9619C22.8684 36.8941 23.0521 36.7849 23.1755 36.6345C23.2973 36.4783 23.3706 36.302 23.3955 36.1055C23.4189 35.9033 23.403 35.7028 23.3478 35.5041L23.1657 34.8483C23.1073 34.6382 23.014 34.4562 22.8856 34.3022C22.7613 34.141 22.6047 34.0286 22.4158 33.9648C22.2309 33.8938 22.0164 33.8922 21.7723 33.96C21.5452 34.0231 21.3679 34.1335 21.2404 34.2912C21.1114 34.4432 21.0324 34.6211 21.0033 34.8249C20.9784 35.0214 20.9951 35.2247 21.0534 35.4348ZM27.4738 41.8718L27.2917 41.216C27.1624 40.7504 27.1463 40.2962 27.2435 39.8533C27.3464 39.4088 27.5642 39.015 27.897 38.6719C28.2355 38.3271 28.6972 38.0735 29.2821 37.9111C29.8726 37.7471 30.3989 37.7264 30.861 37.8488C31.3231 37.9712 31.71 38.1971 32.0216 38.5265C32.3333 38.8558 32.5537 39.2533 32.683 39.7189L32.8652 40.3747C32.9944 40.8403 33.0105 41.2946 32.9133 41.7374C32.8218 42.1787 32.6096 42.571 32.2768 42.9142C31.944 43.2573 31.4851 43.5101 30.9003 43.6725C30.3098 43.8365 29.7806 43.8581 29.3128 43.7372C28.845 43.6164 28.4525 43.3921 28.1352 43.0643C27.8235 42.7349 27.6031 42.3375 27.4738 41.8718ZM28.927 40.7619L29.1091 41.4177C29.1658 41.6222 29.2649 41.8026 29.4062 41.9591C29.5475 42.1155 29.7126 42.2256 29.9016 42.2894C30.0962 42.3515 30.3014 42.3527 30.5171 42.2927C30.7897 42.2171 30.9876 42.104 31.111 41.9535C31.2343 41.8031 31.2992 41.6291 31.3055 41.4316C31.3175 41.2326 31.2951 41.0309 31.2384 40.8265L31.0563 40.1706C30.9995 39.9662 30.9069 39.787 30.7785 39.6331C30.6486 39.4735 30.4892 39.3618 30.3002 39.298C30.1154 39.2271 29.9037 39.2247 29.6652 39.2909C29.4267 39.3571 29.2438 39.4691 29.1163 39.6268C28.993 39.7773 28.9168 39.9544 28.8877 40.1582C28.8571 40.3562 28.8702 40.5575 28.927 40.7619ZM28.489 32.7095L25.1248 44.0837L23.7574 43.7846L27.1216 32.4104L28.489 32.7095Z" fill="#E2DDEA"/>
<circle cx="26.6656" cy="37.7127" r="14.0678" transform="rotate(-15.5194 26.6656 37.7127)" stroke="#E2DDEA" stroke-width="3"/>
<path d="M37.4544 35.8018L22.712 69.6038C21.381 72.6556 22.0792 76.2126 24.465 78.5348L55.0598 108.314L80.0819 127.882C83.6555 130.677 88.8355 129.944 91.4934 126.267L140.99 57.8012C142.558 55.6326 142.938 52.8237 142.002 50.3167L136.734 36.2025C135.566 33.0741 132.578 31 129.239 31H44.7873C41.6056 31 38.7264 32.8854 37.4544 35.8018Z" fill="white"/>
<path fill-rule="evenodd" clip-rule="evenodd" d="M138.111 63.531L128.337 41.1334C127.771 39.8375 126.49 39 125.073 39H42.9273C41.5101 39 40.229 39.8375 39.6635 41.1334L29.8883 63.5318C29.1729 65.1714 29.4619 67.1102 30.6245 68.4712L81.2712 127.752C81.9485 128.545 82.9356 129 83.98 129C85.024 129 86.0118 128.545 86.6893 127.753L103.718 107.837L108.444 102.309L137.374 68.4717C138.538 67.1107 138.827 65.1712 138.111 63.531ZM87.8483 121.432L101.26 105.746L105.986 100.218L134.23 67.1839H108.993L87.8483 121.432ZM111.061 63.9616H134.777L125.903 43.6299L111.061 63.9616ZM80.5048 121.888L66.1153 84.9694L63.6188 78.5646L59.1829 67.1837H33.7688L80.5048 121.888ZM62.6485 67.1835L66.6294 77.3969L69.1259 83.8017L84.0875 122.188L105.526 67.1835H62.6485ZM93.8952 47.7032L90.2003 42.222H77.9749L63.3201 63.9616H104.855L97.7984 53.4936L93.8952 47.7032ZM94.0927 42.222L96.5756 45.9053L100.479 51.6957L107.94 62.7637L122.935 42.222H94.0927ZM45.2401 42.222L60.2353 62.7637L74.0825 42.222H45.2401ZM57.1139 63.9616L42.1624 43.4799L33.2238 63.9616H57.1139Z" fill="#3690F2"/>
</svg>
