<svg width="161" height="160" viewBox="0 0 161 160" fill="none" xmlns="http://www.w3.org/2000/svg">
<path d="M60.4037 97.5688C60.4037 108.811 58.4672 117.165 54.5942 122.631C50.7211 128.097 44.6673 130.829 36.4327 130.829C28.3028 130.829 22.2839 128.166 18.3759 122.838C14.468 117.477 12.4443 109.486 12.3047 98.866V86.0496C12.3047 74.9455 14.2412 66.6952 18.1143 61.2988C21.9873 55.9024 28.0586 53.2042 36.328 53.2042C44.5277 53.2042 50.5641 55.8159 54.4371 61.0394C58.3102 66.2282 60.299 74.2536 60.4037 85.1156V97.5688ZM50.7211 84.4411C50.7211 76.3119 49.5697 70.3966 47.2668 66.6952C44.9639 62.9593 41.3176 61.0913 36.328 61.0913C31.3733 61.0913 27.762 62.942 25.494 66.6433C23.226 70.3447 22.0571 76.0351 21.9873 83.7146V99.0736C21.9873 107.237 23.1736 113.274 25.5463 117.183C27.9539 121.057 31.5827 122.994 36.4327 122.994C41.213 122.994 44.7545 121.161 47.0574 117.494C49.3952 113.827 50.6164 108.05 50.7211 100.163V84.4411Z" fill="#3690F2"/>
<path d="M71.9705 68.7708C71.9705 64.2392 73.4185 60.5032 76.3146 57.5629C79.2456 54.6225 82.9965 53.1523 87.5674 53.1523C92.2081 53.1523 95.959 54.6398 98.8201 57.6147C101.716 60.5551 103.164 64.3775 103.164 69.0821V72.7662C103.164 77.3323 101.699 81.0683 98.7678 83.9741C95.8717 86.8452 92.1732 88.2808 87.6721 88.2808C83.1361 88.2808 79.3851 86.8452 76.4193 83.9741C73.4534 81.0683 71.9705 77.2113 71.9705 72.4029V68.7708ZM79.1932 72.7662C79.1932 75.4644 79.9609 77.6956 81.4961 79.4598C83.0314 81.1894 85.09 82.0542 87.6721 82.0542C90.1494 82.0542 92.1383 81.2067 93.6386 79.5117C95.1739 77.8166 95.9415 75.499 95.9415 72.5586V68.7708C95.9415 66.0726 95.1913 63.8414 93.691 62.0772C92.1906 60.3129 90.1494 59.4308 87.5674 59.4308C84.9853 59.4308 82.9441 60.3129 81.4438 62.0772C79.9434 63.8414 79.1932 66.1417 79.1932 68.9783V72.7662ZM109.078 111.267C109.078 106.736 110.527 103.017 113.423 100.111C116.354 97.171 120.104 95.7008 124.675 95.7008C129.246 95.7008 132.997 97.1537 135.928 100.059C138.859 102.965 140.325 106.822 140.325 111.631V115.315C140.325 119.846 138.859 123.582 135.928 126.523C133.032 129.428 129.316 130.881 124.78 130.881C120.244 130.881 116.493 129.446 113.527 126.574C110.561 123.669 109.078 119.812 109.078 115.003V111.267ZM116.301 115.315C116.301 118.047 117.069 120.296 118.604 122.06C120.139 123.79 122.198 124.655 124.78 124.655C127.292 124.655 129.299 123.807 130.799 122.112C132.299 120.382 133.049 118.047 133.049 115.107V111.267C133.049 108.535 132.282 106.303 130.747 104.574C129.246 102.844 127.222 101.979 124.675 101.979C122.198 101.979 120.174 102.844 118.604 104.574C117.069 106.269 116.301 108.569 116.301 111.475V115.315ZM89.8703 124.084L84.3747 120.659L121.587 61.6102L127.083 65.0348L89.8703 124.084Z" fill="#3690F2"/>
</svg>
