<svg width="160" height="160" viewBox="0 0 160 160" fill="none" xmlns="http://www.w3.org/2000/svg">
<path d="M45.3166 118.32L68.6127 78.7169C70.102 76.185 67.4418 73.2428 64.7732 74.4703L43.9845 84.0331C43.1888 84.3991 42.2728 84.3991 41.4771 84.0331L20.6885 74.4703C18.0199 73.2428 15.3596 76.185 16.849 78.7169L40.145 118.32C41.305 120.292 44.1567 120.292 45.3166 118.32Z" stroke="#3690F2" stroke-width="5.8" stroke-miterlimit="10"/>
<path d="M113.898 41.6798L90.6022 81.2831C89.1128 83.815 91.773 86.7572 94.4417 85.5297L115.23 75.9669C116.026 75.6009 116.942 75.6009 117.738 75.9669L138.526 85.5297C141.195 86.7572 143.855 83.815 142.366 81.2831L119.07 41.6798C117.91 39.7079 115.058 39.7079 113.898 41.6798Z" stroke="#3690F2" stroke-width="5.8" stroke-miterlimit="10"/>
</svg>
