<svg width="160" height="160" viewBox="0 0 160 160" fill="none" xmlns="http://www.w3.org/2000/svg">
<rect x="12" y="33" width="115.586" height="79.3979" rx="8" stroke="#2B99FF" stroke-width="3.80488" stroke-miterlimit="10"/>
<path d="M51.6953 117.186L45.576 126.463C44.2604 128.458 45.6909 131.115 48.0803 131.115H88.174C90.3704 131.115 91.8222 128.832 90.8911 126.843L86.3705 117.186" stroke="#2B99FF" stroke-width="3.80488" stroke-miterlimit="10"/>
<path d="M23.0156 86.1749L31.7746 77.4162C31.9621 77.2287 32.2165 77.1233 32.4817 77.1233H39.5465C39.9321 77.1233 40.2834 77.345 40.4492 77.6932L47.3908 92.2611C47.7621 93.0404 48.8802 93.0146 49.2152 92.219L54.2933 80.1584L58.9666 68.8387C59.1211 68.4644 59.4861 68.2203 59.8909 68.2203H65.6984C66.0028 68.2203 66.2907 68.0816 66.4804 67.8435L74.4236 57.8758C74.6133 57.6377 74.9012 57.499 75.2056 57.499H84.0104" stroke="#E2DDEA" stroke-width="3.80488" stroke-linecap="round" stroke-linejoin="round"/>
<rect x="94.1289" y="43.8848" width="53.2247" height="90.8139" rx="8" fill="white" stroke="#2B99FF" stroke-width="3.80488" stroke-miterlimit="10"/>
<path d="M105.676 86.3642L111.025 97.5894C111.396 98.3687 112.514 98.3429 112.849 97.5473L116.571 88.7068L120.12 80.1106C120.275 79.7363 120.64 79.4922 121.044 79.4922H125.264C125.569 79.4922 125.857 79.3535 126.047 79.1154L132.041 71.5936C132.23 71.3555 132.518 71.2168 132.823 71.2168H139.509" stroke="#E2DDEA" stroke-width="3.80488" stroke-linecap="round" stroke-linejoin="round"/>
<rect x="80.5234" y="78.6006" width="35.3234" height="61.9998" rx="8" fill="white" stroke="#2B99FF" stroke-width="3.80488" stroke-miterlimit="10"/>
<path d="M85.1016 110.273L88.586 117.586C88.9573 118.365 90.0753 118.339 90.4103 117.543L92.7767 111.923L95.2013 106.05C95.3558 105.676 95.7207 105.432 96.1256 105.432H98.7582C99.0627 105.432 99.3506 105.293 99.5403 105.055L103.585 99.9793C103.775 99.7412 104.063 99.6025 104.367 99.6025H108.935" stroke="#E2DDEA" stroke-width="3.80488" stroke-linecap="round" stroke-linejoin="round"/>
</svg>
