<svg width="160" height="160" viewBox="0 0 160 160" fill="none" xmlns="http://www.w3.org/2000/svg">
<rect x="22.207" y="39.4385" width="115.586" height="79.3979" rx="8" stroke="#2B99FF" stroke-width="3.80488" stroke-miterlimit="10"/>
<rect x="58.7617" y="69.7754" width="5.71174" height="12.0581" rx="1" stroke="#E2DDEA" stroke-width="3" stroke-linecap="round" stroke-linejoin="round"/>
<path d="M61.4453 69.2201V62.0547" stroke="#E2DDEA" stroke-width="3" stroke-linecap="round" stroke-linejoin="round"/>
<path d="M61.4453 90.3305V83.165" stroke="#E2DDEA" stroke-width="3" stroke-linecap="round" stroke-linejoin="round"/>
<path d="M63.4453 110.996V107.754" stroke="#E2DDEA" stroke-width="2.01781" stroke-linecap="round" stroke-linejoin="round"/>
<path d="M73.2227 110.996V107.754" stroke="#E2DDEA" stroke-width="2.01781" stroke-linecap="round" stroke-linejoin="round"/>
<path d="M83.002 110.996V107.754" stroke="#E2DDEA" stroke-width="2.01781" stroke-linecap="round" stroke-linejoin="round"/>
<path d="M92.7793 110.996V107.754" stroke="#E2DDEA" stroke-width="2.01781" stroke-linecap="round" stroke-linejoin="round"/>
<path d="M102.557 110.996V107.754" stroke="#E2DDEA" stroke-width="2.01781" stroke-linecap="round" stroke-linejoin="round"/>
<path d="M112.334 110.996V107.754" stroke="#E2DDEA" stroke-width="2.01781" stroke-linecap="round" stroke-linejoin="round"/>
<path d="M122.111 110.996V107.754" stroke="#E2DDEA" stroke-width="2.01781" stroke-linecap="round" stroke-linejoin="round"/>
<path d="M125.46 66.416L128.701 66.416" stroke="#E2DDEA" stroke-width="2.01781" stroke-linecap="round" stroke-linejoin="round"/>
<path d="M125.46 78.0654L128.701 78.0654" stroke="#E2DDEA" stroke-width="2.01781" stroke-linecap="round" stroke-linejoin="round"/>
<path d="M125.46 89.7158L128.701 89.7158" stroke="#E2DDEA" stroke-width="2.01781" stroke-linecap="round" stroke-linejoin="round"/>
<path d="M125.46 101.365L128.701 101.365" stroke="#E2DDEA" stroke-width="2.01781" stroke-linecap="round" stroke-linejoin="round"/>
<rect x="69.7109" y="66.415" width="5.71174" height="6.92127" rx="1" stroke="#E2DDEA" stroke-width="3" stroke-linecap="round" stroke-linejoin="round"/>
<path d="M72.3945 65.5404V58.375" stroke="#E2DDEA" stroke-width="3" stroke-linecap="round" stroke-linejoin="round"/>
<path d="M72.3945 81.8334V74.668" stroke="#E2DDEA" stroke-width="3" stroke-linecap="round" stroke-linejoin="round"/>
<rect x="90.1367" y="63.9854" width="5.71174" height="6.92127" rx="1" stroke="#E2DDEA" stroke-width="3" stroke-linecap="round" stroke-linejoin="round"/>
<rect x="102.068" y="57.417" width="5.71174" height="23.1322" rx="1" stroke="#E2DDEA" stroke-width="3" stroke-linecap="round" stroke-linejoin="round"/>
<path d="M92.8203 63.1107V55.9453" stroke="#E2DDEA" stroke-width="3" stroke-linecap="round" stroke-linejoin="round"/>
<path d="M92.8203 79.4037V72.2383" stroke="#E2DDEA" stroke-width="3" stroke-linecap="round" stroke-linejoin="round"/>
<path d="M104.75 89.0463V81.8809" stroke="#E2DDEA" stroke-width="3" stroke-linecap="round" stroke-linejoin="round"/>
<rect x="120.389" y="54.9102" width="10.1416" height="5.01316" rx="2.50658" stroke="#E2DDEA" stroke-width="3" stroke-linecap="round" stroke-linejoin="round"/>
<path d="M112.871 57.417L118.791 57.417" stroke="#E2DDEA" stroke-width="2.8" stroke-linecap="round" stroke-linejoin="round"/>
<rect x="80.0898" y="70.9707" width="5.71174" height="13.1967" rx="1" stroke="#E2DDEA" stroke-width="3" stroke-linecap="round" stroke-linejoin="round"/>
<path d="M82.9453 70.684V63.5186" stroke="#E2DDEA" stroke-width="3" stroke-linecap="round" stroke-linejoin="round"/>
<path d="M82.7734 92.6635V85.498" stroke="#E2DDEA" stroke-width="3" stroke-linecap="round" stroke-linejoin="round"/>
<rect x="22.207" y="39.4385" width="30.1827" height="79.3979" rx="5" stroke="#2B99FF" stroke-width="3.80488" stroke-miterlimit="10"/>
<path d="M29.9531 56.8203H40.806" stroke="#2B99FF" stroke-width="3.80488" stroke-linecap="round" stroke-linejoin="round"/>
<path d="M29.9531 80.5488H40.806" stroke="#2B99FF" stroke-width="3.80488" stroke-linecap="round" stroke-linejoin="round"/>
<path d="M29.9531 68.9824H40.806" stroke="#2B99FF" stroke-width="3.80488" stroke-linecap="round" stroke-linejoin="round"/>
</svg>
