<svg width="160" height="160" viewBox="0 0 160 160" fill="none" xmlns="http://www.w3.org/2000/svg">
<rect x="33.6836" y="94.9307" width="24.8177" height="35.3027" rx="4.02" fill="white" stroke="#3690F2" stroke-width="3.87655" stroke-miterlimit="10"/>
<rect x="69.5898" y="59.2588" width="24.8177" height="70.975" rx="4.02" fill="white" stroke="#3690F2" stroke-width="3.87655" stroke-miterlimit="10"/>
<rect x="105.5" y="94.9307" width="24.8177" height="35.3027" rx="4.02" fill="white" stroke="#3690F2" stroke-width="3.87655" stroke-miterlimit="10"/>
<path d="M111.766 85.3419C111.766 83.2206 113.485 81.501 115.607 81.501H120.209C122.331 81.501 124.05 83.2206 124.05 85.3419V85.3419C124.05 85.9097 123.59 86.3699 123.022 86.3699H112.794C112.226 86.3699 111.766 85.9097 111.766 85.3419V85.3419Z" fill="white" stroke="#E2DDEA" stroke-width="3" stroke-miterlimit="10"/>
<circle cx="118.41" cy="73.6099" r="3.9722" fill="white" stroke="#E2DDEA" stroke-width="3" stroke-miterlimit="10"/>
<path d="M75.8555 51.8077C75.8555 49.6864 77.5751 47.9668 79.6964 47.9668H84.2992C86.4205 47.9668 88.1401 49.6864 88.1401 51.8077V51.8077C88.1401 52.3755 87.6799 52.8357 87.1121 52.8357H76.8835C76.3157 52.8357 75.8555 52.3755 75.8555 51.8077V51.8077Z" fill="white" stroke="#E2DDEA" stroke-width="3" stroke-miterlimit="10"/>
<circle cx="82.4995" cy="40.0757" r="3.9722" fill="white" stroke="#E2DDEA" stroke-width="3" stroke-miterlimit="10"/>
<path d="M39.9492 86.3077C39.9492 84.1864 41.6689 82.4668 43.7901 82.4668H48.393C50.5142 82.4668 52.2339 84.1864 52.2339 86.3077V86.3077C52.2339 86.8755 51.7736 87.3357 51.2059 87.3357H40.9772C40.4095 87.3357 39.9492 86.8755 39.9492 86.3077V86.3077Z" fill="white" stroke="#E2DDEA" stroke-width="3" stroke-miterlimit="10"/>
<circle cx="46.5933" cy="74.5757" r="3.9722" fill="white" stroke="#E2DDEA" stroke-width="3" stroke-miterlimit="10"/>
</svg>
