<svg width="160" height="160" viewBox="0 0 160 160" fill="none" xmlns="http://www.w3.org/2000/svg">
<rect x="64.8672" y="40.3516" width="85.269" height="25.0953" rx="12.5476" fill="white" stroke="#E2DDEA" stroke-width="3.33702" stroke-miterlimit="10"/>
<path d="M103.939 58.8069H101.841V50.7181L99.3359 51.4951V49.7887L103.714 48.2204H103.939V58.8069Z" fill="#E2DDEA"/>
<path d="M114.497 54.4358C114.497 55.8976 114.194 57.0158 113.589 57.7903C112.984 58.5648 112.098 58.9521 110.932 58.9521C109.78 58.9521 108.899 58.5721 108.289 57.8121C107.679 57.0521 107.367 55.963 107.352 54.5447V52.5987C107.352 51.1223 107.657 50.0017 108.267 49.2369C108.882 48.4721 109.765 48.0897 110.917 48.0897C112.069 48.0897 112.95 48.4697 113.56 49.2297C114.17 49.9848 114.482 51.0715 114.497 52.4898V54.4358ZM112.398 52.301C112.398 51.4249 112.277 50.7883 112.035 50.3914C111.798 49.9896 111.425 49.7887 110.917 49.7887C110.423 49.7887 110.058 49.98 109.821 50.3624C109.588 50.7399 109.465 51.3329 109.45 52.1413V54.7117C109.45 55.5733 109.567 56.2147 109.799 56.6358C110.036 57.0521 110.414 57.2603 110.932 57.2603C111.445 57.2603 111.815 57.0594 112.043 56.6576C112.27 56.2558 112.389 55.6411 112.398 54.8133V52.301Z" fill="#E2DDEA"/>
<path d="M123.036 54.4358C123.036 55.8976 122.733 57.0158 122.128 57.7903C121.523 58.5648 120.637 58.9521 119.471 58.9521C118.319 58.9521 117.438 58.5721 116.828 57.8121C116.218 57.0521 115.905 55.963 115.891 54.5447V52.5987C115.891 51.1223 116.196 50.0017 116.806 49.2369C117.421 48.4721 118.304 48.0897 119.456 48.0897C120.608 48.0897 121.489 48.4697 122.099 49.2297C122.709 49.9848 123.021 51.0715 123.036 52.4898V54.4358ZM120.937 52.301C120.937 51.4249 120.816 50.7883 120.574 50.3914C120.337 49.9896 119.964 49.7887 119.456 49.7887C118.962 49.7887 118.597 49.98 118.36 50.3624C118.127 50.7399 118.004 51.3329 117.989 52.1413V54.7117C117.989 55.5733 118.106 56.2147 118.338 56.6358C118.575 57.0521 118.953 57.2603 119.471 57.2603C119.984 57.2603 120.354 57.0594 120.582 56.6576C120.809 56.2558 120.928 55.6411 120.937 54.8133V52.301Z" fill="#E2DDEA"/>
<path d="M133.179 56.0259C133.179 55.629 133.068 55.3143 132.845 55.082C132.627 54.8448 132.255 54.627 131.727 54.4285C131.199 54.23 130.744 54.034 130.362 53.8404C129.98 53.6419 129.65 53.4168 129.375 53.1651C129.103 52.9085 128.89 52.6084 128.736 52.2647C128.586 51.921 128.51 51.512 128.51 51.0376C128.51 50.2196 128.772 49.5491 129.295 49.0263C129.817 48.5036 130.512 48.1986 131.379 48.1115V46.5576H132.54V48.1332C133.397 48.2543 134.068 48.6125 134.552 49.2079C135.036 49.7984 135.278 50.5657 135.278 51.5096H133.179C133.179 50.9287 133.058 50.4955 132.816 50.2099C132.579 49.9194 132.26 49.7742 131.858 49.7742C131.461 49.7742 131.153 49.888 130.936 50.1155C130.718 50.3382 130.609 50.648 130.609 51.0449C130.609 51.4128 130.715 51.7081 130.928 51.9307C131.141 52.1534 131.536 52.3809 132.112 52.6133C132.693 52.8456 133.17 53.0659 133.542 53.274C133.915 53.4773 134.23 53.7097 134.486 53.9711C134.743 54.2276 134.939 54.5229 135.074 54.8569C135.21 55.1861 135.278 55.5709 135.278 56.0114C135.278 56.8343 135.021 57.5023 134.508 58.0154C133.995 58.5285 133.288 58.8311 132.388 58.923V60.368H131.233V58.9303C130.241 58.8238 129.471 58.4729 128.924 57.8775C128.382 57.2772 128.111 56.4809 128.111 55.4886H130.21C130.21 56.0646 130.345 56.5076 130.616 56.8174C130.892 57.1223 131.287 57.2748 131.8 57.2748C132.226 57.2748 132.562 57.1635 132.809 56.9408C133.056 56.7133 133.179 56.4083 133.179 56.0259Z" fill="#E2DDEA"/>
<circle cx="82.0762" cy="53.1485" r="7.15822" stroke="#E2DDEA" stroke-width="3.33702" stroke-miterlimit="10"/>
<path d="M78.7578 52.7988L82.0738 56.1147L85.3897 52.7988" stroke="#E2DDEA" stroke-width="1.57867" stroke-miterlimit="10"/>
<path d="M82.0742 50.1816V56.1151" stroke="#E2DDEA" stroke-width="1.57867" stroke-miterlimit="10"/>
<circle cx="76.8582" cy="82.032" r="45.9285" fill="white" stroke="#3690F2" stroke-width="3.87655" stroke-miterlimit="10"/>
<circle cx="76.8587" cy="82.0325" r="32.1967" stroke="#E2DDEA" stroke-width="6.11302" stroke-dasharray="3.06 7.13"/>
<path d="M78.5092 65.0098V84.2145C78.5092 85.6196 77.7853 86.9257 76.5938 87.6704L65.3008 94.7284" stroke="#3690F2" stroke-width="3.87655" stroke-miterlimit="10"/>
<rect x="13.8672" y="115.352" width="85.269" height="25.0953" rx="12.5476" fill="white" stroke="#DDDAE1" stroke-width="3.33702" stroke-miterlimit="10"/>
<path d="M52.9394 133.807H50.841V125.718L48.3359 126.495V124.789L52.7143 123.22H52.9394V133.807Z" fill="#DDDAE1"/>
<path d="M63.4968 129.436C63.4968 130.898 63.1943 132.016 62.5892 132.79C61.9841 133.565 61.0983 133.952 59.9317 133.952C58.7796 133.952 57.8986 133.572 57.2887 132.812C56.6788 132.052 56.3666 130.963 56.352 129.545V127.599C56.352 126.122 56.657 125.002 57.2669 124.237C57.8817 123.472 58.7651 123.09 59.9172 123.09C61.0692 123.09 61.9502 123.47 62.5602 124.23C63.1701 124.985 63.4823 126.072 63.4968 127.49V129.436ZM61.3984 127.301C61.3984 126.425 61.2774 125.788 61.0354 125.391C60.7982 124.99 60.4254 124.789 59.9172 124.789C59.4234 124.789 59.058 124.98 58.8208 125.362C58.5884 125.74 58.465 126.333 58.4505 127.141V129.712C58.4505 130.573 58.5666 131.215 58.799 131.636C59.0362 132.052 59.4137 132.26 59.9317 132.26C60.4448 132.26 60.8151 132.059 61.0426 131.658C61.2701 131.256 61.3887 130.641 61.3984 129.813V127.301Z" fill="#DDDAE1"/>
<path d="M72.0357 129.436C72.0357 130.898 71.7332 132.016 71.1281 132.79C70.523 133.565 69.6372 133.952 68.4706 133.952C67.3185 133.952 66.4375 133.572 65.8276 132.812C65.2177 132.052 64.9055 130.963 64.8909 129.545V127.599C64.8909 126.122 65.1959 125.002 65.8058 124.237C66.4206 123.472 67.304 123.09 68.4561 123.09C69.6081 123.09 70.4891 123.47 71.0991 124.23C71.709 124.985 72.0212 126.072 72.0357 127.49V129.436ZM69.9373 127.301C69.9373 126.425 69.8163 125.788 69.5743 125.391C69.3371 124.99 68.9643 124.789 68.4561 124.789C67.9623 124.789 67.5968 124.98 67.3597 125.362C67.1273 125.74 67.0039 126.333 66.9893 127.141V129.712C66.9893 130.573 67.1055 131.215 67.3379 131.636C67.5751 132.052 67.9526 132.26 68.4706 132.26C68.9837 132.26 69.354 132.059 69.5815 131.658C69.809 131.256 69.9276 130.641 69.9373 129.813V127.301Z" fill="#DDDAE1"/>
<path d="M82.1793 131.026C82.1793 130.629 82.0679 130.314 81.8453 130.082C81.6274 129.845 81.2547 129.627 80.7271 129.429C80.1995 129.23 79.7444 129.034 79.362 128.84C78.9796 128.642 78.6505 128.417 78.3745 128.165C78.1035 127.909 77.8905 127.608 77.7356 127.265C77.5855 126.921 77.5105 126.512 77.5105 126.038C77.5105 125.22 77.7719 124.549 78.2947 124.026C78.8175 123.504 79.5121 123.199 80.3786 123.111V121.558H81.5403V123.133C82.3971 123.254 83.0675 123.612 83.5516 124.208C84.0357 124.798 84.2777 125.566 84.2777 126.51H82.1793C82.1793 125.929 82.0583 125.495 81.8162 125.21C81.579 124.919 81.2596 124.774 80.8578 124.774C80.4609 124.774 80.1535 124.888 79.9356 125.115C79.7178 125.338 79.6089 125.648 79.6089 126.045C79.6089 126.413 79.7154 126.708 79.9284 126.931C80.1414 127.153 80.5359 127.381 81.1119 127.613C81.6928 127.846 82.1696 128.066 82.5423 128.274C82.9151 128.477 83.2297 128.71 83.4863 128.971C83.7428 129.228 83.9389 129.523 84.0744 129.857C84.2099 130.186 84.2777 130.571 84.2777 131.011C84.2777 131.834 84.0211 132.502 83.508 133.015C82.9949 133.529 82.2882 133.831 81.3878 133.923V135.368H80.2333V133.93C79.241 133.824 78.4714 133.473 77.9244 132.877C77.3822 132.277 77.1111 131.481 77.1111 130.489H79.2095C79.2095 131.065 79.3451 131.508 79.6162 131.817C79.8921 132.122 80.2866 132.275 80.7997 132.275C81.2257 132.275 81.5621 132.163 81.809 131.941C82.0558 131.713 82.1793 131.408 82.1793 131.026Z" fill="#DDDAE1"/>
<circle cx="31.0762" cy="128.148" r="7.15822" transform="rotate(-180 31.0762 128.148)" stroke="#DDDAE1" stroke-width="3.33702" stroke-miterlimit="10"/>
<path d="M34.3945 128.497L31.0786 125.181L27.7627 128.497" stroke="#DDDAE1" stroke-width="1.57867" stroke-miterlimit="10"/>
<path d="M31.0781 131.115L31.0781 125.182" stroke="#DDDAE1" stroke-width="1.57867" stroke-miterlimit="10"/>
</svg>
