<svg width="41" height="41" viewBox="0 0 41 41" fill="none" xmlns="http://www.w3.org/2000/svg">
<path d="M35.2767 11.6292H4.44184C3.67358 11.6292 3.05078 12.252 3.05078 13.0202V21.002C3.05078 21.7702 3.67358 22.393 4.44184 22.393H35.2767C36.045 22.393 36.6678 21.7702 36.6678 21.002V13.0202C36.6678 12.252 36.045 11.6292 35.2767 11.6292Z" stroke="#FDB26E" stroke-width="3.27694" stroke-miterlimit="10"/>
<path d="M34.1161 26.1313V34.8704C34.1161 35.8263 33.3412 36.6012 32.3853 36.6012H7.33626C6.38037 36.6012 5.60547 35.8263 5.60547 34.8704V26.1313" stroke="#FDB26E" stroke-width="3.27694" stroke-miterlimit="10"/>
<path d="M20.0703 12.0596L20.0703 36.1707" stroke="#FDB26E" stroke-width="3.27694" stroke-miterlimit="10"/>
<path d="M18.8615 6.63745C18.8615 8.83915 17.0767 10.624 14.875 10.624C12.6733 10.624 10.8885 8.83915 10.8885 6.63745C10.8885 4.43575 12.6733 2.65092 14.875 2.65092C17.0767 2.65092 18.8615 4.43575 18.8615 6.63745Z" stroke="#FDB26E" stroke-width="3.27694"/>
<path d="M28.8615 6.63745C28.8615 8.83915 27.0767 10.624 24.875 10.624C22.6733 10.624 20.8885 8.83915 20.8885 6.63745C20.8885 4.43575 22.6733 2.65092 24.875 2.65092C27.0767 2.65092 28.8615 4.43575 28.8615 6.63745Z" stroke="#FDB26E" stroke-width="3.27694"/>
</svg>
