<svg width="173" height="46" viewBox="0 0 173 46" fill="none" xmlns="http://www.w3.org/2000/svg">
<path d="M73.6094 22.9632C73.6094 23.9383 73.5044 24.8773 73.3295 25.7802C73.1196 26.6831 72.8398 27.5137 72.49 28.3083C72.1052 29.1028 71.6854 29.789 71.1257 30.4752C70.6009 31.1253 70.0062 31.7031 69.3066 32.2088L74.7288 38.2762H71.4755C71.0207 38.2762 70.566 38.2039 70.2161 38.0956C69.8313 37.9511 69.4815 37.7344 69.1667 37.3733L66.0533 33.834C65.5635 33.9784 65.0388 34.0868 64.5141 34.159C63.9894 34.2312 63.4297 34.2673 62.8699 34.2673C61.2608 34.2673 59.7915 33.9784 58.4622 33.4367C57.1329 32.8588 55.9785 32.1004 55.034 31.0892C54.0895 30.0779 53.3549 28.8861 52.8302 27.5137C52.3054 26.1413 52.0605 24.6606 52.0605 23.0354C52.0605 21.4102 52.3054 19.9295 52.8302 18.5571C53.3549 17.1847 54.0895 15.9929 55.034 14.9816C55.9785 13.9704 57.1329 13.212 58.4622 12.6341C59.7915 12.0563 61.2608 11.8035 62.8699 11.8035C64.4791 11.8035 65.9483 12.0924 67.2777 12.6702C68.607 13.2481 69.7264 14.0065 70.6709 15.0178C71.6154 16.029 72.35 17.2208 72.8748 18.5932C73.3645 19.8572 73.6094 21.3741 73.6094 22.9632ZM69.5515 22.9632C69.5515 21.7714 69.3766 20.6879 69.0967 19.7128C68.7819 18.7377 68.3271 17.9431 67.7674 17.2569C67.2077 16.5707 66.4731 16.0651 65.6685 15.7401C64.8289 15.3789 63.8844 15.1983 62.8699 15.1983C61.8205 15.1983 60.876 15.3789 60.0714 15.7401C59.2318 16.1012 58.5322 16.6068 57.9375 17.2569C57.3428 17.9431 56.888 18.7377 56.5732 19.7128C56.2584 20.6518 56.1184 21.7352 56.1184 22.9632C56.1184 24.155 56.2934 25.2385 56.5732 26.2136C56.888 27.1526 57.3428 27.9832 57.9375 28.6333C58.5322 29.2834 59.2318 29.789 60.0714 30.1502C60.911 30.5113 61.8555 30.6919 62.8699 30.6919C63.9194 30.6919 64.8639 30.5113 65.6685 30.1502C66.5081 29.789 67.2077 29.2834 67.7674 28.6333C68.3621 27.9832 68.7819 27.1526 69.0967 26.2136C69.3766 25.2746 69.5515 24.1911 69.5515 22.9632Z" fill="#1C1F2D"/>
<path d="M85.2904 30.6563C86.06 30.6563 86.7247 30.5119 87.3543 30.2591C87.949 30.0063 88.4738 29.609 88.8935 29.1395C89.3133 28.67 89.6282 28.0921 89.838 27.4059C90.0479 26.7198 90.1879 25.9613 90.1879 25.1307V11.9485H94.1408V25.1307C94.1408 26.4308 93.9309 27.6588 93.5461 28.7422C93.1264 29.8618 92.5666 30.8008 91.797 31.6315C91.0274 32.426 90.1179 33.0761 89.0335 33.5095C87.949 33.979 86.7247 34.1957 85.3604 34.1957C83.9961 34.1957 82.7717 33.979 81.6873 33.5095C80.6028 33.0761 79.6583 32.426 78.9237 31.6315C78.1541 30.8369 77.5594 29.8618 77.1746 28.7422C76.7548 27.6226 76.5449 26.4308 76.5449 25.1307V11.9485H80.4979V25.0946C80.4979 25.9252 80.6028 26.6836 80.8127 27.3698C81.0226 28.056 81.3374 28.6339 81.7572 29.1034C82.177 29.5729 82.6668 29.9702 83.2964 30.223C83.8561 30.548 84.5208 30.6563 85.2904 30.6563Z" fill="#1C1F2D"/>
<path d="M118.596 22.9639C118.596 24.5891 118.351 26.0698 117.826 27.4422C117.301 28.8146 116.567 30.0064 115.622 31.0176C114.678 32.0289 113.558 32.7873 112.229 33.3652C110.9 33.943 109.43 34.1958 107.821 34.1958C106.212 34.1958 104.743 33.9069 103.413 33.3652C102.084 32.7873 100.93 32.0289 99.9852 31.0176C99.0407 30.0064 98.3061 28.8146 97.7813 27.4422C97.2566 26.0698 97.0117 24.5891 97.0117 22.9639C97.0117 21.3387 97.2566 19.8579 97.7813 18.4855C98.3061 17.1132 99.0407 15.9213 99.9852 14.9101C100.93 13.8989 102.084 13.1404 103.413 12.5626C104.743 11.9847 106.212 11.7319 107.821 11.7319C109.43 11.7319 110.9 12.0209 112.229 12.5987C113.558 13.1766 114.678 13.935 115.622 14.9462C116.567 15.9575 117.301 17.1493 117.826 18.5217C118.351 19.8579 118.596 21.3748 118.596 22.9639ZM114.538 22.9639C114.538 21.7721 114.363 20.6886 114.083 19.7135C113.768 18.7384 113.313 17.9438 112.754 17.2576C112.194 16.5714 111.459 16.0658 110.655 15.7408C109.85 15.4157 108.871 15.199 107.856 15.199C106.807 15.199 105.862 15.3796 105.058 15.7408C104.218 16.1019 103.518 16.6075 102.924 17.2576C102.329 17.9438 101.874 18.7384 101.559 19.7135C101.245 20.6525 101.105 21.7359 101.105 22.9639C101.105 24.1557 101.28 25.2392 101.559 26.2143C101.874 27.1533 102.329 27.9839 102.924 28.634C103.518 29.2841 104.218 29.7897 105.058 30.1509C105.897 30.512 106.842 30.6926 107.856 30.6926C108.906 30.6926 109.85 30.512 110.655 30.1509C111.494 29.7897 112.194 29.2841 112.754 28.634C113.348 27.9839 113.768 27.1533 114.083 26.2143C114.398 25.2753 114.538 24.1918 114.538 22.9639Z" fill="#1C1F2D"/>
<path d="M135.598 11.9846V15.3434H129.196V33.979H125.243V15.3434H118.807V11.9846H135.598Z" fill="#1C1F2D"/>
<path d="M151.513 11.9846V15.235H142.068V21.3385H149.519V24.4806H142.068V30.6925H151.513V33.979H138.08V11.9846H151.513Z" fill="#1C1F2D"/>
<path d="M160.086 22.6387L153.299 11.9846H157.252C157.532 11.9846 157.742 12.0207 157.847 12.0929C157.987 12.1652 158.092 12.3096 158.162 12.4541L163.024 20.544C163.059 20.3995 163.129 20.2912 163.199 20.1467C163.269 20.0384 163.339 19.8939 163.409 19.7495L167.852 12.5263C168.062 12.1652 168.341 11.9485 168.691 11.9485H172.504L165.578 22.4942L172.644 33.979H168.691C168.446 33.979 168.202 33.9068 168.062 33.7623C167.887 33.6178 167.747 33.4734 167.642 33.2928L162.709 24.8779C162.674 24.9862 162.639 25.0946 162.569 25.239C162.534 25.3474 162.464 25.4557 162.429 25.5279L157.672 33.2567C157.567 33.4373 157.427 33.5817 157.287 33.7262C157.112 33.8706 156.937 33.9429 156.692 33.9429H152.984L160.086 22.6387Z" fill="#1C1F2D"/>
<path d="M38.3187 34.2681V11.7681L29.3825 6.45907V10.2512L35.1171 13.6822V32.3539L32.584 33.8708V18.7023H29.3825V35.7849L26.779 37.3018V14.4406H23.5775V39.2159L20.974 40.7689V5.26725L26.779 8.73435V4.9061L19.3556 0.5L11.9674 4.9061V8.69823L17.7725 5.26725V40.7689L15.169 39.2159V14.4406H11.9674V37.3379L9.36399 35.7849V18.7023H6.16243V33.9069L3.55898 32.3539V13.6822L3.73488 13.5738L9.36399 10.2512V6.42295L0.357422 11.7681V34.2681L19.3556 45.5L38.3187 34.2681Z" fill="#A0002A"/>
</svg>
