<svg width="95" height="26" viewBox="0 0 95 26" fill="none" xmlns="http://www.w3.org/2000/svg">
<path d="M40.392 12.9794C40.392 13.5211 40.3341 14.0428 40.2377 14.5444C40.1219 15.046 39.9676 15.5075 39.7747 15.9489C39.5626 16.3903 39.3311 16.7715 39.0225 17.1527C38.7331 17.5139 38.4052 17.8349 38.0194 18.1158L41.0093 21.4866H39.2153C38.9646 21.4866 38.7138 21.4465 38.5209 21.3863C38.3087 21.306 38.1159 21.1856 37.9422 20.985L36.2255 19.0187C35.9554 19.099 35.6661 19.1592 35.3768 19.1993C35.0874 19.2394 34.7788 19.2595 34.4702 19.2595C33.5829 19.2595 32.7727 19.099 32.0397 18.798C31.3067 18.477 30.6702 18.0556 30.1494 17.4938C29.6285 16.932 29.2235 16.2699 28.9341 15.5075C28.6448 14.745 28.5098 13.9224 28.5098 13.0195C28.5098 12.1166 28.6448 11.294 28.9341 10.5315C29.2235 9.7691 29.6285 9.10699 30.1494 8.54519C30.6702 7.98339 31.3067 7.56204 32.0397 7.24102C32.7727 6.91999 33.5829 6.77954 34.4702 6.77954C35.3575 6.77954 36.1676 6.94005 36.9006 7.26108C37.6336 7.58211 38.2509 8.00346 38.7717 8.56525C39.2925 9.12705 39.6976 9.78917 39.9869 10.5516C40.257 11.2539 40.392 12.0966 40.392 12.9794ZM38.1544 12.9794C38.1544 12.3173 38.058 11.7153 37.9037 11.1736C37.7301 10.6319 37.4793 10.1905 37.1707 9.80924C36.862 9.42802 36.457 9.14712 36.0133 8.96654C35.5504 8.7659 35.0296 8.66558 34.4702 8.66558C33.8915 8.66558 33.3707 8.7659 32.927 8.96654C32.4641 9.16718 32.0783 9.44808 31.7504 9.80924C31.4225 10.1905 31.1717 10.6319 30.9981 11.1736C30.8245 11.6953 30.7473 12.2972 30.7473 12.9794C30.7473 13.6415 30.8438 14.2434 30.9981 14.7852C31.1717 15.3068 31.4225 15.7683 31.7504 16.1295C32.0783 16.4906 32.4641 16.7715 32.927 16.9722C33.39 17.1728 33.9108 17.2731 34.4702 17.2731C35.0488 17.2731 35.5697 17.1728 36.0133 16.9722C36.4763 16.7715 36.862 16.4906 37.1707 16.1295C37.4986 15.7683 37.7301 15.3068 37.9037 14.7852C38.058 14.2635 38.1544 13.6616 38.1544 12.9794Z" fill="#1C1F2D"/>
<path d="M46.8341 17.2534C47.2584 17.2534 47.6249 17.1731 47.9721 17.0327C48.3 16.8922 48.5894 16.6715 48.8209 16.4107C49.0523 16.1498 49.2259 15.8288 49.3417 15.4476C49.4574 15.0664 49.5346 14.645 49.5346 14.1835V6.86011H51.7143V14.1835C51.7143 14.9059 51.5985 15.588 51.3863 16.19C51.1549 16.812 50.8462 17.3336 50.4219 17.7951C49.9975 18.2365 49.496 18.5977 48.898 18.8384C48.3 19.0993 47.6249 19.2197 46.8726 19.2197C46.1204 19.2197 45.4452 19.0993 44.8473 18.8384C44.2493 18.5977 43.7285 18.2365 43.3234 17.7951C42.899 17.3537 42.5711 16.812 42.3589 16.19C42.1275 15.568 42.0117 14.9059 42.0117 14.1835V6.86011H44.1914V14.1635C44.1914 14.625 44.2493 15.0463 44.365 15.4275C44.4808 15.8087 44.6544 16.1298 44.8858 16.3906C45.1173 16.6514 45.3874 16.8721 45.7346 17.0126C46.0432 17.1932 46.4097 17.2534 46.8341 17.2534Z" fill="#1C1F2D"/>
<path d="M65.1984 12.9797C65.1984 13.8826 65.0634 14.7052 64.774 15.4677C64.4847 16.2301 64.0796 16.8922 63.5588 17.454C63.038 18.0158 62.4207 18.4372 61.6877 18.7582C60.9547 19.0792 60.1446 19.2197 59.2573 19.2197C58.37 19.2197 57.5598 19.0592 56.8268 18.7582C56.0938 18.4372 55.4573 18.0158 54.9365 17.454C54.4157 16.8922 54.0106 16.2301 53.7212 15.4677C53.4319 14.7052 53.2969 13.8826 53.2969 12.9797C53.2969 12.0768 53.4319 11.2542 53.7212 10.4918C54.0106 9.72932 54.4157 9.0672 54.9365 8.5054C55.4573 7.9436 56.0938 7.52225 56.8268 7.20123C57.5598 6.8802 58.37 6.73975 59.2573 6.73975C60.1446 6.73975 60.9547 6.90026 61.6877 7.22129C62.4207 7.54231 63.038 7.96366 63.5588 8.52546C64.0796 9.08726 64.4847 9.74938 64.774 10.5118C65.0634 11.2542 65.1984 12.0969 65.1984 12.9797ZM62.9608 12.9797C62.9608 12.3176 62.8644 11.7157 62.7101 11.1739C62.5365 10.6322 62.2857 10.1908 61.9771 9.80957C61.6685 9.42835 61.2634 9.14745 60.8197 8.96687C60.3761 8.7863 59.836 8.66591 59.2766 8.66591C58.6979 8.66591 58.1771 8.76623 57.7334 8.96687C57.2705 9.16752 56.8847 9.44842 56.5568 9.80957C56.2289 10.1908 55.9781 10.6322 55.8045 11.1739C55.6309 11.6956 55.5537 12.2975 55.5537 12.9797C55.5537 13.6418 55.6502 14.2438 55.8045 14.7855C55.9781 15.3072 56.2289 15.7686 56.5568 16.1298C56.8847 16.491 57.2705 16.7718 57.7334 16.9725C58.1964 17.1731 58.7172 17.2735 59.2766 17.2735C59.8553 17.2735 60.3761 17.1731 60.8197 16.9725C61.2827 16.7718 61.6685 16.491 61.9771 16.1298C62.305 15.7686 62.5365 15.3072 62.7101 14.7855C62.8837 14.2638 62.9608 13.6619 62.9608 12.9797Z" fill="#1C1F2D"/>
<path d="M74.5733 6.88013V8.7461H71.0434V19.0992H68.8637V8.7461H65.3145V6.88013H74.5733Z" fill="#1C1F2D"/>
<path d="M83.3485 6.88013V8.68591H78.1404V12.0768H82.249V13.8223H78.1404V17.2734H83.3485V19.0992H75.9414V6.88013H83.3485Z" fill="#1C1F2D"/>
<path d="M88.0759 12.7991L84.3338 6.88017H86.5135C86.6678 6.88017 86.7835 6.90023 86.8414 6.94036C86.9185 6.98049 86.9764 7.06075 87.015 7.14101L89.6962 11.6354C89.7155 11.5551 89.7541 11.4949 89.7927 11.4147C89.8312 11.3545 89.8698 11.2742 89.9084 11.194L92.3581 7.18114C92.4739 6.98049 92.6282 6.86011 92.8211 6.86011H94.9236L91.1043 12.7189L95.0008 19.0993H92.8211C92.6861 19.0993 92.551 19.0591 92.4739 18.9789C92.3774 18.8986 92.3003 18.8184 92.2424 18.7181L89.5226 14.0431C89.5033 14.1033 89.484 14.1635 89.4454 14.2437C89.4262 14.3039 89.3876 14.3641 89.3683 14.4043L86.7449 18.698C86.6871 18.7983 86.6099 18.8786 86.5327 18.9588C86.4363 19.0391 86.3398 19.0792 86.2048 19.0792H84.1602L88.0759 12.7991Z" fill="#1C1F2D"/>
<path d="M20.9322 19.26V6.76003L16.0047 3.81059V5.91733L19.1668 7.82343V18.1966L17.7701 19.0393V10.6124H16.0047V20.1027L14.5691 20.9454V8.24478H12.8038V22.0088L11.3682 22.8716V3.14847L14.5691 5.07464V2.94783L10.4758 0.5L6.40188 2.94783V5.05457L9.60282 3.14847V22.8716L8.16724 22.0088V8.24478H6.40188V20.9655L4.96631 20.1027V10.6124H3.20094V19.0594L1.76537 18.1966V7.82343L1.86237 7.76324L4.96631 5.91733V3.79053L0 6.76003V19.26L10.4758 25.5L20.9322 19.26Z" fill="#A0002A"/>
</svg>
