<svg width="119" height="30" viewBox="0 0 119 30" fill="none" xmlns="http://www.w3.org/2000/svg">
<path d="M50.3397 14.9755C50.3397 15.6255 50.2675 16.2515 50.1473 16.8535C50.0031 17.4554 49.8108 18.0092 49.5704 18.5389C49.306 19.0685 49.0175 19.526 48.6329 19.9835C48.2723 20.4169 47.8636 20.8021 47.3828 21.1392L51.1089 25.1841H48.8732C48.5607 25.1841 48.2482 25.136 48.0078 25.0637C47.7434 24.9674 47.503 24.823 47.2866 24.5822L45.1471 22.2226C44.8106 22.319 44.45 22.3912 44.0894 22.4393C43.7288 22.4875 43.3441 22.5116 42.9595 22.5116C41.8537 22.5116 40.844 22.3189 39.9305 21.9578C39.017 21.5726 38.2237 21.0669 37.5746 20.3928C36.9255 19.7186 36.4207 18.9241 36.0601 18.0092C35.6995 17.0942 35.5312 16.1071 35.5312 15.0236C35.5312 13.9401 35.6995 12.953 36.0601 12.038C36.4207 11.1231 36.9255 10.3286 37.5746 9.65442C38.2237 8.98026 39.017 8.47465 39.9305 8.08941C40.844 7.70418 41.8537 7.53564 42.9595 7.53564C44.0653 7.53564 45.075 7.72826 45.9885 8.11349C46.902 8.49872 47.6713 9.00434 48.3203 9.6785C48.9694 10.3527 49.4742 11.1472 49.8348 12.0621C50.1714 12.9048 50.3397 13.9161 50.3397 14.9755ZM47.5511 14.9755C47.5511 14.1809 47.4309 13.4586 47.2386 12.8085C47.0222 12.1584 46.7097 11.6287 46.325 11.1713C45.9404 10.7138 45.4356 10.3767 44.8827 10.16C44.3057 9.91927 43.6566 9.79889 42.9595 9.79889C42.2383 9.79889 41.5892 9.91927 41.0363 10.16C40.4594 10.4008 39.9786 10.7379 39.5699 11.1713C39.1612 11.6287 38.8487 12.1584 38.6324 12.8085C38.416 13.4345 38.3198 14.1568 38.3198 14.9755C38.3198 15.77 38.44 16.4923 38.6324 17.1424C38.8487 17.7684 39.1612 18.3222 39.5699 18.7555C39.9786 19.1889 40.4594 19.526 41.0363 19.7668C41.6133 20.0076 42.2623 20.1279 42.9595 20.1279C43.6807 20.1279 44.3298 20.0076 44.8827 19.7668C45.4596 19.526 45.9404 19.1889 46.325 18.7555C46.7337 18.3222 47.0222 17.7684 47.2386 17.1424C47.4309 16.5164 47.5511 15.7941 47.5511 14.9755Z" fill="#1C1F2D"/>
<path d="M58.3693 20.104C58.8982 20.104 59.3549 20.0077 59.7876 19.8391C60.1963 19.6706 60.5569 19.4058 60.8454 19.0928C61.1338 18.7798 61.3502 18.3945 61.4944 17.9371C61.6387 17.4796 61.7348 16.974 61.7348 16.4202V7.63208H64.4513V16.4202C64.4513 17.287 64.3071 18.1056 64.0427 18.8279C63.7542 19.5743 63.3695 20.2003 62.8407 20.7541C62.3118 21.2838 61.6868 21.7172 60.9415 22.0061C60.1963 22.3191 59.3549 22.4635 58.4174 22.4635C57.4798 22.4635 56.6384 22.3191 55.8932 22.0061C55.148 21.7172 54.4989 21.2838 53.9941 20.7541C53.4652 20.2244 53.0565 19.5743 52.7921 18.8279C52.5036 18.0815 52.3594 17.287 52.3594 16.4202V7.63208H55.0759V16.3961C55.0759 16.9499 55.148 17.4555 55.2922 17.913C55.4365 18.3704 55.6528 18.7557 55.9413 19.0687C56.2298 19.3817 56.5663 19.6465 56.999 19.8151C57.3837 20.0318 57.8404 20.104 58.3693 20.104Z" fill="#1C1F2D"/>
<path d="M81.2543 14.9758C81.2543 16.0592 81.0861 17.0464 80.7255 17.9613C80.3649 18.8762 79.86 19.6708 79.211 20.3449C78.5619 21.0191 77.7926 21.5247 76.8791 21.9099C75.9656 22.2952 74.9559 22.4637 73.8501 22.4637C72.7443 22.4637 71.7346 22.2711 70.8211 21.9099C69.9076 21.5247 69.1143 21.0191 68.4652 20.3449C67.8162 19.6708 67.3113 18.8762 66.9507 17.9613C66.5902 17.0464 66.4219 16.0592 66.4219 14.9758C66.4219 13.8923 66.5902 12.9051 66.9507 11.9902C67.3113 11.0753 67.8162 10.2807 68.4652 9.60658C69.1143 8.93242 69.9076 8.4268 70.8211 8.04157C71.7346 7.65634 72.7443 7.48779 73.8501 7.48779C74.9559 7.48779 75.9656 7.68041 76.8791 8.06564C77.7926 8.45087 78.5619 8.95649 79.211 9.63065C79.86 10.3048 80.3649 11.0994 80.7255 12.0143C81.0861 12.9051 81.2543 13.9164 81.2543 14.9758ZM78.4657 14.9758C78.4657 14.1812 78.3455 13.4589 78.1532 12.8088C77.9369 12.1587 77.6243 11.629 77.2397 11.1716C76.8551 10.7141 76.3502 10.377 75.7973 10.1603C75.2444 9.94365 74.5713 9.79919 73.8742 9.79919C73.153 9.79919 72.5039 9.91958 71.951 10.1603C71.374 10.4011 70.8932 10.7382 70.4846 11.1716C70.0759 11.629 69.7634 12.1587 69.547 12.8088C69.3307 13.4348 69.2345 14.1571 69.2345 14.9758C69.2345 15.7703 69.3547 16.4926 69.547 17.1427C69.7634 17.7687 70.0759 18.3225 70.4846 18.7559C70.8932 19.1892 71.374 19.5263 71.951 19.7671C72.5279 20.0079 73.177 20.1282 73.8742 20.1282C74.5954 20.1282 75.2444 20.0079 75.7973 19.7671C76.3743 19.5263 76.8551 19.1892 77.2397 18.7559C77.6484 18.3225 77.9369 17.7687 78.1532 17.1427C78.3696 16.5167 78.4657 15.7944 78.4657 14.9758Z" fill="#1C1F2D"/>
<path d="M92.9375 7.65649V9.89566H88.5382V22.3194H85.8217V9.89566H81.3984V7.65649H92.9375V7.65649Z" fill="#1C1F2D"/>
<path d="M103.876 7.65649V9.82343H97.385V13.8924H102.505V15.9872H97.385V20.1284H103.876V22.3194H94.6445V7.65649H103.876Z" fill="#1C1F2D"/>
<path d="M109.767 14.7589L105.103 7.65616H107.82C108.012 7.65616 108.156 7.68023 108.228 7.72839C108.324 7.77654 108.397 7.87285 108.445 7.96916L111.786 13.3624C111.81 13.2661 111.858 13.1939 111.906 13.0976C111.954 13.0253 112.002 12.929 112.051 12.8327L115.104 8.01731C115.248 7.77654 115.44 7.63208 115.681 7.63208H118.301L113.541 14.6626L118.397 22.3191H115.681C115.512 22.3191 115.344 22.2709 115.248 22.1746C115.128 22.0783 115.031 21.982 114.959 21.8616L111.57 16.2517C111.546 16.3239 111.522 16.3961 111.474 16.4924C111.45 16.5647 111.401 16.6369 111.377 16.6851L108.108 21.8375C108.036 21.9579 107.94 22.0542 107.844 22.1505C107.723 22.2468 107.603 22.295 107.435 22.295H104.887L109.767 14.7589Z" fill="#1C1F2D"/>
<path d="M26.0871 22.512V7.51204L19.9461 3.97271V6.5008L23.887 8.78812V21.236L22.1462 22.2472V12.1348H19.9461V23.5233L18.157 24.5345V9.29374H15.9569V25.8106L14.1678 26.8459V3.17817L18.157 5.48957V2.9374L13.0556 0L7.97844 2.9374V5.46549L11.9677 3.17817V26.8459L10.1786 25.8106V9.29374H7.97844V24.5586L6.18934 23.5233V12.1348H3.98922V22.2713L2.20012 21.236V8.78812L2.321 8.71589L6.18934 6.5008V3.94863L0 7.51204V22.512L13.0556 30L26.0871 22.512Z" fill="#D13939"/>
</svg>
