<?xml version="1.0"?>
<svg xmlns="http://www.w3.org/2000/svg" viewBox="0 0 64 64" width="40" height="40">
   <g id="Assurance" fill="#017EFB">
      <path d="M49.707,49.293a1,1,0,0,0-1.414,1.414l2,2a.9995.9995,0,0,0,1.414,0l4-4a1,1,0,0,0-1.414-1.414L51,50.5859Z"/>
      <path
         d="M62.5146,43.1426l-10-6a1.0027,1.0027,0,0,0-1.0292,0l-10,6A.999.999,0,0,0,41,44v4.8447A15.9221,15.9221,0,0,0,51.0576,63.7l.5708.2285a1.0014,1.0014,0,0,0,.7422,0l.5713-.2275A15.9258,15.9258,0,0,0,63,48.8447V44A.999.999,0,0,0,62.5146,43.1426ZM61,48.8447a13.9344,13.9344,0,0,1-8.8,12.9991l-.1992.0791-.2-.08A13.9321,13.9321,0,0,1,43,48.8447V44.5664l9-5.4,9,5.4Z"/>
      <path
         d="M29,24a1,1,0,0,0-2,0,3.0033,3.0033,0,0,0,3,3v1a1,1,0,0,0,2,0V27a3.0033,3.0033,0,0,0,3-3v-.5586a2.9958,2.9958,0,0,0-2.0518-2.8457L32,20.28V17a1.0009,1.0009,0,0,1,1,1,1,1,0,0,0,2,0,3.0033,3.0033,0,0,0-3-3V14a1,1,0,0,0-2,0v1a3.0033,3.0033,0,0,0-3,3v.5586a2.9958,2.9958,0,0,0,2.0518,2.8457L30,21.72V25A1.0009,1.0009,0,0,1,29,24Zm.6841-4.4922A1,1,0,0,1,29,18.5586V18a1.0009,1.0009,0,0,1,1-1v2.6131ZM32,22.3869l.3159.1053A1,1,0,0,1,33,23.4414V24a1.0009,1.0009,0,0,1-1,1Z"/>
      <path
         d="M44.54,62H11V17h6a1,1,0,0,0,1-1V10H51V34a1,1,0,0,0,2,0V9a1,1,0,0,0-1-1H17a1.0716,1.0716,0,0,0-.703.29l-.0047.0036L9.2938,15.2921l-.0034.0043A1.0813,1.0813,0,0,0,9,16V63a1,1,0,0,0,1,1H44.54a1,1,0,0,0,0-2ZM16,11.4141V15H12.4141Z"/>
      <path d="M6,54H3V2H43V5a1,1,0,0,0,2,0V1a1,1,0,0,0-1-1H2A1,1,0,0,0,1,1V55a1,1,0,0,0,1,1H6a1,1,0,0,0,0-2Z"/>
      <path d="M48,33a1,1,0,0,0-1-1H15a1,1,0,0,0,0,2H47A1,1,0,0,0,48,33Z"/>
      <path d="M43,38a1,1,0,0,0-1-1H21a1,1,0,0,0,0,2H42A1,1,0,0,0,43,38Z"/>
      <path d="M21,44H31a1,1,0,0,0,0-2H21a1,1,0,0,0,0,2Z"/>
      <path d="M38,47H21a1,1,0,0,0,0,2H38a1,1,0,0,0,0-2Z"/>
      <path d="M21,54H31a1,1,0,0,0,0-2H21a1,1,0,0,0,0,2Z"/>
      <path d="M21,59H38a1,1,0,0,0,0-2H21a1,1,0,0,0,0,2Z"/>
      <path d="M17,37H15a1,1,0,0,0,0,2h2a1,1,0,0,0,0-2Z"/>
      <path d="M17,42H15a1,1,0,0,0,0,2h2a1,1,0,0,0,0-2Z"/>
      <path d="M17,47H15a1,1,0,0,0,0,2h2a1,1,0,0,0,0-2Z"/>
      <path d="M17,52H15a1,1,0,0,0,0,2h2a1,1,0,0,0,0-2Z"/>
      <path d="M17,57H15a1,1,0,0,0,0,2h2a1,1,0,0,0,0-2Z"/>
      <path d="M42,22a1,1,0,0,0,0-2H39a1,1,0,0,0,0,2Z"/>
      <path d="M23,22a1,1,0,0,0,0-2H20a1,1,0,0,0,0,2Z"/>
   </g>
</svg>
