<?xml version="1.0" encoding="iso-8859-1"?>
<!-- Generator: Adobe Illustrator 19.0.0, SVG Export Plug-In . SVG Version: 6.00 Build 0)  -->
<svg version="1.1" id="Capa_1" xmlns="http://www.w3.org/2000/svg" xmlns:xlink="http://www.w3.org/1999/xlink" x="0px" y="0px"
   viewBox="0 0 512 512" style="enable-background:new 0 0 512 512;" xml:space="preserve" width="40" height="40" fill="#017EFB">
<path d="M256,120c-5.52,0-10,4.48-10,10c0,5.52,4.48,10,10,10c5.52,0,10-4.48,10-10C266,124.48,261.52,120,256,120z"/>
   <path d="M4.929,238.619c3.31,1.948,7.44,1.827,10.63-0.308c32.352-21.64,81.023-21.948,113.858-0.906
	c1.773,1.601,4.115,2.584,6.692,2.584c0.036,0,0.072-0.005,0.108-0.005c2.002,0.039,4.013-0.509,5.752-1.673
	c31.487-21.063,71.764-21.98,104.03-2.783c0,10.014,0,209.358,0,226.472c0,27.624,22.377,50,50,50c27.57,0,50-22.43,50-50v-40
	c0-5.522-4.478-10-10-10s-10,4.478-10,10v40c0,16.542-13.458,30-30,30c-16.571,0-30-13.429-30-30c0-17.247,0-216.552,0-226.472
	c32.265-19.198,72.543-18.279,104.029,2.784c1.685,1.127,3.623,1.688,5.561,1.688c0.068,0,0.135-0.013,0.203-0.015
	c0.033,0,0.064,0.005,0.097,0.005c2.576,0,4.917-0.983,6.69-2.583c32.835-21.042,81.507-20.734,113.861,0.904
	c3.191,2.135,7.323,2.254,10.63,0.308c3.309-1.946,5.211-5.615,4.896-9.441C501.413,101.224,387.572,0,256,0
	C124.499,0,10.594,101.146,0.034,229.178C-0.281,233.004,1.621,236.673,4.929,238.619z M266,212.903V170c0-5.522-4.478-10-10-10
	s-10,4.478-10,10v42.902c-31.432-14.76-67.659-14.837-99.138-0.219C153.32,111.541,195.338,30.488,246,20.952V90
	c0,5.522,4.478,10,10,10s10-4.478,10-10V20.952c50.662,9.536,92.68,90.59,99.137,191.731
	C333.659,198.064,297.433,198.143,266,212.903z M489.619,212.007c-15.418-6.596-32.821-10.136-50.622-10.162
	c-0.066,0-0.13,0-0.195,0c-18.941,0-37.439,3.992-53.585,11.404C381.51,150.45,362.32,72.314,318.085,28.46
	C404.819,52.405,474.357,124.629,489.619,212.007z M193.915,28.459c-44.244,43.863-63.424,121.981-67.133,184.789
	c-32.288-14.821-71.886-15.152-104.402-1.241C37.643,124.629,107.182,52.405,193.915,28.459z"/>
   <path d="M111,431.29c-4.273,0-8.885-2.687-12.986-7.564c-3.554-4.229-9.863-4.774-14.089-1.22
	c-4.228,3.554-4.773,9.862-1.219,14.089c5.346,6.36,11.632,10.791,18.294,13.025v11.67c0,5.522,4.477,10,10,10s10-4.478,10-10
	v-11.72c11.639-4.128,20-15.243,20-28.28c0-16.542-13.458-30-30-30c-5.514,0-10-4.486-10-10s4.486-10,10-10
	c3.542,0,7.283,1.808,10.816,5.227c3.969,3.841,10.301,3.736,14.14-0.232c3.84-3.97,3.736-10.3-0.233-14.141
	c-5.075-4.911-10.153-7.688-14.724-9.205V341.29c0-5.522-4.477-10-10-10s-10,4.478-10,10v11.72c-11.639,4.128-20,15.243-20,28.28
	c0,16.542,13.458,30,30,30c5.514,0,10,4.486,10,10S116.514,431.29,111,431.29z"/>
   <path d="M110,512c60.654,0,110-49.346,110-110s-49.346-110-110-110S0,341.346,0,402S49.346,512,110,512z M110,312
	c49.626,0,90,40.374,90,90s-40.374,90-90,90s-90-40.374-90-90S60.374,312,110,312z"/>
   <g>
</g>
   <g>
</g>
   <g>
</g>
   <g>
</g>
   <g>
</g>
   <g>
</g>
   <g>
</g>
   <g>
</g>
   <g>
</g>
   <g>
</g>
   <g>
</g>
   <g>
</g>
   <g>
</g>
   <g>
</g>
   <g>
</g>
</svg>
