<svg width="386" height="387" viewBox="0 0 386 387" xmlns="http://www.w3.org/2000/svg" xmlns:xlink="http://www.w3.org/1999/xlink">
    <defs>
        <filter x="-34.1%" y="-34.8%" width="168.1%" height="169.7%" filterUnits="objectBoundingBox" id="1d0w2bea7a">
            <feOffset in="SourceAlpha" result="shadowOffsetOuter1"/>
            <feGaussianBlur stdDeviation="31" in="shadowOffsetOuter1" result="shadowBlurOuter1"/>
            <feColorMatrix values="0 0 0 0 0 0 0 0 0 0 0 0 0 0 0 0 0 0 0.0818758878 0" in="shadowBlurOuter1"/>
        </filter>
        <path d="M168.288 0v267h16.205V16.2h66.38c-11.219 33.96-22.438 63.557-33.969 88.793 26.178 30.532 39.579 55.456 39.89 74.46 0 10.594-2.493 18.382-7.167 23.056-4.363 3.738-14.648 5.92-30.853 6.542-4.051 0-9.038-.311-15.27-.934l4.986 16.512c26.178 0 43.63-3.427 52.356-10.281 8.103-6.854 12.154-18.382 12.154-34.894-.312-19.316-13.4-44.24-38.955-74.461 12.777-28.351 24.308-58.883 34.904-91.908V0H168.288zm-32.411 141.133H20.257v125.555h16.517V246.75h82.274v18.693h16.829V141.133zM36.774 230.86v-73.838h82.274v73.838H36.774zM54.226 16.824c-3.74 23.678-9.35 42.682-17.14 57.325C28.983 88.481 16.517 101.877 0 114.028l9.973 12.774c18.387-13.709 32.41-28.975 41.76-46.11 8.103-15.578 14.335-37.075 18.699-63.868h53.602c-.623 38.32-1.87 61.999-4.051 71.345-2.493 9.035-8.103 13.708-17.452 14.02-6.856-.312-15.27-.623-25.555-.935l4.363 15.266c9.35.312 17.764.624 24.932.624 12.465 0 21.191-5.608 26.49-16.201 4.986-11.216 7.479-44.24 7.79-99.697H7.791v15.578h46.435z" id="8kojs4ph7b"/>
    </defs>
    <g transform="translate(54 61)" fill-rule="nonzero" fill="none">
        <use fill="#000" filter="url(#1d0w2bea7a)" xlink:href="#8kojs4ph7b"/>
        <use fill="#E9ECEE" xlink:href="#8kojs4ph7b"/>
    </g>
</svg>
