<?xml version="1.0" encoding="utf-8"?>
<svg width="27.42871px" height="24px" viewBox="0 0 27.42871 24" version="1.1" xmlns:xlink="http://www.w3.org/1999/xlink" xmlns="http://www.w3.org/2000/svg">
  <g id="download">
    <path d="M24 0L3.42857 0C1.54286 0 -5.68434e-14 1.54286 -5.68434e-14 3.42857L-5.68434e-14 17.1429C-5.68434e-14 19.0286 1.54286 20.5714 3.42857 20.5714L14.1371 20.5714L13.4971 19.9314C13.0286 19.4743 12.7429 18.9029 12.6286 18.2857L3.42857 18.2857C2.8 18.2857 2.28571 17.7714 2.28571 17.1429L2.28571 14.8571L8.28571 14.8571C10.0194 14.8571 11.4286 13.448 11.4286 11.7143L11.4286 8.85714C11.4286 7.12343 10.0194 5.71429 8.28571 5.71429L2.28571 5.71429L2.28571 3.42857C2.28571 2.8 2.8 2.28571 3.42857 2.28571L24 2.28571C24.6286 2.28571 25.1429 2.8 25.1429 3.42857L25.1429 9.02857C25.84 9.71428 26.2857 10.6629 26.2857 11.7143L26.2857 14.5714L26.5714 14.5714C26.8686 14.5714 27.1543 14.6171 27.4286 14.6971L27.4286 3.42857C27.4286 1.54286 25.8857 0 24 0ZM4.57143 10.2857C4.57143 11.5486 5.59429 12.5714 6.85714 12.5714C8.12 12.5714 9.14286 11.5486 9.14286 10.2857C9.14286 9.02286 8.12 8 6.85714 8C5.59429 8 4.57143 9.02286 4.57143 10.2857ZM21.1429 24C20.9234 24 20.704 23.9166 20.5371 23.7486L15.1086 18.32C14.864 18.0754 14.7897 17.7063 14.9223 17.3863C15.0549 17.0663 15.368 16.8571 15.7143 16.8571L18.2857 16.8571L18.2857 11.7143C18.2857 10.9269 18.9269 10.2857 19.7143 10.2857L22.5714 10.2857C23.3589 10.2857 24 10.9269 24 11.7143L24 16.8571L26.5714 16.8571C26.9177 16.8571 27.2309 17.0663 27.3634 17.3863C27.496 17.7063 27.4229 18.0754 27.1771 18.32L21.7486 23.7486C21.5817 23.9166 21.3623 24 21.1429 24Z" id="Combined-Shape" fill="#75808A" fill-rule="evenodd" stroke="none" />
  </g>
</svg>