<svg width="54" height="54" viewBox="0 0 54 54" xmlns="http://www.w3.org/2000/svg">
    <path d="M31.616 3.836c5.114-5.115 13.435-5.114 18.549 0 5.113 5.114 5.113 13.436 0 18.55L40.067 32.485a13.039 13.039 0 0 1-4.596 2.978 12.991 12.991 0 0 1-2.983 4.602l-10.098 10.1A13.074 13.074 0 0 1 13.116 54a13.074 13.074 0 0 1-9.275-3.836A13.032 13.032 0 0 1 0 40.89c0-3.504 1.364-6.798 3.841-9.275l10.098-10.1a13.04 13.04 0 0 1 4.596-2.977 12.993 12.993 0 0 1 2.984-4.602zm9.275 4.78a4.467 4.467 0 0 0-3.18 1.314l-8.965 8.966a13.054 13.054 0 0 1 3.742 2.619c.484.484.933 1.01 1.334 1.559a.862.862 0 0 1-1.393 1.016 11.566 11.566 0 0 0-1.16-1.356c-4.442-4.443-11.67-4.442-16.11 0L5.06 32.833a11.319 11.319 0 0 0-3.336 8.056 11.32 11.32 0 0 0 3.336 8.056c4.442 4.443 11.67 4.443 16.111 0l10.098-10.099a11.354 11.354 0 0 0 2.039-2.766 13.216 13.216 0 0 1-6.278-.307l-9.515 9.516a6.179 6.179 0 0 1-4.4 1.82 6.178 6.178 0 0 1-4.398-1.82 6.18 6.18 0 0 1-1.82-4.4 6.18 6.18 0 0 1 1.82-4.4l10.098-10.098a6.228 6.228 0 0 1 8.798 0 4.467 4.467 0 0 0 3.18 1.315 4.467 4.467 0 0 0 3.18-1.315l10.098-10.1a4.468 4.468 0 0 0 1.315-3.18 4.467 4.467 0 0 0-1.315-3.18 4.467 4.467 0 0 0-3.18-1.316zm8.055-3.562c-4.442-4.442-11.669-4.442-16.11 0l-10.099 10.1A11.336 11.336 0 0 0 20.7 17.92c2.08-.403 4.239-.3 6.278.307l9.514-9.516a6.18 6.18 0 0 1 4.4-1.82c1.663 0 3.225.646 4.399 1.82a6.18 6.18 0 0 1 1.82 4.4 6.18 6.18 0 0 1-1.82 4.4L35.191 27.608a6.179 6.179 0 0 1-4.4 1.82 6.18 6.18 0 0 1-4.4-1.82 4.502 4.502 0 0 0-6.359 0L9.935 37.71a4.468 4.468 0 0 0-1.315 3.18c0 1.203.467 2.333 1.315 3.18a4.467 4.467 0 0 0 3.18 1.315 4.466 4.466 0 0 0 3.18-1.315l8.966-8.965a13.056 13.056 0 0 1-3.742-2.619 13.268 13.268 0 0 1-1.335-1.559.862.862 0 0 1 1.393-1.016c.348.478.739.935 1.16 1.356 4.442 4.442 11.67 4.442 16.111 0l10.098-10.099c4.442-4.442 4.442-11.67 0-16.113z" fill="#017EFB" fill-rule="nonzero"/>
</svg>
