<?xml version="1.0" encoding="utf-8"?>
<svg width="54.80078px" height="54.80005px" viewBox="0 0 54.80078 54.80005" version="1.1" xmlns:xlink="http://www.w3.org/1999/xlink" xmlns="http://www.w3.org/2000/svg">
  <g id="exchange">
    <path d="M27 13.5C27 6.05644 20.9436 0 13.5 0C6.05644 0 0 6.05644 0 13.5C0 20.9436 6.05644 27 13.5 27C20.9436 27 27 20.9436 27 13.5ZM13.5 25.3125C6.98625 25.3125 1.6875 20.0138 1.6875 13.5C1.6875 6.98625 6.98625 1.6875 13.5 1.6875C20.0138 1.6875 25.3125 6.98625 25.3125 13.5C25.3125 20.0138 20.0138 25.3125 13.5 25.3125Z" id="Shape" fill="#75808A" stroke="none" />
    <path d="M13.8812 36.8824L13.8812 29.8115L15.8424 31.6999L17.0517 30.5354L13.6306 27.2413C13.4638 27.0807 13.2448 27 13.0259 27C12.8069 27 12.588 27.0807 12.4212 27.2413L9 30.5354L10.2094 31.6999L12.1706 29.8115L12.1706 36.8824C12.1706 39.1528 14.089 41 16.4471 41L25 41L25 39.3529L16.4471 39.3529C15.0324 39.3529 13.8812 38.2445 13.8812 36.8824Z" id="Path" fill="#75808A" stroke="none" />
    <path d="M13.5 8.27273C14.9886 8.27273 16.2 9.374 16.2 10.7273L18 10.7273C18 8.75218 16.4511 7.09945 14.4 6.719L14.4 5L12.6 5L12.6 6.719C10.5489 7.09945 9 8.75218 9 10.7273C9 12.983 11.0187 14.8182 13.5 14.8182C14.9886 14.8182 16.2 15.9195 16.2 17.2727C16.2 18.626 14.9886 19.7273 13.5 19.7273C12.0114 19.7273 10.8 18.626 10.8 17.2727L9 17.2727C9 19.2478 10.5489 20.9005 12.6 21.281L12.6 23L14.4 23L14.4 21.281C16.4511 20.9005 18 19.2486 18 17.2727C18 15.017 15.9813 13.1818 13.5 13.1818C12.0114 13.1818 10.8 12.0805 10.8 10.7273C10.8 9.374 12.0114 8.27273 13.5 8.27273Z" id="Path" fill="#75808A" stroke="none" />
    <g id="Group" transform="translate(27 27)">
      <path d="M27 13.5C27 20.9558 20.9558 27 13.5 27C6.04424 27 0 20.9558 0 13.5C0 6.04424 6.04424 0 13.5 0C20.9558 0 27 6.04424 27 13.5Z" id="Path" fill="none" stroke="#017EFB" stroke-width="1.6" />
      <path d="M8 8L19 8L19 9.57143L8 9.57143L8 8ZM12.7143 9.57143L14.2857 9.57143L14.2857 21.3571L12.7143 21.3571L12.7143 9.57143Z" id="Combined-Shape" fill="none" fill-rule="evenodd" stroke="#017EFB" stroke-width="1" />
    </g>
  </g>
</svg>