<svg width="39" height="55" viewBox="0 0 39 55" xmlns="http://www.w3.org/2000/svg">
    <path d="M12.488 30.894h14.024v-1.65H12.488v1.65zM39 .825v49.742a.827.827 0 0 1-.83.825H23.544v2.785c.022.704-.913 1.105-1.41.59L19.5 52.21l-2.634 2.557c-.492.508-1.435.12-1.41-.59v-2.784H.83a.827.827 0 0 1-.83-.825V.825C0 .369.371 0 .83 0h37.34c.459 0 .83.37.83.825zM18.03 43.298c2.83 1.047 6.037-1.232 5.982-4.283 0-2.501-2.024-4.536-4.512-4.536-5.094.082-6.209 7.114-1.47 8.82zm5.514 2.138h5.696l3.808-3.822V9.778L29.24 5.957H9.76L5.952 9.778v31.837l3.808 3.82h5.696v-1.759C11.19 40.007 13.792 32.832 19.5 32.83c5.708 0 8.309 7.183 4.044 10.847v1.76zm-1.66 5.131V44.72c-1.45.636-3.318.636-4.768 0 .003 1.877-.002 5.599 0 7.498l1.804-1.752a.834.834 0 0 1 1.16 0l1.804 1.752v-1.65zM37.34 1.65H1.66v48.092h13.796v-2.656H9.414a.834.834 0 0 1-.59-.244l-4.292-4.308a.823.823 0 0 1-.24-.58V9.438c0-.218.087-.426.24-.58L8.824 4.55a.834.834 0 0 1 .59-.244h20.172c.221 0 .434.088.59.244l4.292 4.307c.153.155.24.363.24.581v32.516a.824.824 0 0 1-.24.58l-4.292 4.308a.834.834 0 0 1-.59.244h-6.042v2.656H37.34V1.65zM21 13v12h1.006V13.913h2.72c-.497 1.481-1.006 2.769-1.53 3.848 1.203 1.357 1.812 2.464 1.827 3.308-.015.443-.114.748-.284.914-.155.166-.538.249-1.133.277-.255 0-.566-.028-.92-.056l.311.955c1.218 0 2.026-.166 2.422-.484.383-.29.581-.83.581-1.606-.014-.858-.595-1.965-1.742-3.308a43.769 43.769 0 0 0 1.558-4.014V13H21zm-1 6h-5v6h.898v-.87h3.19v.812H20V19zm-4 4v-3h3v3h-3zm.187-10.012c-.157 1.002-.39 1.816-.677 2.44-.339.654-.846 1.25-1.51 1.802l.547.77c.78-.64 1.366-1.351 1.757-2.15.312-.712.572-1.67.755-2.862h2.043c-.026 1.656-.091 2.688-.17 3.08-.09.392-.312.595-.65.624-.286-.014-.638-.043-1.08-.072l.234.93c.403.029.755.058 1.054.058.547 0 .924-.262 1.159-.785.234-.537.351-2.15.351-4.823h-5.662v.988h1.849z" fill="#017EFB" fill-rule="nonzero"/>
</svg>
