<svg width="38" height="54" viewBox="0 0 38 54" xmlns="http://www.w3.org/2000/svg">
    <g fill="none" fill-rule="evenodd">
        <path d="M33.8 1.2h-2.4a.6.6 0 0 1 0-1.2h2.4a.6.6 0 0 1 0 1.2zM29 1.2H5A.6.6 0 0 1 5 0h24a.6.6 0 0 1 0 1.2zM7.4 54H5a.6.6 0 0 1 0-1.2h2.4a.6.6 0 0 1 0 1.2zM33.8 54h-24a.6.6 0 0 1 0-1.2h24a.6.6 0 0 1 0 1.2z" fill="#017EFB" fill-rule="nonzero"/>
        <g stroke="#017EFB">
            <path d="M37 27c0 9.941-8.059 18-18 18S1 36.941 1 27 9.059 9 19 9s18 8.059 18 18z" stroke-width="1.6"/>
            <path d="M12 22v-2h14v2h-6v15h-2V22h-6zm.5 4.5h13"/>
        </g>
    </g>
</svg>
