<?xml version="1.0" encoding="utf-8"?>
<svg width="49.48242px" height="26px" viewBox="0 0 49.48242 26" version="1.1" xmlns:xlink="http://www.w3.org/1999/xlink" xmlns="http://www.w3.org/2000/svg">
  <g id="HK$">
    <path d="M15.3126 23.1537L12.6716 23.1537L12.6716 13.9442L2.62737 13.9442L2.62737 23.1537L0 23.1537L0 3.22947L2.62737 3.22947L2.62737 11.7958L12.6716 11.7958L12.6716 3.22947L15.3126 3.22947L15.3126 23.1537Z" id="Path" fill="#017EFB" stroke="none" />
    <path d="M25.0421 13.8895L22.6063 16.4211L22.6063 23.1537L19.9789 23.1537L19.9789 3.22947L22.6063 3.22947L22.6063 13.0821L31.46 3.22947L34.6347 3.22947L26.7937 12.0284L35.2505 23.1537L32.1032 23.1537L25.0421 13.8895Z" id="Path" fill="#017EFB" stroke="none" />
    <path d="M46.9505 18.0221C46.9505 17.1828 46.6563 16.4758 46.0679 15.9011C45.4795 15.3263 44.4874 14.8063 43.0916 14.3411C41.1484 13.7481 39.7321 12.9749 38.8426 12.0216C37.9532 11.0682 37.5084 9.85719 37.5084 8.38842C37.5084 6.89228 37.944 5.66526 38.8153 4.70737C39.6865 3.74947 40.8839 3.1793 42.4074 2.99684L42.4074 0L44.4463 0L44.4463 3.01053C45.9789 3.22035 47.1718 3.86351 48.0247 4.94C48.8777 6.01649 49.3042 7.48982 49.3042 9.36L46.7863 9.36C46.7863 8.07368 46.4807 7.05193 45.8695 6.29474C45.2582 5.53754 44.4326 5.15895 43.3926 5.15895C42.307 5.15895 41.4768 5.43947 40.9021 6.00053C40.3274 6.56158 40.04 7.34386 40.04 8.34737C40.04 9.27789 40.3433 10.0191 40.95 10.5711C41.5567 11.123 42.5556 11.6247 43.9468 12.0763C45.3381 12.5279 46.4237 13.0251 47.2037 13.5679C47.9837 14.1107 48.5584 14.7425 48.9279 15.4632C49.2974 16.1839 49.4821 17.0277 49.4821 17.9947C49.4821 19.5365 49.0191 20.7772 48.0932 21.7168C47.1672 22.6565 45.8695 23.213 44.2 23.3863L44.2 26L42.1747 26L42.1747 23.3863C40.4779 23.2312 39.1482 22.6268 38.1858 21.5732C37.2233 20.5195 36.7421 19.0895 36.7421 17.2832L39.2737 17.2832C39.2737 18.5512 39.6067 19.5274 40.2726 20.2116C40.9386 20.8958 41.8828 21.2379 43.1053 21.2379C44.3004 21.2379 45.24 20.9505 45.9242 20.3758C46.6084 19.8011 46.9505 19.0165 46.9505 18.0221Z" id="Path" fill="#017EFB" stroke="none" />
  </g>
</svg>