<svg height="45" viewBox="0 0 24 25" width="45" xmlns="http://www.w3.org/2000/svg">
   <g fill="#017EFB">
      <path clip-rule="evenodd"
         d="m6.02764 4.03167c1.76783-1.18122 3.84622-1.8117 5.97236-1.8117.4142 0 .75.33579.75.75s-.3358.75-.75.75c-1.8295 0-3.61785.5425-5.139 1.55891-1.52117 1.01641-2.70677 2.461-3.40688 4.1512-.70011 1.69022-.88329 3.55022-.52638 5.34452s1.23789 3.4424 2.53153 4.7361c1.29364 1.2936 2.94184 2.1746 4.73613 2.5315 1.7943.357 3.6542.1737 5.3444-.5264 1.6903-.7001 3.1349-1.8857 4.1513-3.4068 1.0164-1.5212 1.5589-3.3096 1.5589-5.139 0-.4142.3358-.75.75-.75s.75.3358.75.75c0 2.1261-.6305 4.2045-1.8117 5.9723s-2.8601 3.1457-4.8244 3.9593c-1.9643.8137-4.1258 1.0266-6.2111.6118s-4.00078-1.4386-5.50419-2.9421c-1.50341-1.5034-2.52726-3.4188-2.94205-5.5041s-.2019-4.2468.61174-6.21115c.81365-1.96431 2.19152-3.64316 3.95934-4.82438z"
         fill-rule="evenodd"/>
      <path
         d="m12.7003 17.1099v1.1001c0 .1777-.0707.3482-.1963.4738-.1257.1257-.2961.1961-.4738.1961s-.3481-.0704-.4737-.1961c-.1257-.1256-.1963-.2961-.1963-.4738v-1.1299c-.4437-.0729-.8685-.2333-1.2496-.4719-.38117-.2387-.71102-.5509-.97037-.9183-.09446-.1199-.14712-.2673-.15-.4199-.00009-.0866.0174-.1725.05143-.2522.03402-.0796.08387-.1516.14651-.2114.06265-.0598.13678-.1064.21793-.1367.08114-.0304.16761-.0439.25415-.0398.08587-.0005.17077.0181.24859.0544.07783.0363.14656.0897.20136.1558.3199.4179.7541.7339 1.25.9099v-2.54c-1.33-.52-1.99997-1.3001-1.99997-2.3101.02004-.5407.23257-1.05647.59927-1.45434s.8634-.65159 1.4007-.71558v-1.1001c0-.17769.0706-.34798.1963-.47363.1256-.12565.296-.19629.4737-.19629s.3481.07064.4738.19629c.1256.12565.1963.29594.1963.47363v1.09009c.3721.05831.7286.19106 1.0482.39038s.5957.46102.8117.76953c.0953.11247.1515.25302.16.40012.0027.0857-.0118.171-.0428.251s-.0777.153-.1374.2146-.1312.1104-.2101.1438c-.079.0334-.1639.0506-.2497.0505-.0896-.0005-.178-.0203-.2591-.0583s-.1531-.0932-.2109-.1616c-.2384-.2979-.5527-.5258-.9099-.6599v2.25l.25.0998c1.27.5 2.06 1.2201 2.06 2.3601-.0149.6108-.2622 1.1929-.6914 1.6277s-1.0081.6894-1.6186.7122zm-1.3401-5.3799v-1.6301c-.1614.0585-.3003.1663-.3972.3081-.0968.1417-.1468.3103-.1427.4819-.0017.1774.0485.3515.1444.5007.096.1493.2334.2673.3955.3394zm2.19 3.07c0-.48-.3299-.77-.8499-1v2c.2384-.0361.4558-.1573.612-.341.1562-.1838.2407-.4178.2379-.659z"/>
      <g clip-rule="evenodd" fill-rule="evenodd">
         <path d="m22.5302 2.38959c.2929.2929.2929.76777 0 1.06066l-5.66 5.66c-.2929.2929-.7678.29289-1.0607 0s-.2929-.76777 0-1.06066l5.66-5.66c.2929-.29289.7678-.29289 1.0607 0z"/>
         <path d="m16.3398 3.2998c.4143 0 .75.33579.75.75v3.78h3.78c.4143 0 .75.33579.75.75 0 .41422-.3357.75-.75.75h-4.53c-.4142 0-.75-.33578-.75-.75v-4.53c0-.41421.3358-.75.75-.75z"/>
      </g>
   </g>
</svg>
