<svg xmlns="http://www.w3.org/2000/svg" width="37" height="36" viewBox="0 0 37 36"><path fill="#017EFB" d="M22.2750846,0 L22.2750846,36 L25.2367531,36 L25.2367531,2.74048443 L33.2457723,2.74048443 C31.7857948,7.183391 30.2841037,11.0449827 28.740699,14.283737 C32.2863585,18.3529412 34.0800451,21.6747405 34.1217587,24.2076125 C34.0800451,25.5363322 33.7880496,26.449827 33.2874859,26.9480969 C32.8286359,27.4463668 31.7023675,27.6955017 29.9503946,27.7785467 C29.199549,27.7785467 28.2818489,27.6955017 27.2390079,27.6124567 L28.156708,30.4775087 C31.7440812,30.4775087 34.1217587,29.9792388 35.2897407,29.0242215 C36.416009,28.1522491 37,26.532872 37,24.2076125 C36.9582864,21.633218 35.2480271,18.3114187 31.8692221,14.283737 C33.4960541,10.5882353 35.0394589,6.56055363 36.4577227,2.24221453 L36.4577227,0 L22.2750846,0 Z M18.5625705,18.7681661 L2.54453213,18.7681661 L2.54453213,35.9584775 L5.42277339,35.9584775 L5.42277339,33.467128 L15.6426156,33.467128 L15.6426156,35.7923875 L18.5625705,35.7923875 L18.5625705,18.7681661 Z M5.42277339,30.6851211 L5.42277339,21.5916955 L15.6426156,21.5916955 L15.6426156,30.6851211 L5.42277339,30.6851211 Z M7.00789177,2.90657439 C6.50732807,5.7716263 5.75648253,8.09688581 4.83878241,9.88235294 C3.75422773,11.7508651 2.12739572,13.4532872 0,15.0311419 L1.75197294,17.2318339 C4.25479143,15.4048443 6.1319053,13.3702422 7.38331454,11.0865052 C8.38444194,9.05190311 9.21871477,6.31141869 9.80270575,2.90657439 L16.3517475,2.90657439 C16.2683202,7.64013841 16.059752,10.5882353 15.8094701,11.7093426 C15.5174746,12.8304498 14.8083427,13.4117647 13.723788,13.4948097 C12.8060879,13.4532872 11.6798196,13.3702422 10.2615558,13.2871972 L11.0124014,15.9446367 C12.3055242,16.0276817 13.4317926,16.1107266 14.3912063,16.1107266 C16.1431793,16.1107266 17.3528749,15.3633218 18.1037204,13.8685121 C18.854566,12.3321799 19.2299887,7.72318339 19.2299887,0.0830449827 L1.08455468,0.0830449827 L1.08455468,2.90657439 L7.00789177,2.90657439 Z"/></svg>