<svg height="40" viewBox="0 0 64 64" width="40" xmlns="http://www.w3.org/2000/svg">
   <g id="outline_final" fill="#017EFB" data-name="outline final">
      <path d="m55 63h-40a1 1 0 0 1 -1-1v-6a1 1 0 0 1 2 0v5h38v-52h-5a1 1 0 0 1 0-2h6a1 1 0 0 1 1 1v54a1 1 0 0 1 -1 1z"/>
      <path d="m49 57h-40a1 1 0 0 1 -1-1v-43a1 1 0 0 1 .293-.707l11-11a1 1 0 0 1 .707-.293h29a1 1 0 0 1 1 1v54a1 1 0 0 1 -1 1zm-39-2h38v-52h-27.586l-10.414 10.414z"/>
      <path d="m20 14h-11a1 1 0 0 1 0-2h10v-10a1 1 0 0 1 2 0v11a1 1 0 0 1 -1 1z"/>
      <path d="m31 18h-16a1 1 0 0 1 0-2h16a1 1 0 0 1 0 2z"/>
      <path d="m31 22h-16a1 1 0 0 1 0-2h16a1 1 0 0 1 0 2z"/>
      <path
         d="m39.285 21h-1.035a3.226 3.226 0 0 1 -3.057-2.091 1 1 0 1 1 1.883-.676 1.222 1.222 0 0 0 1.174.767h1.035a1.626 1.626 0 0 0 1.715-1.359 1.317 1.317 0 0 0 -.3-.889 1.565 1.565 0 0 0 -.845-.523l-2.171-.512a3.432 3.432 0 0 1 -2.684-3.31 3.324 3.324 0 0 1 1.053-2.424 3.568 3.568 0 0 1 2.474-.983h1.223a3.226 3.226 0 0 1 3.057 2.091 1 1 0 1 1 -1.883.676 1.222 1.222 0 0 0 -1.174-.767h-1.223a1.579 1.579 0 0 0 -1.1.432 1.342 1.342 0 0 0 -.432.976 1.439 1.439 0 0 0 1.146 1.364l2.171.512a3.568 3.568 0 0 1 1.925 1.2 3.3 3.3 0 0 1 .763 2.23 3.609 3.609 0 0 1 -3.715 3.286z"/>
      <path d="m39 11a1 1 0 0 1 -1-1v-2a1 1 0 0 1 2 0v2a1 1 0 0 1 -1 1z"/>
      <path d="m39 23a1 1 0 0 1 -1-1v-2a1 1 0 0 1 2 0v2a1 1 0 0 1 -1 1z"/>
      <path d="m41 51h-24a3 3 0 0 1 -3-3v-20a3 3 0 0 1 3-3h24a3 3 0 0 1 3 3v20a3 3 0 0 1 -3 3zm-24-24a1 1 0 0 0 -1 1v20a1 1 0 0 0 1 1h24a1 1 0 0 0 1-1v-20a1 1 0 0 0 -1-1z"/>
      <path d="m43 33h-28a1 1 0 0 1 0-2h28a1 1 0 0 1 0 2z"/>
      <path d="m43 39h-28a1 1 0 0 1 0-2h28a1 1 0 0 1 0 2z"/>
      <path d="m43 45h-28a1 1 0 0 1 0-2h28a1 1 0 0 1 0 2z"/>
      <path d="m21 51a1 1 0 0 1 -1-1v-24a1 1 0 0 1 2 0v24a1 1 0 0 1 -1 1z"/>
      <path d="m37 51a1 1 0 0 1 -1-1v-24a1 1 0 0 1 2 0v24a1 1 0 0 1 -1 1z"/>
   </g>
</svg>
