<?xml version="1.0"?>
<svg xmlns="http://www.w3.org/2000/svg" viewBox="0 0 64 64" width="45" height="45">
   <g id="Money-Payment-Insurance" fill="#017EFB">
      <path
         d="M57,4H7A3,3,0,0,0,4,7V37a3,3,0,0,0,3,3H19v5.648A10.979,10.979,0,0,0,23.9,54.8l7.547,5.031a1,1,0,0,0,1.11,0L40.1,54.8A10.979,10.979,0,0,0,45,45.648V40H57a3,3,0,0,0,3-3V7A3,3,0,0,0,57,4ZM37,14.692a5.971,5.971,0,0,1,0,6.616ZM35,28H29V6h6Zm-8-6.692a5.971,5.971,0,0,1,0-6.616ZM6,31.816A2.966,2.966,0,0,0,7,32H19v2H7a1,1,0,0,1-1-1ZM7,38a1,1,0,0,1-1-1V35.816A2.966,2.966,0,0,0,7,36H19v2Zm12-9v1H7a1,1,0,0,1-1-1V7A1,1,0,0,1,7,6H27v5.776a7.956,7.956,0,0,0,0,12.448V28H20A1,1,0,0,0,19,29ZM43,45.648a8.983,8.983,0,0,1-4.008,7.489L32,57.8l-6.992-4.661A8.983,8.983,0,0,1,21,45.648V30H43ZM57,38H45V36H57a2.966,2.966,0,0,0,1-.184V37A1,1,0,0,1,57,38Zm0-4H45V32H57a2.966,2.966,0,0,0,1-.184V33A1,1,0,0,1,57,34Zm0-4H45V29a1,1,0,0,0-1-1H37V24.224a7.956,7.956,0,0,0,0-12.448V6H57a1,1,0,0,1,1,1V29A1,1,0,0,1,57,30Z"/>
      <path d="M53,25H50v2h4a1,1,0,0,0,1-1V22H53Z"/>
      <path d="M11,22H9v4a1,1,0,0,0,1,1h4V25H11Z"/>
      <path d="M54,9H50v2h3v3h2V10A1,1,0,0,0,54,9Z"/>
      <path d="M9,10v4h2V11h3V9H10A1,1,0,0,0,9,10Z"/>
      <rect x="20" y="17" width="2" height="2"/>
      <rect x="42" y="17" width="2" height="2"/>
      <path
         d="M26.117,51.473l5.328,3.551a1,1,0,0,0,1.11,0l5.328-3.551A6.989,6.989,0,0,0,41,45.648V33a1,1,0,0,0-1-1H24a1,1,0,0,0-1,1V45.648A6.989,6.989,0,0,0,26.117,51.473ZM25,34H39V45.648a4.991,4.991,0,0,1-2.227,4.161L32,52.991l-4.773-3.182A4.993,4.993,0,0,1,25,45.648Z"/>
      <path d="M31,45a1,1,0,0,0,.707-.293l5-5-1.414-1.414L31,42.586l-2.293-2.293-1.414,1.414,3,3A1,1,0,0,0,31,45Z"/>
   </g>
</svg>
