<?xml version="1.0" encoding="utf-8"?>
<svg width="119.72412px" height="28px" viewBox="0 0 119.72412 28" version="1.1" xmlns:xlink="http://www.w3.org/1999/xlink" xmlns="http://www.w3.org/2000/svg">
  <g id="logotype">
    <g id="邵">
      <path d="M17.4381 0L17.4381 28L19.7566 28L19.7566 2.13149L26.0265 2.13149C24.8836 5.58708 23.708 8.59054 22.4997 11.1096C25.2754 14.2745 26.6796 16.8581 26.7123 18.8281C26.6796 19.8616 26.451 20.5721 26.0592 20.9596C25.7 21.3472 24.8183 21.5409 23.4467 21.6055C22.8589 21.6055 22.1405 21.5409 21.3241 21.4764L22.0425 23.7047C24.8509 23.7047 26.7123 23.3172 27.6266 22.5744C28.5083 21.8962 28.9655 20.6367 28.9655 18.8281C28.9329 16.8258 27.594 14.2422 24.9489 11.1096C26.2224 8.23529 27.4307 5.10265 28.541 1.74394L28.541 0L17.4381 0ZM14.5317 14.5975L1.99199 14.5975L1.99199 27.9677L4.24523 27.9677L4.24523 26.03L12.2458 26.03L12.2458 27.8385L14.5317 27.8385L14.5317 14.5975ZM4.24523 23.8662L4.24523 16.7935L12.2458 16.7935L12.2458 23.8662L4.24523 23.8662ZM5.48614 2.26067C5.09427 4.48904 4.50647 6.29758 3.78805 7.68627C2.939 9.13956 1.66544 10.4637 0 11.6909L1.37154 13.4025C3.33087 11.9815 4.80037 10.3991 5.78004 8.62284C6.56378 7.04037 7.21689 4.90888 7.67407 2.26067L12.801 2.26067C12.7357 5.94233 12.5724 8.23529 12.3765 9.10727C12.1479 9.97924 11.5927 10.4314 10.7437 10.496C10.0253 10.4637 9.14357 10.3991 8.03328 10.3345L8.62108 12.4014C9.6334 12.466 10.5151 12.5306 11.2662 12.5306C12.6377 12.5306 13.5847 11.9493 14.1725 10.7866C14.7603 9.5917 15.0542 6.00692 15.0542 0.0645905L0.849046 0.0645905L0.849046 2.26067L5.48614 2.26067Z" id="Shape" fill="#1A1C1F" stroke="none" />
    </g>
    <g id="ShaoBank" transform="translate(43.448277 6.7586207)">
      <path d="M7.04228 10.0858C7.04228 9.52983 6.85251 9.10126 6.47299 8.80011C6.09347 8.49895 5.40892 8.1949 4.41934 7.88795C3.42977 7.58101 2.64261 7.23931 2.05786 6.86287C0.93897 6.13894 0.379524 5.19493 0.379524 4.03085C0.379524 3.01155 0.782944 2.17179 1.58978 1.51157C2.39662 0.851343 3.44383 0.52123 4.7314 0.52123C5.58603 0.52123 6.34789 0.683391 7.01697 1.00771C7.68606 1.33203 8.21177 1.7939 8.59411 2.39332C8.97644 2.99273 9.16761 3.6573 9.16761 4.38702L7.04228 4.38702C7.04228 3.7268 6.84127 3.20991 6.43925 2.83636C6.03724 2.46281 5.46233 2.27604 4.71453 2.27604C4.01733 2.27604 3.47616 2.42951 3.09101 2.73646C2.70586 3.04341 2.51329 3.47197 2.51329 4.02216C2.51329 4.48548 2.72133 4.87206 3.1374 5.1819C3.55347 5.49174 4.23942 5.7929 5.19526 6.08536C6.1511 6.37783 6.91858 6.71084 7.4977 7.08439C8.07683 7.45794 8.50133 7.88651 8.77122 8.37009C9.0411 8.85368 9.17604 9.41979 9.17604 10.0684C9.17604 11.1225 8.78387 11.9608 7.99952 12.5834C7.21517 13.206 6.1511 13.5172 4.8073 13.5172C3.91894 13.5172 3.10226 13.3478 2.35726 13.009C1.61227 12.6702 1.03315 12.2026 0.619889 11.6061C0.20663 11.0095 0 10.3146 0 9.52114L2.13377 9.52114C2.13377 10.2393 2.36429 10.7953 2.82534 11.1891C3.2864 11.5829 3.94705 11.7798 4.8073 11.7798C5.54948 11.7798 6.10752 11.6249 6.48142 11.315C6.85533 11.0052 7.04228 10.5955 7.04228 10.0858Z" id="Path" fill="#FFFFFF" stroke="none" />
      <path d="M12.8701 4.96906C13.5392 4.16984 14.3854 3.77023 15.4087 3.77023C17.3541 3.77023 18.3408 4.91404 18.369 7.20167L18.369 13.3435L16.3195 13.3435L16.3195 7.27985C16.3195 6.63121 16.1832 6.17224 15.9105 5.90293C15.6378 5.63363 15.2372 5.49898 14.7087 5.49898C13.8878 5.49898 13.2749 5.87542 12.8701 6.62831L12.8701 13.3435L10.8206 13.3435L10.8206 0L12.8701 0L12.8701 4.96906Z" id="Path" fill="#FFFFFF" stroke="none" />
      <path d="M25.892 13.3435C25.802 13.164 25.7233 12.8715 25.6558 12.4661C25.0036 13.1669 24.2052 13.5172 23.2606 13.5172C22.3441 13.5172 21.5963 13.2479 21.0172 12.7093C20.4381 12.1707 20.1485 11.5047 20.1485 10.7113C20.1485 9.70936 20.5098 8.94055 21.2323 8.40484C21.9548 7.86913 22.9879 7.60128 24.3317 7.60128L25.5883 7.60128L25.5883 6.98449C25.5883 6.49801 25.4562 6.10853 25.192 5.81606C24.9277 5.52359 24.5257 5.37736 23.9859 5.37736C23.5192 5.37736 23.1369 5.49753 22.8389 5.73788C22.5409 5.97822 22.3919 6.28372 22.3919 6.65437L20.3425 6.65437C20.3425 6.13894 20.5083 5.6568 20.8401 5.20796C21.1718 4.75912 21.623 4.40729 22.1937 4.15247C22.7644 3.89764 23.4012 3.77023 24.104 3.77023C25.1723 3.77023 26.0241 4.04677 26.6594 4.59986C27.2948 5.15294 27.6209 5.93044 27.6378 6.93236L27.6378 11.1717C27.6378 12.0173 27.753 12.692 27.9836 13.1958L27.9836 13.3435L25.892 13.3435ZM23.6401 11.8232C24.0449 11.8232 24.4259 11.7219 24.7829 11.5192C25.1399 11.3165 25.4084 11.0443 25.5883 10.7026L25.5883 8.93041L24.4835 8.93041C23.7245 8.93041 23.1538 9.06651 22.7714 9.33871C22.3891 9.61091 22.1979 9.99604 22.1979 10.4941C22.1979 10.8995 22.3287 11.2224 22.5901 11.4627C22.8516 11.7031 23.2016 11.8232 23.6401 11.8232Z" id="Shape" fill="#FFFFFF" stroke="none" />
      <path d="M29.4004 8.55687C29.4004 7.63603 29.5776 6.8064 29.9318 6.06799C30.286 5.32958 30.7836 4.76202 31.4246 4.3653C32.0655 3.96859 32.8021 3.77023 33.6342 3.77023C34.8656 3.77023 35.865 4.17853 36.6325 4.99512C37.4 5.81172 37.8146 6.89472 37.8765 8.24413L37.8849 8.7393C37.8849 9.66593 37.712 10.4941 37.3662 11.2238C37.0204 11.9536 36.5257 12.5182 35.8819 12.9178C35.2381 13.3174 34.4945 13.5172 33.6511 13.5172C32.3635 13.5172 31.3332 13.0756 30.5601 12.1924C29.787 11.3093 29.4004 10.1321 29.4004 8.66111L29.4004 8.55687ZM31.4499 8.7393C31.4499 9.70647 31.6439 10.4637 32.0318 11.011C32.4198 11.5583 32.9595 11.8319 33.6511 11.8319C34.3427 11.8319 34.8811 11.5539 35.2662 10.998C35.6513 10.442 35.8439 9.62828 35.8439 8.55687C35.8439 7.60707 35.6457 6.85418 35.2493 6.2982C34.8529 5.74222 34.3146 5.46423 33.6342 5.46423C32.9652 5.46423 32.4338 5.73788 32.0402 6.28517C31.6467 6.83246 31.4499 7.6505 31.4499 8.7393Z" id="Shape" fill="#FFFFFF" stroke="none" />
      <path d="M40.1199 13.3435L40.1199 0.694974L43.7464 0.694974C45.0621 0.694974 46.0601 0.974411 46.7405 1.53329C47.4208 2.09216 47.761 2.91599 47.761 4.00479C47.761 4.65922 47.5881 5.22823 47.2423 5.71182C46.8965 6.1954 46.4228 6.54144 45.8212 6.74993C46.5352 6.91209 47.1102 7.27406 47.5459 7.83583C47.9817 8.3976 48.1995 9.04624 48.1995 9.78176C48.1995 10.8995 47.8495 11.7726 47.1495 12.4009C46.4495 13.0293 45.4754 13.3435 44.2272 13.3435L40.1199 13.3435ZM41.1573 7.26248L41.1573 12.44L44.2693 12.44C45.1577 12.44 45.8619 12.2069 46.382 11.7407C46.9021 11.2745 47.1622 10.6273 47.1622 9.79913C47.1622 9.01729 46.9134 8.39905 46.4158 7.94442C45.9182 7.48979 45.2308 7.26248 44.3537 7.26248L41.1573 7.26248ZM41.1573 6.3677L43.991 6.3677C44.8569 6.35032 45.5274 6.14038 46.0025 5.73788C46.4776 5.33537 46.7152 4.74899 46.7152 3.97873C46.7152 3.16792 46.4692 2.56996 45.9772 2.18482C45.4852 1.79969 44.7416 1.60713 43.7464 1.60713L41.1573 1.60713L41.1573 6.3677Z" id="Shape" fill="#FFFFFF" stroke="none" />
      <path d="M56.2286 13.3435C56.1274 13.0481 56.0627 12.6109 56.0346 12.0317C55.6804 12.5066 55.2292 12.8729 54.681 13.1307C54.1328 13.3884 53.5522 13.5172 52.9394 13.5172C52.0622 13.5172 51.3524 13.2653 50.8098 12.7615C50.2672 12.2576 49.9959 11.6205 49.9959 10.8503C49.9959 9.93523 50.3656 9.2113 51.105 8.67849C51.8444 8.14567 52.8747 7.87927 54.196 7.87927L56.0262 7.87927L56.0262 6.81074C56.0262 6.13894 55.8251 5.61047 55.4231 5.22533C55.0211 4.8402 54.435 4.64764 53.6647 4.64764C52.9619 4.64764 52.3799 4.83296 51.9189 5.20362C51.4578 5.57427 51.2273 6.02021 51.2273 6.54144L50.2152 6.53275C50.2152 5.78566 50.5526 5.13846 51.2273 4.59117C51.902 4.04388 52.7313 3.77023 53.7153 3.77023C54.733 3.77023 55.5356 4.0323 56.1231 4.55642C56.7107 5.08055 57.0129 5.81172 57.0298 6.74993L57.0298 11.1978C57.0298 12.107 57.1226 12.7875 57.3081 13.2393L57.3081 13.3435L56.2286 13.3435ZM53.0574 12.5964C53.7321 12.5964 54.3352 12.4284 54.8665 12.0925C55.3978 11.7566 55.7844 11.3078 56.0262 10.746L56.0262 8.67849L54.2213 8.67849C53.2149 8.69007 52.4277 8.87974 51.8598 9.2475C51.292 9.61525 51.008 10.1206 51.008 10.7634C51.008 11.2904 51.1978 11.7277 51.5773 12.0752C51.9568 12.4227 52.4502 12.5964 53.0574 12.5964Z" id="Shape" fill="#FFFFFF" stroke="none" />
      <path d="M60.6816 3.94398L60.7154 5.5511C61.0584 4.97196 61.4857 4.53036 61.9973 4.22631C62.509 3.92226 63.0741 3.77023 63.6925 3.77023C64.6709 3.77023 65.399 4.05401 65.8769 4.62158C66.3548 5.18914 66.5966 6.04048 66.6022 7.17561L66.6022 13.3435L65.5986 13.3435L65.5986 7.16692C65.593 6.32716 65.4201 5.70168 65.0799 5.29049C64.7397 4.8793 64.1958 4.6737 63.448 4.6737C62.8238 4.6737 62.2714 4.87495 61.7907 5.27746C61.31 5.67996 60.9543 6.22291 60.7238 6.9063L60.7238 13.3435L59.7202 13.3435L59.7202 3.94398L60.6816 3.94398Z" id="Path" fill="#FFFFFF" stroke="none" />
      <path d="M71.3758 8.60899L70.2203 9.7557L70.2203 13.3435L69.2083 13.3435L69.2083 0L70.2203 0L70.2203 8.53949L71.1734 7.47966L74.665 3.94398L75.9385 3.94398L72.0674 7.90533L76.2759 13.3435L75.0698 13.3435L71.3758 8.60899Z" id="Path" fill="#FFFFFF" stroke="none" />
    </g>
  </g>
</svg>