<svg width="67" height="48" viewBox="0 0 67 48" xmlns="http://www.w3.org/2000/svg">
    <g fill-rule="nonzero" fill="none">
        <path d="M36.317 0v24.889h1.992V1.895h5.388c-.982 3.071-1.992 5.741-3.03 7.98 2.384 2.813 3.591 5.11 3.62 6.861-.029.919-.225 1.55-.562 1.895-.309.344-1.066.517-2.245.574-.505 0-1.122-.057-1.824-.115l.618 1.98c2.413 0 4.012-.344 4.798-1.004.757-.603 1.15-1.722 1.15-3.33-.028-1.78-1.178-4.076-3.451-6.86a93.403 93.403 0 0 0 3.086-8.326V0h-9.54zM33.82 12.976H23.045V24.86h1.936v-1.722h6.875v1.607h1.964v-11.77zm-8.839 8.238v-6.286h6.875v6.286H24.98zM26.047 2.01c-.336 1.981-.841 3.589-1.459 4.823-.73 1.292-1.824 2.469-3.255 3.56l1.179 1.521c1.683-1.263 2.946-2.67 3.788-4.248.673-1.407 1.235-3.302 1.627-5.656h4.406c-.056 3.273-.197 5.311-.365 6.086-.196.775-.673 1.177-1.403 1.235-.617-.029-1.375-.086-2.329-.144l.505 1.837c.87.058 1.628.115 2.273.115 1.178 0 1.992-.516 2.497-1.55.505-1.062.758-4.249.758-9.53H22.063v1.951h3.984z" fill="#017EFB"/>
        <path d="M6.155 45.067c0-.476-.166-.842-.497-1.1-.332-.257-.93-.517-1.795-.78-.865-.262-1.553-.554-2.064-.876-.978-.619-1.467-1.426-1.467-2.42 0-.872.352-1.59 1.058-2.154.705-.565 1.62-.847 2.745-.847.747 0 1.413.139 1.998.416a3.286 3.286 0 0 1 1.378 1.184c.335.513.502 1.081.502 1.705H6.155c0-.565-.176-1.006-.527-1.326-.351-.32-.854-.479-1.507-.479-.61 0-1.083.131-1.42.394-.336.262-.504.629-.504 1.099 0 .396.181.726.545.991.364.265.963.523 1.799.773.835.25 1.506.534 2.012.854.506.32.877.685 1.113 1.099.236.413.354.897.354 1.452 0 .9-.343 1.617-1.028 2.15-.686.532-1.616.798-2.79.798a5.21 5.21 0 0 1-2.142-.434c-.65-.29-1.157-.69-1.518-1.2S0 45.262 0 44.584h1.865c0 .614.201 1.089.604 1.426.403.336.98.505 1.733.505.648 0 1.136-.133 1.463-.398.327-.264.49-.615.49-1.05zm5.094-4.375c.585-.683 1.324-1.024 2.218-1.024 1.7 0 2.563.977 2.588 2.933v5.25h-1.791v-5.183c0-.555-.12-.947-.358-1.177-.238-.23-.588-.346-1.05-.346-.718 0-1.253.322-1.607.966v5.74H9.457V36.444h1.792v4.248zm11.381 7.16c-.079-.154-.147-.404-.206-.75-.57.598-1.268.898-2.094.898-.8 0-1.454-.23-1.96-.69a2.217 2.217 0 0 1-.76-1.709c0-.856.316-1.514.947-1.971.632-.458 1.535-.687 2.71-.687h1.098v-.528c0-.416-.116-.749-.347-.999-.23-.25-.582-.375-1.054-.375-.408 0-.742.103-1.002.309a.956.956 0 0 0-.391.783H17.78c0-.44.145-.853.435-1.236.29-.384.684-.685 1.183-.903a4.129 4.129 0 0 1 1.67-.326c.933 0 1.678.236 2.233.709.555.473.84 1.137.855 1.994v3.624c0 .723.1 1.3.302 1.73v.126H22.63zm-1.968-1.3c.354 0 .687-.087.999-.26a1.73 1.73 0 0 0 .704-.698v-1.515h-.966c-.663 0-1.162.116-1.496.349-.334.233-.502.562-.502.988 0 .346.115.622.343.828.229.205.535.308.918.308zm5.035-2.793c0-.787.154-1.496.464-2.127.31-.631.744-1.117 1.305-1.456.56-.339 1.204-.508 1.931-.508 1.076 0 1.95.349 2.62 1.047.671.698 1.034 1.624 1.088 2.777l.007.423c0 .793-.15 1.5-.453 2.124a3.367 3.367 0 0 1-1.298 1.449c-.562.341-1.212.512-1.95.512-1.125 0-2.025-.378-2.7-1.133-.677-.755-1.014-1.76-1.014-3.018v-.09zm1.79.156c0 .827.17 1.475.51 1.942.339.468.81.702 1.415.702.604 0 1.075-.237 1.411-.713.337-.475.505-1.17.505-2.087 0-.811-.173-1.455-.52-1.93-.346-.476-.816-.713-1.411-.713-.585 0-1.05.234-1.393.701-.344.468-.516 1.168-.516 2.098zm7.579 3.936V37.04h3.17c1.15 0 2.022.238 2.616.716.595.478.892 1.182.892 2.113 0 .56-.151 1.046-.453 1.46-.302.413-.717.709-1.242.887a2.575 2.575 0 0 1 1.507.928c.381.48.571 1.035.571 1.664 0 .955-.306 1.702-.917 2.239-.612.537-1.464.805-2.555.805h-3.59zm.906-5.198v4.426h2.72c.777 0 1.392-.2 1.847-.598.454-.398.682-.952.682-1.66 0-.668-.218-1.196-.653-1.585-.435-.389-1.035-.583-1.802-.583h-2.794zm0-.765h2.477c.757-.015 1.343-.194 1.758-.538.415-.344.623-.846.623-1.504 0-.693-.215-1.205-.645-1.534-.43-.329-1.08-.494-1.95-.494h-2.263v4.07zm13.173 5.963c-.089-.252-.145-.626-.17-1.12a3.08 3.08 0 0 1-1.183.939 3.6 3.6 0 0 1-1.522.33c-.767 0-1.387-.215-1.861-.646-.474-.43-.712-.975-.712-1.634 0-.782.324-1.401.97-1.857.646-.455 1.547-.683 2.701-.683h1.6v-.913c0-.575-.176-1.026-.527-1.356-.351-.329-.864-.493-1.537-.493-.614 0-1.123.158-1.526.475-.403.317-.604.698-.604 1.144l-.885-.008c0-.639.295-1.192.885-1.66.59-.468 1.314-.701 2.174-.701.89 0 1.591.224 2.105.672.513.448.777 1.073.792 1.875v3.802c0 .777.081 1.36.243 1.745v.09h-.943zm-2.772-.638c.59 0 1.117-.144 1.581-.43.465-.288.803-.672 1.014-1.152v-1.768h-1.577c-.88.01-1.568.173-2.064.487-.497.314-.745.746-.745 1.296 0 .45.166.824.498 1.121.331.297.763.446 1.293.446zm6.664-7.397.03 1.374c.3-.495.673-.873 1.12-1.133.447-.26.941-.39 1.482-.39.855 0 1.491.243 1.909.728.417.486.629 1.213.634 2.184v5.272h-.877v-5.28c-.005-.718-.157-1.252-.454-1.604-.297-.351-.773-.527-1.426-.527-.546 0-1.028.172-1.449.516-.42.344-.73.808-.932 1.392v5.503h-.877v-8.035h.84zm9.347 3.988-1.01.98v3.067h-.885V36.444h.885v7.3l.833-.905 3.052-3.023h1.113l-3.384 3.387 3.679 4.648h-1.054l-3.23-4.047z" fill="#1A1C1F"/>
    </g>
</svg>
