<svg width="29" height="36" viewBox="0 0 29 36" xmlns="http://www.w3.org/2000/svg">
    <path d="M11.52 0c-.749 0-1.347.15-1.796.45-.449.15-.898.45-1.346.9l-6.882 6.6c-.449.3-.748.75-1.047 1.35-.3.6-.449 1.35-.449 1.95v20.1C0 33.9 2.094 36 4.638 36h18.85c2.543 0 4.637-2.1 4.637-4.65V4.65c0-2.55-2.094-4.65-4.638-4.65H11.52zm-.3 28.8c-2.992-.6-5.386-3.15-5.984-6.15-.898-4.8 2.394-9 6.882-9.6.448 0 .897.3.897.9v6.3c0 .45.45.9.898.9h6.283c.449 0 .898.45.898.9-.748 4.5-5.087 7.8-9.874 6.75zM23.04 18h-6.284c-.448 0-.897-.45-.897-.9v-6.15c0-.45.449-.9.897-.9a7.95 7.95 0 0 1 6.882 6.9c.3.6 0 1.05-.598 1.05z" fill="#017EFB" fill-rule="nonzero"/>
</svg>
