<?xml version="1.0" encoding="utf-8"?><svg xmlns="http://www.w3.org/2000/svg" xmlns:xlink="http://www.w3.org/1999/xlink"><symbol viewBox="0 0 13 7" id="arrow" xmlns="http://www.w3.org/2000/svg"><path d="M5.768 6.757L.498 1.293a.481.481 0 0 1 0-.666L.962.146.974.134a.48.48 0 0 1 .678.012L6.332 5l4.68-4.854c.004-.004.01-.008.012-.012a.477.477 0 0 1 .677.012l.464.48a.48.48 0 0 1 0 .667l-5.27 5.464a.778.778 0 0 1-1.127 0z"/></symbol><symbol viewBox="0 0 14 8" id="arrow-long" xmlns="http://www.w3.org/2000/svg"><title>8F2D7E2B-F301-4E14-AC8C-D8419715A49D</title><path d="M9.72.11l-.221.22a.375.375 0 0 0 0 .531L12.12 3.47H.375A.375.375 0 0 0 0 3.844v.312c0 .207.168.375.375.375h11.746L9.5 7.14a.375.375 0 0 0 0 .53l.22.221a.375.375 0 0 0 .531 0l3.64-3.625a.375.375 0 0 0 0-.53L10.25.11a.375.375 0 0 0-.53 0z"/></symbol><symbol viewBox="0 0 512 512" id="b1" xmlns="http://www.w3.org/2000/svg"><path d="M256 120c-5.52 0-10 4.48-10 10s4.48 10 10 10 10-4.48 10-10-4.48-10-10-10z"/><path d="M4.929 238.619a9.995 9.995 0 0 0 10.63-.308c32.352-21.64 81.023-21.948 113.858-.906a9.951 9.951 0 0 0 6.692 2.584c.036 0 .072-.005.108-.005a9.965 9.965 0 0 0 5.752-1.673c31.487-21.063 71.764-21.98 104.03-2.783V462c0 27.624 22.377 50 50 50 27.57 0 50-22.43 50-50v-40c0-5.522-4.478-10-10-10s-10 4.478-10 10v40c0 16.542-13.458 30-30 30-16.571 0-30-13.429-30-30V235.528c32.265-19.198 72.543-18.279 104.029 2.784a9.988 9.988 0 0 0 5.561 1.688c.068 0 .135-.013.203-.015.033 0 .064.005.097.005a9.952 9.952 0 0 0 6.69-2.583c32.835-21.042 81.507-20.734 113.861.904a9.999 9.999 0 0 0 15.526-9.133C501.413 101.224 387.572 0 256 0 124.499 0 10.594 101.146.034 229.178a10.001 10.001 0 0 0 4.895 9.441zM266 212.903V170c0-5.522-4.478-10-10-10s-10 4.478-10 10v42.902a117.025 117.025 0 0 0-99.138-.219C153.32 111.541 195.338 30.488 246 20.952V90c0 5.522 4.478 10 10 10s10-4.478 10-10V20.952c50.662 9.536 92.68 90.59 99.137 191.731-31.478-14.619-67.704-14.54-99.137.22zm223.619-.896c-15.418-6.596-32.821-10.136-50.622-10.162h-.195c-18.941 0-37.439 3.992-53.585 11.404C381.51 150.45 362.32 72.314 318.085 28.46c86.734 23.945 156.272 96.169 171.534 183.547zM193.915 28.459c-44.244 43.863-63.424 121.981-67.133 184.789-32.288-14.821-71.886-15.152-104.402-1.241 15.263-87.378 84.802-159.602 171.535-183.548z"/><path d="M111 431.29c-4.273 0-8.885-2.687-12.986-7.564-3.554-4.229-9.863-4.774-14.089-1.22-4.228 3.554-4.773 9.862-1.219 14.089 5.346 6.36 11.632 10.791 18.294 13.025v11.67c0 5.522 4.477 10 10 10s10-4.478 10-10v-11.72c11.639-4.128 20-15.243 20-28.28 0-16.542-13.458-30-30-30-5.514 0-10-4.486-10-10s4.486-10 10-10c3.542 0 7.283 1.808 10.816 5.227 3.969 3.841 10.301 3.736 14.14-.232 3.84-3.97 3.736-10.3-.233-14.141-5.075-4.911-10.153-7.688-14.724-9.205V341.29c0-5.522-4.477-10-10-10s-10 4.478-10 10v11.72c-11.639 4.128-20 15.243-20 28.28 0 16.542 13.458 30 30 30 5.514 0 10 4.486 10 10s-4.485 10-9.999 10z"/><path d="M110 512c60.654 0 110-49.346 110-110s-49.346-110-110-110S0 341.346 0 402s49.346 110 110 110zm0-200c49.626 0 90 40.374 90 90s-40.374 90-90 90-90-40.374-90-90 40.374-90 90-90z"/></symbol><symbol clip-rule="evenodd" fill-rule="evenodd" image-rendering="optimizeQuality" shape-rendering="geometricPrecision" text-rendering="geometricPrecision" viewBox="0 0 1707 1707" id="b2" xmlns="http://www.w3.org/2000/svg"><path d="M1288 1102H282c-13 0-23-10-23-23s10-23 23-23h114V785c0-13 10-23 23-23h112c13 0 23 10 23 23v271h94V702c0-13 10-23 23-23h112c13 0 23 10 23 23v354h94V595c0-13 11-23 23-23h113c12 0 22 10 22 23v461h95V457c0-12 10-23 22-23h113c13 0 23 11 23 23v599h114c12 0 23 10 23 23s-11 23-23 23zm313 92h-542c-30 35-46 79-46 126 0 36 10 72 29 103h248c13 0 23 10 23 22v136c0 12-10 23-23 23H416c-12 0-22-11-22-23v-136c0-12 10-22 22-22h249c19-31 29-67 29-103 0-47-16-91-46-126H106c-58 0-106-48-106-106V209c0-58 48-106 106-106h1495c58 0 106 48 106 106v879c0 58-48 106-106 106zm-598 0H704c23 37 35 80 35 126 0 36-7 71-23 103h274c-15-32-23-67-23-103 0-46 13-89 36-126zM106 148c-33 0-61 28-61 61v879c0 33 28 60 61 60h1495c33 0 60-27 60-60V209c0-33-27-61-60-61zm333 1410h828v-90H439zm2-502h68V808h-68zm253 0h67V724h-67zm252 0h67V617h-67zm252 0h67V480h-67zM657 620c-117 0-212-95-212-212s95-213 212-213 213 96 213 213-96 212-213 212zm-22-378c-74 10-133 69-143 143h24c12 0 22 10 22 23 0 12-10 22-22 22h-24c10 74 69 133 143 143v-24c0-12 10-22 22-22 13 0 23 10 23 22v24c74-10 133-69 143-143h-24c-12 0-23-10-23-22 0-13 11-23 23-23h24c-10-74-69-133-143-143v24c0 12-10 23-23 23-12 0-22-11-22-23zm23 188h-38c-13 0-23-10-23-22 0-13 10-23 23-23h16v-42c0-13 10-23 22-23 13 0 23 10 23 23v65c0 12-10 22-23 22z"/></symbol><symbol viewBox="0 0 64 64" id="b3" xmlns="http://www.w3.org/2000/svg"><path d="M49.707 49.293a1 1 0 0 0-1.414 1.414l2 2a1 1 0 0 0 1.414 0l4-4a1 1 0 0 0-1.414-1.414L51 50.586z"/><path d="M62.515 43.143l-10-6a1.003 1.003 0 0 0-1.03 0l-10 6A.999.999 0 0 0 41 44v4.845A15.922 15.922 0 0 0 51.058 63.7l.57.229a1.001 1.001 0 0 0 .743 0l.57-.228A15.926 15.926 0 0 0 63 48.845V44a.999.999 0 0 0-.485-.857zM61 48.845a13.934 13.934 0 0 1-8.8 12.999l-.2.079-.2-.08A13.932 13.932 0 0 1 43 48.845v-4.279l9-5.4 9 5.4zM29 24a1 1 0 0 0-2 0 3.003 3.003 0 0 0 3 3v1a1 1 0 0 0 2 0v-1a3.003 3.003 0 0 0 3-3v-.559a2.996 2.996 0 0 0-2.052-2.845L32 20.28V17a1 1 0 0 1 1 1 1 1 0 0 0 2 0 3.003 3.003 0 0 0-3-3v-1a1 1 0 0 0-2 0v1a3.003 3.003 0 0 0-3 3v.559a2.996 2.996 0 0 0 2.052 2.845l.948.316V25a1 1 0 0 1-1-1zm.684-4.492a1 1 0 0 1-.684-.95V18a1 1 0 0 1 1-1v2.613zM32 22.387l.316.105a1 1 0 0 1 .684.95V24a1 1 0 0 1-1 1z"/><path d="M44.54 62H11V17h6a1 1 0 0 0 1-1v-6h33v24a1 1 0 0 0 2 0V9a1 1 0 0 0-1-1H17a1.072 1.072 0 0 0-.703.29l-.005.004-6.998 6.998-.004.004A1.081 1.081 0 0 0 9 16v47a1 1 0 0 0 1 1h34.54a1 1 0 0 0 0-2zM16 11.414V15h-3.586z"/><path d="M6 54H3V2h40v3a1 1 0 0 0 2 0V1a1 1 0 0 0-1-1H2a1 1 0 0 0-1 1v54a1 1 0 0 0 1 1h4a1 1 0 0 0 0-2z"/><path d="M48 33a1 1 0 0 0-1-1H15a1 1 0 0 0 0 2h32a1 1 0 0 0 1-1zm-5 5a1 1 0 0 0-1-1H21a1 1 0 0 0 0 2h21a1 1 0 0 0 1-1zm-22 6h10a1 1 0 0 0 0-2H21a1 1 0 0 0 0 2zm17 3H21a1 1 0 0 0 0 2h17a1 1 0 0 0 0-2zm-17 7h10a1 1 0 0 0 0-2H21a1 1 0 0 0 0 2zm0 5h17a1 1 0 0 0 0-2H21a1 1 0 0 0 0 2zm-4-22h-2a1 1 0 0 0 0 2h2a1 1 0 0 0 0-2zm0 5h-2a1 1 0 0 0 0 2h2a1 1 0 0 0 0-2zm0 5h-2a1 1 0 0 0 0 2h2a1 1 0 0 0 0-2zm0 5h-2a1 1 0 0 0 0 2h2a1 1 0 0 0 0-2zm0 5h-2a1 1 0 0 0 0 2h2a1 1 0 0 0 0-2zm25-35a1 1 0 0 0 0-2h-3a1 1 0 0 0 0 2zm-19 0a1 1 0 0 0 0-2h-3a1 1 0 0 0 0 2z"/></symbol><symbol viewBox="0 0 788 788" id="bch" xmlns="http://www.w3.org/2000/svg"><title>12-bitcoin-cash-square-crop</title><circle class="afcls-1" cx="394" cy="394" r="394"/><path class="afcls-2" d="M551.124 407.914l-.187-.346-.031-.058c-.113-.348-.2-.713-.326-1.089l-.016-.03-.016-.029-.016-.029-.016-.029-.016-.029-.016-.029-.032-.058a68.435 68.435 0 0 0-22.372-33.478l-.015-.029c-.315-.24-.646-.51-.962-.747l-.435-.324-.315-.239-.135-.114-.3-.211-.135-.113-.3-.211-.135-.113-.315-.239-.165-.1-.315-.239-.165-.1-.34-.224-.165-.1-.2-.3-.18-.127-.34-.224-.179-.127-.341-.225-.179-.126-.34-.225-.18-.127-.36-.255-.179-.127-.388-.238-.18-.126-.387-.239-.18-.126-.388-.239-.179-.126-.388-.239-.209-.11-.388-.238-.208-.111-.418-.222-.208-.11-.433-.251-.208-.11-.433-.25-.209-.111-.433-.25-.224-.139-.433-.251-.225-.139-.461-.236-.224-.139-.462-.236-.312-.17-.016-.029c-.224-.139-.461-.236-.686-.376a95.508 95.508 0 0 0-30.588-9.665 85.552 85.552 0 0 0 8.195-10.293l.393-.584.029-.016.182-.284.238-.388.127-.18.238-.387.126-.18.239-.388.126-.179.239-.388.126-.18.238-.388.126-.179.209-.374.127-.179.208-.374.1-.165.208-.373.1-.165.208-.373.1-.165.18-.358.1-.165.179-.357.1-.165.179-.357.1-.165.195-.329.1-.165.2-.328.1-.165.171-.312.1-.165.17-.313.069-.148.171-.313.068-.149.171-.312.068-.149.171-.312.069-.149.137-.3.069-.149.138-.3.069-.149.138-.3.069-.148.151-.341.207-.445c.151-.341.273-.668.425-1.01l.029-.016a60.785 60.785 0 0 0 3.088-35.684l-.016-.029-.032-.058-.016-.029-.015-.029-.016-.029-.016-.029-.017-.029-.015-.028a11.288 11.288 0 0 0-.235-.992v-.073l-.016-.029-.016-.029-.016-.028.016.028-.14-.259c-.1-.466-.2-.936-.35-1.411-.1-.466-.248-.946-.379-1.4l-.171-.317-.031-.058c-.1-.319-.195-.64-.293-.959l-.017-.029-.016-.029-.016-.029-.015-.029-.016-.028-.017-.029-.015-.029a60.8 60.8 0 0 0-19.9-29.784l-.017-.03c-.27-.227-.57-.438-.841-.663l-.374-.283-.3-.22-.135-.113-.256-.2-.135-.114-.255-.2-.135-.113-.284-.182-.136-.113-.3-.211-.135-.113-.3-.211-.136-.113-.3-.211-.165-.1-.3-.211-.165-.1-.3-.211-.165-.1-.328-.195-.165-.1-.328-.195-.165-.1-.329-.195-.165-.1-.328-.2-.165-.1-.34-.225-.165-.1-.345-.224-.165-.1-.373-.209-.165-.1-.373-.209-.18-.127-.373-.208-.179-.127-.373-.208-.18-.127-.387-.238-.209-.111-.388-.238-.208-.11-.418-.223-.208-.11-.418-.222-.3-.138-.016-.029-.626-.332c-18.294-9.508-41.536-12.371-64.92-6.372l-6.083 1.562-15.415-59.862-35.652 9.14 15.3 59.681-28.521 7.316-15.348-59.486L280.027 210l15.335 59.676-73.529 18.924 9.783 38.025 29.627-7.609a18.335 18.335 0 0 1 22.332 13.178l.008.034 41.128 160.01a12.249 12.249 0 0 1-8.8 14.9l-25.96 6.678 1.525 45.223 73.435-18.874 15.537 59.568 35.636-9.169-15.35-59.706 28.521-7.316 15.35 59.7 35.636-9.169-15.4-59.938a6704.9 6704.9 0 0 1 14.827-3.85c26.353-6.779 47.663-22.232 60.558-41.494l.436-.643.029-.016.211-.3.28-.448.139-.225.28-.448.14-.225.25-.433.139-.224.25-.433.111-.209.25-.433.111-.208.25-.433.11-.209.222-.417.111-.209.222-.417.11-.209.239-.388.11-.208.238-.388.111-.208.208-.374.111-.208.208-.373.111-.208.208-.373.085-.193.209-.373.085-.193.179-.357.1-.165.18-.357.1-.165.179-.358.1-.165.179-.357.1-.165.18-.357.1-.165.18-.358.1-.165.151-.34.1-.165.151-.34.069-.149.165-.386.221-.491c.165-.386.344-.744.479-1.114l.014-.045a68.5 68.5 0 0 0 3.482-40.138l-.016-.029-.016-.029-.016-.029-.016-.029-.016-.029-.016-.029-.016-.029-.016-.029-.255-1.092v-.073l-.015-.029-.016-.029-.017-.029-.016-.029-.015-.029-.016-.029-.016-.029-.016-.029-.016-.028-.016-.029-.016-.029-.015-.029-.016-.029-.063-.115c-.132-.523-.237-1.062-.4-1.572-.025-.318-.101-.874-.133-1.489zM341.641 300.876c6.083-1.561 31.233-7.878 39.526-10.037 13.185-3.375 26.172-2.065 36.323 2.82l.341.151.148.069.209.11.1.056.208.11.1.056.208.11.1.056.209.11.1.055.209.111.1.055.209.111.1.055.208.111.1.055.208.111.1.055.208.111.1.055.18.127.1.055.179.127.1.055.179.127.1.055.165.1.1.055.165.1.1.055.165.1.1.055.165.1.1.055.165.1.076.072.165.1.06.041.165.1.059.042.165.1.06.041.165.1.059.042.136.113.059.042.165.1.225.14c.165.1.315.241.48.34a30.749 30.749 0 0 1 10.9 15.612l.046.085c.048.16.113.348.161.51l.016.03.094.17c.066.262.146.48.214.741a4.436 4.436 0 0 1 .142.817l.093.17.016.029a2.557 2.557 0 0 0 .133.523l.046.085a30.857 30.857 0 0 1-2.029 18.931l-.234.535-.124.255-.1.165-.027.089-.069.149-.027.089-.1.165-.027.086-.1.165-.027.089-.1.165-.027.085-.1.165-.027.089-.1.165-.028.09-.1.165-.056.1-.1.165-.056.1-.1.165-.055.1-.1.165-.055.1-.127.179-.055.1-.127.18-.055.1-.127.179-.055.1-.127.179-.055.1-.127.18-.055.1-.127.18-.055.1-.127.179-.055.1-.127.179-.055.1-.156.195-.055.1-.156.195-.055.1-.156.195-.055.1-.156.195-.113.135-.211.3c-6.557 9.188-17.3 16.609-30.485 19.983-8.309 2.127-33.393 8.706-39.471 10.268zM481 423.55l.094.17.016.029c.035.2.085.364.12.568l.016.03.016.029.017.029.016.029a31.694 31.694 0 0 1-2.867 20.675l-.319.581-.153.269-.111.208-.055.1-.1.165-.055.1-.1.165-.055.1-.127.179-.055.1-.127.179-.055.1-.127.18-.055.1-.127.179-.055.1-.127.179-.055.1-.127.18-.055.1-.127.18-.055.1-.127.179-.055.1-.127.179-.055.1-.156.195-.055.1-.156.195-.055.1-.14.225-.055.1-.141.224-.055.1-.139.225-.086.12-.139.224-.085.12-.17.239-.085.12-.17.239-.086.12-.17.239-.085.12-.17.239-.085.12-.17.239-.142.152-.269.33c-7.964 10.169-20.807 18.533-36.409 22.537-9.836 2.54-39.562 10.314-46.794 12.16l-20.237-78.739c7.217-1.872 37.025-9.357 46.861-11.9 15.6-4 30.914-2.869 42.754 2.186l.386.165.193.085.283.108.132.039.256.124.132.039.256.125.132.039.255.124.1.055.255.124.1.056.255.124.1.055.255.124.1.056.209.11.1.056.209.11.1.056.208.11.1.055.208.111.1.055.208.111.1.055.209.111.1.055.209.111.1.055.208.111.1.055.208.11.1.056.179.126.1.056.18.127.1.055.18.127.1.055.179.127.1.055.18.127.1.055.165.1.1.055.18.127.239.17c.179.127.388.238.569.364a31.789 31.789 0 0 1 12.547 16.799l.062.115c.064.188.113.349.177.537l.016.028.093.171c.067.262.133.523.216.815.147.063.17.385.125.782z"/></symbol><symbol id="bch-logo" viewBox="0 0 55.2 70.3" xmlns="http://www.w3.org/2000/svg"><style>.agst0{fill:#363635}</style><title>Artboard 51</title><path class="agst0" d="M54.9 30.5c1.7-7.3-3.6-11.7-11.1-14.9L47 5.8l-5.9-2-3.1 9.6c-1.6-.5-3.2-1-4.7-1.6l3.2-9.5-6-2-3.2 9.8c-1.3-.4-2.6-.8-3.8-1.3l-8.2-2.7-2.1 6.3s4.4 1.4 4.3 1.4c2.4.8 2.7 2.5 2.6 3.7l-3.7 11.1c.2.1.4.1.6.2l-.7-.2L11 44.4c-.5 1.1-1.8 1.6-2.9 1.2.1.1-4.3-1.4-4.3-1.4L.2 50.9 8 53.4l4.3 1.4L9 64.7l6 2 3.2-9.8c1.6.5 3.2 1.1 4.7 1.6l-3.2 9.7 6 2 3.3-9.9c10.2 2.9 18 2.7 22-6.4 3.2-7.4.8-11.9-4.5-15.2 3.9-.5 7.1-2.9 8.4-8.2zM39.6 48.9c-2.4 7.4-14.8 2.3-18.9 1L25 36.7c4.1 1.4 17.1 4.5 14.6 12.2zm3.3-19.4c-2.2 6.7-12.5 2.4-15.9 1.3l4-11.9c3.4 1.1 14.3 3.6 11.9 10.6z"/></symbol><symbol viewBox="0 0 14 16" id="bell" xmlns="http://www.w3.org/2000/svg"><path d="M7 16a2 2 0 0 0 2-2H5a2 2 0 0 0 2 2zm6.73-4.678c-.603-.65-1.732-1.625-1.732-4.822 0-2.428-1.703-4.372-3.999-4.849V1a1 1 0 1 0-1.998 0v.651c-2.296.477-3.998 2.42-3.998 4.849 0 3.197-1.13 4.173-1.734 4.822A.976.976 0 0 0 0 12a1 1 0 0 0 1.003 1h11.994A1 1 0 0 0 14 12a.976.976 0 0 0-.27-.678z"/></symbol><symbol viewBox="0 0 2500.01 2500" id="bnb-logo" xmlns="http://www.w3.org/2000/svg"><defs><style>.aicls-1{fill:#f3ba2f}</style></defs><title>bi</title><g id="aiLayer_2" data-name="Layer 2"><g id="aiLayer_1-2" data-name="Layer 1"><path class="aicls-1" d="M764.48 1050.52L1250 565l485.75 485.73 282.5-282.5L1250 0 482 768l282.49 282.5M0 1250l282.51-282.55L565 1249.94l-282.51 282.51zm764.48 199.51L1250 1935l485.74-485.72 282.65 282.35-.14.15L1250 2500l-768-768-.4-.4 282.91-282.12M1935 1250.12l282.51-282.51L2500 1250.1l-282.5 282.51z"/><path class="aicls-1" d="M1536.52 1249.85h.12L1250 963.19 1038.13 1175l-24.34 24.35-50.2 50.21-.4.39.4.41L1250 1536.81l286.66-286.66.14-.16-.26-.14"/></g></g></symbol><symbol viewBox="0 0 258 258" id="btc" xmlns="http://www.w3.org/2000/svg"><path d="M118.667 133.206l23.426 6.277c10.933 2.929 15.486 11.96 12.437 22.303-2.023 7.548-7.22 13.409-14.165 14.338-2.621.413-6.075-.234-8.938-1l-22.385-5.999 9.625-35.92zm41.846-39.562c3.987 3.858 4.935 9.692 3.331 15.678-2.51 9.37-9.72 14.413-19.09 11.903l-21.345-5.72 8.44-31.495 18.74 5.022c4.165 1.116 7.67 2.613 9.924 4.612zm-31.816 99.998l-4.882 18.22-12.234-3.278 4.882-18.22-12.754-3.418-4.882 18.221-12.234-3.278 4.883-18.221-24.468-6.556 4.463-16.658 7.549 2.023c3.904 1.046 7.604-1.31 8.58-4.955l19.738-73.662c1.047-3.905-1.31-7.604-4.953-8.58-5.033-1.35-7.55-2.023-7.55-2.023s1.489-5.553 4.464-16.66l24.468 6.557 4.882-18.22 12.234 3.277L136 66.431l12.754 3.418 4.882-18.22 12.234 3.278-4.952 18.48c6.177 1.935 10.913 4.04 15.301 7.448 9.817 7.094 14.645 19.268 11.019 32.803-3.07 11.454-10.786 19.429-21.742 21.793 12.349 8.052 15.198 21.37 11.78 34.124-4.654 16.328-18.795 25.372-32.925 26.05-5.624.166-10.449-.569-15.655-1.963zM5.362 95.87c-18.274 68.196 22.312 138.494 90.51 156.768 68.195 18.273 138.494-22.314 156.767-90.51 18.273-68.197-22.314-138.494-90.51-156.768C93.932-12.912 23.635 27.675 5.362 95.871z" fill-rule="evenodd"/></symbol><symbol id="btc-logo" viewBox="0 0 49.14 68.03" xmlns="http://www.w3.org/2000/svg"><defs><style>.akcls-1{fill:#363635}</style></defs><path class="akcls-1" d="M45.49 21c-.7-7.42-7.1-9.93-15.19-10.66V.04h-6.25v10h-5V0h-6.27v10.3H.14L.1 17s4.63-.08 4.55 0c2.54 0 3.37 1.48 3.6 2.75v11.74a5.92 5.92 0 0 1 .67 0h-.69L8.18 48a2.21 2.21 0 0 1-2.36 2c.08.07-4.56 0-4.56 0L0 57.5h12.64v10.42h6.27v-10.3c1.72 0 3.38.06 5 .06v10.26h6.27v-10.4C40.72 57.06 48.1 54.42 49 44.53c.76-8-3-11.54-9-13 3.64-1.85 5.92-5.1 5.4-10.54zm-8.83 22.25c0 7.79-13.34 6.87-17.59 6.86v-13.8c4.25 0 17.58-1.17 17.56 6.94zm-2.87-19.47c0 7.08-11.13 6.22-14.67 6.22V17.48c3.57.01 14.69-1.09 14.67 6.3z"/></symbol><symbol viewBox="0 0 18 18" id="cancel" xmlns="http://www.w3.org/2000/svg"><path d="M14.245 0H3.755C1.685 0 0 1.692 0 3.772v10.456C0 16.308 1.684 18 3.755 18h10.49C16.315 18 18 16.308 18 14.228V3.772C18 1.692 16.316 0 14.245 0zm2.38 14.228a2.388 2.388 0 0 1-2.38 2.39H3.755a2.388 2.388 0 0 1-2.38-2.39V3.772a2.388 2.388 0 0 1 2.38-2.39h10.49a2.388 2.388 0 0 1 2.38 2.39v10.456z"/><path d="M12.234 5.588a.569.569 0 0 0-.805-.003L8.9 8.103 6.373 5.567a.569.569 0 0 0-.806 0 .572.572 0 0 0 0 .808l2.526 2.533-2.506 2.496a.572.572 0 0 0 .402.977c.145 0 .29-.055.401-.166L8.9 9.716l2.51 2.517a.567.567 0 0 0 .805 0 .572.572 0 0 0 0-.808L9.707 8.91l2.525-2.515a.572.572 0 0 0 .002-.808z"/></symbol><symbol viewBox="0 0 417.065 417.065" id="check" xmlns="http://www.w3.org/2000/svg"><path d="M401.56 47.087c-17.452-14.176-42.561-12.128-56.095 4.536L167.042 271.598 73.913 150.58c-13.892-18.037-39.781-21.411-57.819-7.535-18.054 13.884-21.427 39.781-7.535 57.843L133.56 363.321c13.892 18.037 39.789 21.419 57.835 7.535 5.145-3.959 8.95-8.958 11.648-14.42l205.645-253.514c13.527-16.688 10.332-41.675-7.128-55.835z"/></symbol><symbol viewBox="0 0 14 14" id="close" xmlns="http://www.w3.org/2000/svg"><path d="M14 .825L13.175 0 7 6.175.825 0 0 .825 6.175 7 0 13.175.825 14 7 7.825 13.175 14l.825-.825L7.825 7 14 .825z" fill-rule="evenodd"/></symbol><symbol viewBox="0 0 17 20" id="copy" xmlns="http://www.w3.org/2000/svg"><path d="M10.671 3.333c.852 0 1.547.716 1.551 1.597v13.473c0 .881-.695 1.597-1.55 1.597H1.55C.695 20 0 19.284 0 18.403V4.93c0-.881.695-1.597 1.55-1.597zm-.004 1.117h-9.12a.473.473 0 0 0-.466.48V18.4c0 .264.209.479.466.479h9.12a.473.473 0 0 0 .466-.48V4.93a.473.473 0 0 0-.466-.48zM14.56 0c.856 0 1.551.716 1.551 1.597V15.07c0 .881-.695 1.597-1.55 1.597a.548.548 0 0 1-.543-.559c0-.31.24-.558.542-.558a.473.473 0 0 0 .466-.48V1.597a.473.473 0 0 0-.466-.48H5.44a.473.473 0 0 0-.466.48c0 .31-.241.558-.543.558a.548.548 0 0 1-.542-.558C3.889.716 4.584 0 5.439 0z"/></symbol><symbol viewBox="0 0 11 13" id="copy-2" xmlns="http://www.w3.org/2000/svg"><path d="M0 .546v11.908c0 .302.25.546.557.546h9.15a.551.551 0 0 0 .556-.546V2.872H7.63a.438.438 0 0 1-.442-.434V0H.557A.551.551 0 0 0 0 .546zM5.673 11.14H1.734a.438.438 0 0 1-.442-.434c0-.24.198-.434.442-.434h3.939c.244 0 .442.195.442.434 0 .24-.198.434-.442.434zM8.55 9.16H1.734a.438.438 0 0 1-.442-.433c0-.24.198-.434.442-.434h6.817c.244 0 .442.194.442.434s-.198.433-.442.433zm0-1.978H1.734a.438.438 0 0 1-.442-.434c0-.24.198-.433.442-.433h6.817c.244 0 .442.194.442.433 0 .24-.198.434-.442.434zm0-2.846c.244 0 .442.194.442.434s-.198.433-.442.433H1.734a.438.438 0 0 1-.442-.433c0-.24.198-.434.442-.434h6.817z"/><path d="M8.21 2.053h1.37L8.21.684z"/></symbol><symbol viewBox="0 0 37 36" id="d1" xmlns="http://www.w3.org/2000/svg"><path d="M22.275 0v36h2.962V2.74h8.009c-1.46 4.443-2.962 8.305-4.505 11.544 3.545 4.069 5.339 7.39 5.38 9.924-.041 1.328-.333 2.242-.834 2.74-.458.498-1.585.748-3.337.83-.75 0-1.668-.082-2.711-.166l.918 2.866c3.587 0 5.965-.499 7.133-1.454 1.126-.872 1.71-2.491 1.71-4.816-.042-2.575-1.752-5.897-5.13-9.924a132.8 132.8 0 0 0 4.588-12.042V0H22.275zm-3.712 18.768H2.545v17.19h2.878v-2.49h10.22v2.324h2.92V18.768zM5.423 30.685v-9.093h10.22v9.093H5.423zM7.008 2.907c-.5 2.865-1.252 5.19-2.17 6.975-1.084 1.869-2.71 3.571-4.838 5.15l1.752 2.2c2.503-1.827 4.38-3.862 5.631-6.145 1.001-2.035 1.836-4.776 2.42-8.18h6.549c-.084 4.733-.292 7.681-.543 8.802-.292 1.121-1 1.703-2.085 1.786-.918-.042-2.044-.125-3.462-.208l.75 2.658c1.294.083 2.42.166 3.38.166 1.751 0 2.96-.748 3.712-2.242.75-1.537 1.126-6.146 1.126-13.786H1.085v2.824h5.923z"/></symbol><symbol viewBox="0 0 64 64" id="d2" xmlns="http://www.w3.org/2000/svg"><g data-name="outline final"><path d="M55 63H15a1 1 0 0 1-1-1v-6a1 1 0 0 1 2 0v5h38V9h-5a1 1 0 0 1 0-2h6a1 1 0 0 1 1 1v54a1 1 0 0 1-1 1z"/><path d="M49 57H9a1 1 0 0 1-1-1V13a1 1 0 0 1 .293-.707l11-11A1 1 0 0 1 20 1h29a1 1 0 0 1 1 1v54a1 1 0 0 1-1 1zm-39-2h38V3H20.414L10 13.414z"/><path d="M20 14H9a1 1 0 0 1 0-2h10V2a1 1 0 0 1 2 0v11a1 1 0 0 1-1 1zm11 4H15a1 1 0 0 1 0-2h16a1 1 0 0 1 0 2zm0 4H15a1 1 0 0 1 0-2h16a1 1 0 0 1 0 2zm8.285-1H38.25a3.226 3.226 0 0 1-3.057-2.091 1 1 0 1 1 1.883-.676A1.222 1.222 0 0 0 38.25 19h1.035A1.626 1.626 0 0 0 41 17.641a1.317 1.317 0 0 0-.3-.889 1.565 1.565 0 0 0-.845-.523l-2.171-.512A3.432 3.432 0 0 1 35 12.407a3.324 3.324 0 0 1 1.053-2.424A3.568 3.568 0 0 1 38.527 9h1.223a3.226 3.226 0 0 1 3.057 2.091 1 1 0 1 1-1.883.676A1.222 1.222 0 0 0 39.75 11h-1.223a1.579 1.579 0 0 0-1.1.432 1.342 1.342 0 0 0-.432.976 1.439 1.439 0 0 0 1.146 1.364l2.171.512a3.568 3.568 0 0 1 1.925 1.2 3.3 3.3 0 0 1 .763 2.23A3.609 3.609 0 0 1 39.285 21z"/><path d="M39 11a1 1 0 0 1-1-1V8a1 1 0 0 1 2 0v2a1 1 0 0 1-1 1zm0 12a1 1 0 0 1-1-1v-2a1 1 0 0 1 2 0v2a1 1 0 0 1-1 1zm2 28H17a3 3 0 0 1-3-3V28a3 3 0 0 1 3-3h24a3 3 0 0 1 3 3v20a3 3 0 0 1-3 3zM17 27a1 1 0 0 0-1 1v20a1 1 0 0 0 1 1h24a1 1 0 0 0 1-1V28a1 1 0 0 0-1-1z"/><path d="M43 33H15a1 1 0 0 1 0-2h28a1 1 0 0 1 0 2zm0 6H15a1 1 0 0 1 0-2h28a1 1 0 0 1 0 2zm0 6H15a1 1 0 0 1 0-2h28a1 1 0 0 1 0 2z"/><path d="M21 51a1 1 0 0 1-1-1V26a1 1 0 0 1 2 0v24a1 1 0 0 1-1 1zm16 0a1 1 0 0 1-1-1V26a1 1 0 0 1 2 0v24a1 1 0 0 1-1 1z"/></g></symbol><symbol viewBox="0 0 24 25" id="d3" xmlns="http://www.w3.org/2000/svg"><path clip-rule="evenodd" d="M6.028 4.032A10.75 10.75 0 0 1 12 2.22a.75.75 0 0 1 0 1.5 9.25 9.25 0 1 0 9.25 9.25.75.75 0 0 1 1.5 0A10.75 10.75 0 1 1 6.028 4.032z" fill-rule="evenodd"/><path d="M12.7 17.11v1.1a.67.67 0 0 1-1.34 0v-1.13a3.39 3.39 0 0 1-2.22-1.39.7.7 0 0 1-.15-.42.64.64 0 0 1 .67-.64.58.58 0 0 1 .45.21c.32.418.754.734 1.25.91v-2.54c-1.33-.52-2-1.3-2-2.31a2.27 2.27 0 0 1 2-2.17v-1.1a.67.67 0 0 1 1.34 0v1.09a2.8 2.8 0 0 1 1.86 1.16.68.68 0 0 1 .16.4.639.639 0 0 1-.899.602.622.622 0 0 1-.21-.162 2.12 2.12 0 0 0-.91-.66v2.25l.25.1c1.27.5 2.06 1.22 2.06 2.36a2.4 2.4 0 0 1-2.31 2.34zm-1.34-5.38V10.1a.82.82 0 0 0-.54.79.91.91 0 0 0 .54.84zm2.19 3.07c0-.48-.33-.77-.85-1v2a1 1 0 0 0 .85-1z"/><g clip-rule="evenodd" fill-rule="evenodd"><path d="M22.53 2.39a.75.75 0 0 1 0 1.06l-5.66 5.66a.75.75 0 0 1-1.06-1.06l5.66-5.66a.75.75 0 0 1 1.06 0z"/><path d="M16.34 3.3a.75.75 0 0 1 .75.75v3.78h3.78a.75.75 0 1 1 0 1.5h-4.53a.75.75 0 0 1-.75-.75V4.05a.75.75 0 0 1 .75-.75z"/></g></symbol><symbol viewBox="0 0 256 256" id="dash" xmlns="http://www.w3.org/2000/svg"><path d="M128 256c70.692 0 128-57.308 128-128C256 57.308 198.692 0 128 0 57.308 0 0 57.308 0 128c0 70.692 57.308 128 128 128zM71.519 103.269c.12-.432.217-.86.355-1.273 2.469-7.398 4.942-14.794 7.416-22.19.43-1.288.433-1.291 1.816-1.291l73.246-.001c13.361 0 26.722.011 40.083-.007 3.812-.006 7.342.988 10.646 2.822 1.776.985 3.177 2.383 4.25 4.121 1.79 2.898 2.648 6.058 3.033 9.427.388 3.411-.23 6.586-1.363 9.786-1.548 4.37-2.85 8.827-4.257 13.247-3.595 11.294-7.17 22.595-10.8 33.878-.76 2.36-2.012 4.515-3.188 6.695-2.382 4.414-5.868 7.847-9.642 11.047-2.749 2.331-5.876 4.063-8.97 5.866-2.835 1.652-5.938 2.332-9.125 2.719-1.566.19-3.158.222-4.738.223-37.19.011-74.382.01-111.573.007-.541 0-1.082-.035-1.775-.058.098-.475.134-.838.247-1.175a16777.6 16777.6 0 0 1 7.59-22.684c.345-1.031.359-1.031 1.576-1.031 14.98-.002 29.96-.001 44.94-.001h56.509c1.132-.007 1.138-.005 1.5-1.112 2.603-7.97 5.2-15.941 7.805-23.91 2.54-7.774 5.086-15.546 7.625-23.32.136-.415.235-.843.388-1.399-.54-.031-.97-.079-1.402-.079-7.06-.004-14.12-.003-21.179-.003-26.378 0-52.756 0-79.134-.005-.604 0-1.239.115-1.88-.3m-28.282 36.294c.15-.537.24-.96.386-1.363 2.311-6.417 4.63-12.831 6.947-19.246.21-.58.42-1.16.626-1.742.144-.404.415-.608.856-.587.274.013.549-.002.824-.002 19.402 0 38.804 0 58.207.003.47 0 .94.039 1.558.066-.126.505-.196.897-.32 1.271-2.265 6.8-4.536 13.596-6.808 20.393-.436 1.303-.442 1.305-1.803 1.305H47.46c-1.03 0-2.06.007-3.09-.004-.33-.004-.661-.053-1.133-.094" fill-rule="evenodd"/></symbol><symbol id="dash-logo" viewBox="0 0 72.2 42.52" xmlns="http://www.w3.org/2000/svg"><defs><style>.aucls-1{fill:#363635}</style></defs><path class="aucls-1" d="M72.1 6.74a7.76 7.76 0 0 0-1.1-3.5A5 5 0 0 0 68.36.83 7.93 7.93 0 0 0 64.59 0h-49l-3.47 10.52h44.36l-7 21.48H5.13L1.62 42.52h49.19a13.34 13.34 0 0 0 4.29-.83A28.68 28.68 0 0 0 59.39 39a20.45 20.45 0 0 0 3.51-3.5 22.8 22.8 0 0 0 2.16-4.05L71.56 11a7.57 7.57 0 0 0 .54-4.28z"/><path class="aucls-1" d="M29.61 16.39H3.51L0 26.1h26.37z"/></symbol><symbol viewBox="0 0 2000 2000" id="doge" xmlns="http://www.w3.org/2000/svg"><path d="M1024 659H881.12v281.69h224.79v117.94H881.12v281.67H1031c38.51 0 316.16 4.35 315.73-327.72S1077.44 659 1024 659z"/><path d="M1000 0C447.71 0 0 447.71 0 1000s447.71 1000 1000 1000 1000-447.71 1000-1000S1552.29 0 1000 0zm39.29 1540.1H677.14v-481.46H549.48V940.7h127.65V459.21h310.82c73.53 0 560.56-15.27 560.56 549.48 0 574.09-509.21 531.41-509.21 531.41z"/></symbol><symbol id="doge-logo" viewBox="0 0 44.51 48.19" xmlns="http://www.w3.org/2000/svg"><defs><style>.awcls-1{fill:#363635}</style></defs><path class="awcls-1" d="M21.82 48.16s22.69 1.9 22.69-23.68C44.51-.68 22.81 0 19.53 0H5.69v21.45H0v5.26h5.69v21.45zm-7-21.45h10v-5.26h-10V8.9h6.36c2.38 0 14.36 1 14.38 15.76s-12.35 14.6-14.07 14.6h-6.71z"/></symbol><symbol viewBox="0 0 226.777 226.777" id="eth" xmlns="http://www.w3.org/2000/svg"><path d="M113.313 0C50.732 0 0 50.732 0 113.313s50.732 113.313 113.313 113.313 113.313-50.732 113.313-113.313S175.894 0 113.313 0zm-1.469 188.386l-44.78-63.344 44.78 26.218v37.126zm0-46.41l-45.083-26.408 45.083-19.748v46.156zm0-49.329l-43.631 19.11 43.631-73.306v54.196zm2.906-54.218l44.244 73.6-44.244-19.382V38.429zm0 149.957V151.26l44.78-26.218-44.78 63.344zm0-46.409V95.821l45.116 19.762-45.116 26.394z"/></symbol><symbol id="eth-logo" viewBox="0 0 42.32 68.03" xmlns="http://www.w3.org/2000/svg"><defs><style>.aycls-1{fill:#363635}</style></defs><path class="aycls-1" d="M21.65 47.38l20.67-12.22-20.67-9.4v21.62zm0-22.69l20.49 9.32L21.65 0v24.69zM.67 39.85l20 28.18V51.67l-20-11.82zm40.99 0L21.65 51.67v16.36l20.01-28.18zm-20.99 7.53V25.76L0 35.16l20.67 12.22zm0-47.38L.18 34.01l20.49-9.32V0z"/></symbol><symbol viewBox="0 0 8 16" id="fb" xmlns="http://www.w3.org/2000/svg"><path d="M1.778 3.556v1.777H0V8h1.778v8h3.555V8h2.365L8 5.333H5.333V3.778c0-.72.071-1.102 1.183-1.102H8V0H5.618c-2.845 0-3.84 1.333-3.84 3.556z"/></symbol><symbol viewBox="0 0 64 64" id="i1" xmlns="http://www.w3.org/2000/svg"><path d="M57 4H7a3 3 0 0 0-3 3v30a3 3 0 0 0 3 3h12v5.648a10.979 10.979 0 0 0 4.9 9.152l7.547 5.031a1 1 0 0 0 1.11 0L40.1 54.8a10.979 10.979 0 0 0 4.9-9.152V40h12a3 3 0 0 0 3-3V7a3 3 0 0 0-3-3zM37 14.692a5.971 5.971 0 0 1 0 6.616zM35 28h-6V6h6zm-8-6.692a5.971 5.971 0 0 1 0-6.616zM6 31.816A2.966 2.966 0 0 0 7 32h12v2H7a1 1 0 0 1-1-1zM7 38a1 1 0 0 1-1-1v-1.184A2.966 2.966 0 0 0 7 36h12v2zm12-9v1H7a1 1 0 0 1-1-1V7a1 1 0 0 1 1-1h20v5.776a7.956 7.956 0 0 0 0 12.448V28h-7a1 1 0 0 0-1 1zm24 16.648a8.983 8.983 0 0 1-4.008 7.489L32 57.8l-6.992-4.661A8.983 8.983 0 0 1 21 45.648V30h22zM57 38H45v-2h12a2.966 2.966 0 0 0 1-.184V37a1 1 0 0 1-1 1zm0-4H45v-2h12a2.966 2.966 0 0 0 1-.184V33a1 1 0 0 1-1 1zm0-4H45v-1a1 1 0 0 0-1-1h-7v-3.776a7.956 7.956 0 0 0 0-12.448V6h20a1 1 0 0 1 1 1v22a1 1 0 0 1-1 1z"/><path d="M53 25h-3v2h4a1 1 0 0 0 1-1v-4h-2zm-42-3H9v4a1 1 0 0 0 1 1h4v-2h-3zM54 9h-4v2h3v3h2v-4a1 1 0 0 0-1-1zM9 10v4h2v-3h3V9h-4a1 1 0 0 0-1 1zm11 7h2v2h-2zm22 0h2v2h-2zM26.117 51.473l5.328 3.551a1 1 0 0 0 1.11 0l5.328-3.551A6.989 6.989 0 0 0 41 45.648V33a1 1 0 0 0-1-1H24a1 1 0 0 0-1 1v12.648a6.989 6.989 0 0 0 3.117 5.825zM25 34h14v11.648a4.991 4.991 0 0 1-2.227 4.161L32 52.991l-4.773-3.182A4.993 4.993 0 0 1 25 45.648z"/><path d="M31 45a1 1 0 0 0 .707-.293l5-5-1.414-1.414L31 42.586l-2.293-2.293-1.414 1.414 3 3A1 1 0 0 0 31 45z"/></symbol><symbol viewBox="0 0 480 480.00029" id="i2" xmlns="http://www.w3.org/2000/svg"><path d="M400 345.887l-20.375-12.207A40.09 40.09 0 0 0 359.07 328h-30.664a72.366 72.366 0 0 0-18.597 2.398L217.418 355.2a32.219 32.219 0 0 0-21.754 20.176l-81.266-43.965a31.84 31.84 0 0 0-21.75-3.594 30.02 30.02 0 0 0-8.09 2.657 31.452 31.452 0 0 0-13.742 12.8 32.056 32.056 0 0 0-4.23 15.918 31.702 31.702 0 0 0 15.812 27.672l145.649 87.145A39.995 39.995 0 0 0 249.105 480h112.72a39.882 39.882 0 0 0 14.702-2.8L400 467.93V480h80V320h-80zM370.648 462.32a24.068 24.068 0 0 1-8.8 1.68H249.105a24.07 24.07 0 0 1-12.746-3.664L90.512 373.09a15.915 15.915 0 0 1-7.953-13.89 16.25 16.25 0 0 1 2.144-8 15.728 15.728 0 0 1 6.871-6.345 15.076 15.076 0 0 1 4-1.296 16.839 16.839 0 0 1 3.067-.286c2.75-.007 5.453.711 7.84 2.079l88.12 47.617c.102.488.102.969.231 1.457 3.79 13.965 16.457 23.664 30.93 23.68a78.627 78.627 0 0 0 13.183-2.352l83.117-22.242-4.125-15.457-82.847 22.144c-3.649.84-8.356 1.801-9.328 1.883a16 16 0 0 1-15.465-11.785 14.621 14.621 0 0 1-.465-2.961s-.062-1.938 0-2.617a16.17 16.17 0 0 1 11.77-14.11l92.351-24.707A55.913 55.913 0 0 1 328.406 344h30.664a23.99 23.99 0 0 1 12.328 3.41L400 364.535v86.184zM416 336h48v128h-48zM329.953 64L287.04 21.09A71.5 71.5 0 0 0 236.13 0H135.55a40.273 40.273 0 0 0-17.887 4.223l-17.93 8.968a23.71 23.71 0 0 1-11.605 2.512L80 15.418V0H0v176h80v-24h13.602l4.84 3.2A88.197 88.197 0 0 0 144 169.862V272h336V64zM64 160H16V16h48zm43.297-18.113L98.398 136H80V31.426l7.543.27a40.162 40.162 0 0 0 19.344-4.192l17.914-8.969A24.046 24.046 0 0 1 135.55 16h100.578a55.622 55.622 0 0 1 39.598 16.398L307.328 64h-66.015l-19.418-19.414-11.31 11.309 56.513 56.515c6.277 6.25 6.297 16.406.047 22.688-6.254 6.277-16.41 6.297-22.688.047l-47.2-47.2-5.6 4.801c-15.466 13.133-38.071 13.469-53.923.797l-4.636-3.758-10.082 12.43 4.687 3.8A58.317 58.317 0 0 0 144 115.2v38.656a72.144 72.144 0 0 1-36.703-11.968zm113.8-7.489l12.071 12.075c12.531 12.343 32.648 12.363 45.2.039-11.743 18.183-7.11 42.383 10.519 54.941 17.629 12.559 42.015 9.031 55.363-8.004 13.348-17.039 10.938-41.562-5.477-55.672-16.41-14.109-41.02-12.816-55.859 2.934A31.463 31.463 0 0 0 285.535 112h107.13c3.44 20.129 19.206 35.895 39.335 39.336v33.328c-20.129 3.441-35.895 19.207-39.336 39.336H231.336c-3.441-20.129-19.207-35.895-39.336-39.336v-33.328a47.756 47.756 0 0 0 29.098-16.938zM288 168c0-13.254 10.746-24 24-24s24 10.746 24 24-10.746 24-24 24-24-10.746-24-24zm176 88H160V118.55a58.17 58.17 0 0 0 36-9.198L209.648 123A31.923 31.923 0 0 1 184 136h-8v64h8c17.672 0 32 14.328 32 32v8h192v-8c0-17.672 14.328-32 32-32h8v-64h-8c-17.672 0-32-14.328-32-32v-8H273.312l-16-16H464zm0 0"/></symbol><symbol viewBox="0 0 100 100" id="in" xmlns="http://www.w3.org/2000/svg"><path d="M90 90V60.7c0-14.4-3.1-25.4-19.9-25.4-8.1 0-13.5 4.4-15.7 8.6h-.2v-7.3H38.3V90h16.6V63.5c0-7 1.3-13.7 9.9-13.7 8.5 0 8.6 7.9 8.6 14.1v26H90zM11.3 36.6h16.6V90H11.3zM19.6 10c-5.3 0-9.6 4.3-9.6 9.6s4.3 9.7 9.6 9.7 9.6-4.4 9.6-9.7c0-5.3-4.3-9.6-9.6-9.6z"/></symbol><symbol viewBox="0 0 409.6 409.6" id="inst" xmlns="http://www.w3.org/2000/svg"><path d="M307.2 0H102.4C46.08 0-.001 46.06-.001 102.4v204.8c0 56.315 46.085 102.4 102.4 102.4h204.8c56.315 0 102.4-46.09 102.4-102.4V102.4C409.6 46.06 363.51 0 307.2 0zM204.8 290.13c-47.14 0-85.335-38.22-85.335-85.33 0-47.14 38.2-85.335 85.335-85.335 47.11 0 85.33 38.2 85.33 85.335 0 47.11-38.23 85.33-85.34 85.33zm110.93-170.665c-14.16 0-25.6-11.47-25.6-25.6 0-14.14 11.44-25.6 25.6-25.6 14.15 0 25.6 11.46 25.6 25.6 0 14.13-11.45 25.6-25.6 25.6z"/></symbol><symbol id="lang-icon" viewBox="0 0 16 16" xmlns="http://www.w3.org/2000/svg"><style>.best0{fill:#75808a}</style><g id="beinternet"><g id="beOval"><defs><circle id="beSVGID_1_" cx="8" cy="8" r="20"/></defs><clipPath id="beSVGID_2_"><use xlink:href="#beSVGID_1_" overflow="visible"/></clipPath></g><path id="beShape" class="best0" d="M14.8 12.2C15.6 10.9 16 9.5 16 8s-.4-2.9-1.2-4.2C13.4 1.4 10.8 0 8 0S2.6 1.4 1.2 3.8a7.95 7.95 0 0 0 0 8.4C2.6 14.6 5.2 16 8 16s5.4-1.4 6.8-3.8zM9 14.6c-.2.1-.3.3-.5.4-.3.2-.7.2-1 0-.4-.2-.7-.5-.9-.8-.5-.7-.8-1.4-1-2.2.8-.1 1.6-.1 2.4-.1.8 0 1.6 0 2.4.1-.1.4-.3.8-.4 1.2-.2.5-.6 1-1 1.4zM.9 8.5h3.2c0 .9.1 1.8.3 2.7-.9.1-1.8.2-2.6.3-.5-1-.8-2-.9-3zm.9-3.9c.9.1 1.8.2 2.6.3l-.3 2.7H.9c.1-1.1.4-2.1.9-3zM7 1.4c.1-.2.3-.3.5-.4.3-.2.7-.2 1 0 .4.2.7.5.9.8.5.7.8 1.4 1 2.2-.8.1-1.6.1-2.4.1-.8 0-1.6 0-2.4-.1.1-.4.2-.8.4-1.2.2-.5.6-1 1-1.4zm8.1 6.2h-3.2c0-.9-.1-1.8-.3-2.7.9-.1 1.8-.2 2.6-.3.5.9.8 1.9.9 3zm-9.8 3.5c-.1-.9-.2-1.8-.3-2.6h6c0 .9-.1 1.8-.3 2.6C9.8 11 8.9 11 8 11c-.9 0-1.8 0-2.7.1zm5.4-6.2c.2.9.3 1.7.3 2.6H5c0-.9.1-1.8.3-2.6.9.1 1.8.1 2.7.1.9 0 1.8 0 2.7-.1zm1.2 3.6h3.2c-.1 1.1-.4 2.1-.9 3-.9-.1-1.8-.2-2.6-.3.1-1 .2-1.8.3-2.7zm1.8-4.8c-.8.1-1.5.2-2.3.3-.1-.5-.3-1-.5-1.5-.2-.4-.4-.9-.7-1.3 1.3.5 2.6 1.3 3.5 2.5zM3 3c.8-.8 1.8-1.4 2.9-1.8l-.1.1C5.3 2.1 4.9 3 4.6 4c-.7-.1-1.5-.2-2.3-.3.2-.2.4-.5.7-.7zm-.7 9.3c.8-.1 1.5-.2 2.3-.3.1.5.3 1 .5 1.5.2.4.4.9.7 1.3-1.3-.4-2.6-1.3-3.5-2.5zM13 13c-.8.8-1.8 1.4-2.9 1.8l.1-.1c.6-.8 1-1.7 1.2-2.7.8.1 1.5.2 2.3.3-.2.2-.4.5-.7.7z"/></g></symbol><symbol viewBox="0 0 13 13" id="link" xmlns="http://www.w3.org/2000/svg"><path d="M6.5 2.364a.59.59 0 1 1 0 1.181H1.182v8.273h8.273V6.5a.59.59 0 0 1 1.181 0v5.91a.59.59 0 0 1-.59.59H.59a.59.59 0 0 1-.59-.59V2.954a.59.59 0 0 1 .59-.591zM12.41 0a.59.59 0 0 1 .59.59v4.728a.59.59 0 0 1-1.182 0v-3.3L5.736 8.1a.589.589 0 0 1-.836 0 .59.59 0 0 1 0-.836l6.083-6.082H7.682a.59.59 0 0 1 0-1.182z"/></symbol><symbol viewBox="0 0 226.777 226.777" id="ltc" xmlns="http://www.w3.org/2000/svg"><path d="M113.441 0C50.789 0 0 50.79 0 113.443c0 62.654 50.789 113.441 113.441 113.441 62.654 0 113.443-50.787 113.443-113.441C226.885 50.79 176.096 0 113.441 0zm44.036 168.762H68.839l7.45-35.566-14.486 9.933 3.519-19.463 15.151-10.43 14.862-70.939h27.671l-10.232 48.71L148.8 66.213l-4.222 20.167-36.02 24.693-7.126 33.93H162.4l-4.923 23.759z"/></symbol><symbol id="ltc-logo" viewBox="0 0 46.48 51.02" xmlns="http://www.w3.org/2000/svg"><defs><style>.bhcls-1{fill:#363635}</style></defs><path class="bhcls-1" d="M20.26 41l3.31-12.48 7.85-2.86 1.95-7.34-.07-.18L25.58 21l5.56-21H15.36L8.08 27.35 2 29.57l-2 7.56 6.07-2.22L1.78 51h42l2.7-10z"/></symbol><symbol viewBox="0 0 16.25 13" id="mail" xmlns="http://www.w3.org/2000/svg"><path d="M14.625 0h-13C.728 0 0 .728 0 1.625v9.75C0 12.273.728 13 1.625 13h13c.898 0 1.625-.727 1.625-1.625v-9.75C16.25.728 15.523 0 14.625 0zm0 5.687l-5.16 3.616a2.34 2.34 0 0 1-2.68 0l-5.16-3.616V3.981l5.972 4.185c.317.22.739.22 1.056 0l5.972-4.185v1.706z"/></symbol><symbol viewBox="0 0 512 512" id="monero" xmlns="http://www.w3.org/2000/svg"><circle cx="256" cy="256" r="256"/><path d="M364.2 393.163h107.979c-45.411 71.439-125.262 118.836-216.178 118.836S85.235 464.603 39.824 393.163h107.969V257.328l108.209 108.146L364.2 257.328v135.835z"/><path d="M512 256.001c0 28.599-4.692 56.1-13.343 81.784H421.21V122.537L256.002 286.062 90.794 122.537v215.248H13.346C4.694 312.102.003 284.6.003 256.001.003 114.617 114.617.003 256.001.003S512 114.616 512 256.001z"/></symbol><symbol id="monero-logo" viewBox="0 0 90.97 45.35" xmlns="http://www.w3.org/2000/svg"><defs><style>.bkcls-1{fill:#363635}</style></defs><path class="bkcls-1" d="M90.97 45.35v-8.84H73.65V0l-28.2 28.21L17.24 0v36.51H0v8.84h26.65V22.38l18.8 18.8 18.79-18.8v22.97h26.73z"/></symbol><symbol viewBox="0 0 75 75" id="payeer" xmlns="http://www.w3.org/2000/svg"><circle class="blst0" cx="37.5" cy="37.5" r="37.5"/><path class="blst1" d="M24.4 18.3c3.1-.5 7.5-.9 13.6-.9 6.3 0 10.6 1.2 13.6 3.5 2.8 2.3 4.7 5.9 4.7 10.3s-1.4 8-4.2 10.6c-3.5 3.3-8.5 4.7-14.5 4.7-1.4 0-2.4 0-3.5-.2v15.9h-9.9v-44l.2.1zm10 20.2c.9.2 1.9.3 3.3.3 5.4 0 8.7-2.8 8.7-7.3 0-4.2-2.8-6.6-7.8-6.6-2.1 0-3.5.2-4.2.3v13.3z"/></symbol><symbol id="payeer-logo" viewBox="0 0 75 75" xmlns="http://www.w3.org/2000/svg"><style>.st0{fill:#3499dc}.bmst1{fill:#fff}</style><path class="bmst1" d="M24.4 18.3c3.1-.5 7.5-.9 13.6-.9 6.3 0 10.6 1.2 13.6 3.5 2.8 2.3 4.7 5.9 4.7 10.3s-1.4 8-4.2 10.6c-3.5 3.3-8.5 4.7-14.5 4.7-1.4 0-2.4 0-3.5-.2v15.9h-9.9v-44l.2.1zm10 20.2c.9.2 1.9.3 3.3.3 5.4 0 8.7-2.8 8.7-7.3 0-4.2-2.8-6.6-7.8-6.6-2.1 0-3.5.2-4.2.3v13.3z"/></symbol><symbol viewBox="0 0 45 32" id="play" xmlns="http://www.w3.org/2000/svg"><path d="M42.786 2.747C41.18.796 38.212 0 32.546 0h-20.57C6.179 0 3.162.847 1.56 2.924 0 4.95 0 7.934 0 12.064v7.872C0 27.937 1.852 32 11.976 32h20.57c4.914 0 7.637-.702 9.398-2.424 1.807-1.766 2.578-4.649 2.578-9.64v-7.872c0-4.356-.121-7.357-1.736-9.317zm-14.203 14.34l-9.34 4.986a1.41 1.41 0 0 1-1.41-.046 1.474 1.474 0 0 1-.692-1.254v-9.94c0-.512.262-.987.69-1.253a1.41 1.41 0 0 1 1.408-.048l9.34 4.953c.476.252.774.753.775 1.3 0 .547-.296 1.049-.77 1.302z"/></symbol><symbol viewBox="0 0 46 46" id="pm" xmlns="http://www.w3.org/2000/svg"><path d="M23 0C10.324 0 0 10.324 0 23s10.324 23 23 23 23-10.324 23-23S35.676 0 23 0zm-8.791 30.871H9.098c-.307 0-.41-.102-.41-.409 0-.306 0-.51.41-.51 1.329 0 1.43-.205 1.43-1.534v-3.271c0-.307.103-.41.41-.307h1.329c.306 0 .409.102.409.409v3.68c0 .92.204 1.022 1.022 1.124h.409c.409 0 .51.103.51.511 0 .205 0 .307-.408.307zm.715-6.849c-2.453.205-4.906.205-7.36-.409-.102 0-.306-.102-.408-.102-.205-.102-.307-.102-.512-.204.41.102.512.102 1.023.102.92.102 1.84.204 2.862.204 1.431.103 2.862 0 4.191-.306 2.147-.511 3.271-2.25 2.964-4.396 0-.102 0-.204-.102-.409v-.511c0-.102 0-.102-.102-.204v-.103l-.307-.613c-1.022-1.533-2.657-1.635-4.293-1.533-.307 0-.307.204-.307.409v6.337c0 .41-.102.512-.51.512h-1.227c-.205 0-.307-.103-.307-.307v-6.235c0-.41-.205-.614-.613-.614h-.818c-.307 0-.41 0-.41-.409 0-.307.205-.307.41-.307h6.542c1.431 0 2.658.614 3.578 1.84 0 0 .102.205.204.307 0 .102.102.102.102.205 0 .102.103.102.103.204l.306.92c0 .102.103.613.103.716v.51c0 .103 0 .512-.103.614-.306 1.636-1.329 2.658-2.862 3.271-.715.409-1.431.511-2.147.511zm23.614 6.85H33.12c-.307 0-.307-.205-.307-.41 0-.204-.102-.51.307-.51h.818c.613 0 .818-.205.818-.92.102-1.943.102-3.885.102-5.828v-4.497h-.102c-.41.715-.716 1.43-1.125 2.146 0 0 0 .103-.102.103 0 0 0 .102-.102.102-.103.102-.103.306-.205.409 0 0 0 .102-.102.102 0 .102 0 .102-.102.204 0 0 0 .103-.102.103-.614 1.533-1.432 2.964-2.147 4.395-.716 1.329-1.329 2.76-2.045 4.089-.102.102-.102.409-.306.409-.205 0-.205-.205-.307-.409C26.17 26.68 24.33 23 22.49 19.32c0-.102-.102-.204-.102-.307-.103-.204-.307-.51-.41-.817-.101.204-.101.408-.101.51v10.12c.204.818.306.92 1.124.92h.613c.41-.102.614.103.511.512 0 .306-.102.409-.408.409h-5.214c-.409 0-.306-.307-.409-.511 0-.307.103-.41.41-.41h.817c.818 0 1.124-.306 1.227-1.124.102-.715.102-1.43.204-2.146.102-1.023.102-2.147.102-3.17v-6.95c0-.512-.204-.614-.613-.716h-.409c-.409 0-.613-.204-.409-.613 0-.103.102-.103.205-.103h2.964c.102 0 .205.103.307.205.51 1.227 1.226 2.351 1.635 3.578 1.534 2.862 2.76 5.826 4.294 8.79 1.124-2.248 2.146-4.497 3.27-6.644 0-.102.103-.102.103-.204 0 0 0-.102.102-.102.818-1.738 1.636-3.476 2.454-5.316.102-.102.204-.204.306-.204h3.271c.307 0 .307.204.307.409 0 .204 0 .408-.307.408h-.409c-.817 0-.92.205-.92.92 0 2.556 0 5.01-.102 7.565v.92c0 .92.102 1.942 0 2.862 0 .409 0 .818.102 1.227 0 .204.307.51.614.51h.92c.306 0 .306.205.306.41 0 .306.103.613-.306.613z"/></symbol><symbol viewBox="0 0 17 8" id="pm-logo" xmlns="http://www.w3.org/2000/svg"><path d="M16 7.13h-.36a.6.6 0 0 1-.36-.14.51.51 0 0 1-.15-.28v-.49c0-.54 0-1.11-.06-1.69-.06-.58 0-1.72 0-1.72V1.69a2.57 2.57 0 0 1 .05-.61.53.53 0 0 1 .21-.33 1.58 1.58 0 0 1 .53-.14h.23a.14.14 0 0 0 0-.15.17.17 0 0 0-.09-.11h-1.85a2.997 2.997 0 0 1-.24.89l-.61 1.28-1.06 2.12-.42.87a8.427 8.427 0 0 1-.45.84c-.14-.26-.26-.5-.39-.76l-.38-.81-1.32-2.6c-.17-.36-.33-.72-.45-1a2.47 2.47 0 0 1-.14-.83H6.94a.15.15 0 0 0-.07.12.14.14 0 0 0 0 .14h.17c.16.034.317.077.47.13a.44.44 0 0 1 .2.29 1.63 1.63 0 0 1 0 .52v1.07c0 .41 0 .85-.07 1.29-.07.44 0 .65-.06.91s0 .51-.06.73c-.06.22 0 .46 0 .69a2.17 2.17 0 0 1-.11.54.36.36 0 0 1-.2.23 1.11 1.11 0 0 1-.35.1h-.23s-.06.07 0 .14a.18.18 0 0 0 .06.13h1.65l.61.05A.16.16 0 0 0 9 7.26a.17.17 0 0 0 0-.15h-.43a.58.58 0 0 1-.32-.1.45.45 0 0 1-.14-.31 2 2 0 0 1 0-.64V3.4c0-.35.05-.66.06-1 .01-.34 0-.67.05-1l.35.92.36.8 1 2.15c.09.18.19.4.31.67s.27.56.39.83c.107.234.197.474.27.72h.05a.11.11 0 0 0 .08 0c.08-.18.17-.4.3-.67.13-.27.26-.58.41-.89.15-.31.33-.65.51-1l1-1.94c.07-.16.15-.34.25-.54l.3-.57c.08-.18.17.5.17.5H14v3.8a.83.83 0 0 1 .1.56.33.33 0 0 1-.15.27c-.06.07-.18.1-.38.12h-.33v.15a.19.19 0 0 0 .06.13c.23 0 .47 0 .69-.06h1.3c.22 0 .45.05.67.06a.13.13 0 0 0 .06-.13.16.16 0 0 0-.02-.15zM5.4.44a3.33 3.33 0 0 0-.92-.35A7.07 7.07 0 0 0 3.28 0H2.07c-.36 0-.68 0-1 .06A.16.16 0 0 0 1 .21a.13.13 0 0 0 .1.14h.38a.54.54 0 0 1 .36.13.44.44 0 0 1 .16.39c.014.237.014.474 0 .71v2.24c.334.02.667.02 1 0V.69A.53.53 0 0 1 3 .4a.22.22 0 0 1 .15-.11h.45A1.9 1.9 0 0 1 5 .77c.319.364.484.837.46 1.32a1.92 1.92 0 0 1-.38 1.26 1.81 1.81 0 0 1-1 .62 8.34 8.34 0 0 1-1.93.13C1.47 4.08.76 4.04 0 3.97c.591.137 1.189.244 1.79.32.7.096 1.41.096 2.11 0 .318-.049.63-.13.93-.24a4.71 4.71 0 0 0 .82-.48c.189-.15.34-.341.44-.56a2.19 2.19 0 0 0 .18-.86 2 2 0 0 0-.27-1 1.83 1.83 0 0 0-.6-.71zM3.82 7.07a1.07 1.07 0 0 1-.55-.13.58.58 0 0 1-.24-.4 4.47 4.47 0 0 1 0-.88V4.59a5.32 5.32 0 0 1-1 0V5.7a6.2 6.2 0 0 1-.05.88.42.42 0 0 1-.2.38.77.77 0 0 1-.5.15h-.25a.13.13 0 0 0-.05.15.15.15 0 0 0 .07.14l.72-.05h1.46l.9.05s0-.08.07-.14a.19.19 0 0 0 0-.15l-.38-.04z"/></symbol><symbol viewBox="0 0 15 14" id="rate" xmlns="http://www.w3.org/2000/svg"><path d="M.536 11.308H3.75c.321 0 .536.215.536.538v1.616c0 .323-.215.538-.536.538H.536C.214 14 0 13.785 0 13.462v-1.616c0-.323.214-.538.536-.538zm10.714 0h3.214c.322 0 .536.215.536.538v1.616c0 .323-.214.538-.536.538H11.25c-.321 0-.536-.215-.536-.538v-1.616c0-.323.215-.538.536-.538zm-5.357 0h3.214c.322 0 .536.215.536.538v1.616c0 .323-.214.538-.536.538H5.893c-.322 0-.536-.215-.536-.538v-1.616c0-.323.214-.538.536-.538zM3.75 3.23H.536c-.322 0-.536.216-.536.54v6.46c0 .324.214.54.536.54H3.75c.321 0 .536-.216.536-.54V3.77c0-.324-.215-.54-.536-.54zM9.107 0H5.893c-.322 0-.536.215-.536.538v9.693c0 .323.214.538.536.538h3.214c.322 0 .536-.215.536-.538V.538C9.643.215 9.429 0 9.107 0zm2.143 6.462h3.214c.322 0 .536.215.536.538v3.23c0 .324-.214.54-.536.54H11.25c-.321 0-.536-.216-.536-.54V7c0-.323.215-.538.536-.538z"/></symbol><symbol viewBox="0 0 26 26" id="rdd" xmlns="http://www.w3.org/2000/svg"><path d="M17.662 11.212c-.38 0-.713.153-.959.39-.903-.606-2.12-.996-3.467-1.038l.7-3.063 2.231.486c0 .53.445.962.992.962.556 0 1.004-.444 1.004-.974S17.718 7 17.159 7c-.39 0-.726.228-.893.54l-2.464-.53c-.124-.032-.245.054-.278.174l-.769 3.378c-1.338.054-2.542.444-3.447 1.05a1.364 1.364 0 0 0-.971-.4c-1.407 0-1.867 1.832-.58 2.458a2.67 2.67 0 0 0-.065.606c0 2.057 2.387 3.724 5.319 3.724 2.944 0 5.331-1.667 5.331-3.724 0-.206-.023-.422-.078-.616 1.262-.629.797-2.448-.602-2.448zM9.799 13.8c0-.54.445-.975 1.004-.975.546 0 .991.432.991.975 0 .53-.445.962-.991.962-.557.003-1.004-.432-1.004-.962zm5.42 2.295c-.921.894-3.519.894-4.44 0-.1-.086-.1-.238 0-.336a.248.248 0 0 1 .335 0c.703.7 3.035.712 3.768 0a.248.248 0 0 1 .334 0c.104.098.104.25.003.336zm-.02-1.33c-.547 0-.992-.432-.992-.963 0-.54.445-.974.991-.974.557 0 1.005.432 1.005.974-.003.528-.448.963-1.005.963z"/><path d="M13 0C5.82 0 0 5.82 0 13s5.82 13 13 13 13-5.82 13-13S20.18 0 13 0zm0 24.818C6.473 24.818 1.182 19.527 1.182 13 1.182 6.473 6.473 1.182 13 1.182c6.527 0 11.818 5.291 11.818 11.818 0 6.527-5.291 11.818-11.818 11.818z"/></symbol><symbol viewBox="0 0 24 24" id="reset" xmlns="http://www.w3.org/2000/svg"><path d="M23.297 11.297a.703.703 0 0 0-.703.703c0 5.841-4.753 10.594-10.594 10.594C6.159 22.594 1.406 17.84 1.406 12 1.406 6.159 6.16 1.406 12 1.406c2.352 0 4.587.762 6.423 2.168l-1.22.216a.703.703 0 1 0 .245 1.385l2.662-.47a.703.703 0 0 0 .581-.693V1.349a.703.703 0 0 0-1.406 0v1.114A11.909 11.909 0 0 0 12 0a11.922 11.922 0 0 0-8.485 3.515A11.922 11.922 0 0 0 0 12c0 3.205 1.248 6.219 3.515 8.485A11.922 11.922 0 0 0 12 24c3.205 0 6.219-1.248 8.485-3.515A11.921 11.921 0 0 0 24 12a.703.703 0 0 0-.703-.703z"/><path d="M15.6 9V7.857C15.6 5.841 13.985 4.2 12 4.2S8.4 5.84 8.4 7.857V9h1.35V7.857c0-1.26 1.01-2.286 2.25-2.286s2.25 1.026 2.25 2.286V9h1.35zm-8.4 2.497v5.806c0 .385.307.697.686.697h8.228a.691.691 0 0 0 .686-.697v-5.806a.691.691 0 0 0-.686-.697H7.886a.691.691 0 0 0-.686.697zm4.343 1.858h.914c.379 0 .686.312.686.697a.691.691 0 0 1-.686.696h-.914a.691.691 0 0 1-.686-.696c0-.385.307-.697.686-.697z"/></symbol><symbol viewBox="0 0 12 12" id="search" xmlns="http://www.w3.org/2000/svg"><path d="M5.257 9.005a3.753 3.753 0 0 0 3.755-3.752A3.753 3.753 0 0 0 5.257 1.5a3.753 3.753 0 0 0-3.755 3.752 3.753 3.753 0 0 0 3.755 3.752zm0 1.5A5.255 5.255 0 0 1 0 5.253 5.255 5.255 0 0 1 5.257 0a5.255 5.255 0 0 1 5.257 5.253 5.255 5.255 0 0 1-5.257 5.252zm2.7-2.129l.425-.425a.45.45 0 0 1 .638.001l2.849 2.856a.45.45 0 0 1-.001.637l-.425.424a.45.45 0 0 1-.638 0L7.956 9.012a.45.45 0 0 1 0-.636z"/></symbol><symbol viewBox="0 0 16 16" id="search-2" xmlns="http://www.w3.org/2000/svg"><path d="M6.226 12.452c1.519 0 2.9-.538 3.976-1.45l4.832 4.832c.11.11.248.166.4.166a.567.567 0 0 0 .4-.966l-4.831-4.832a6.216 6.216 0 0 0 1.45-3.976A6.227 6.227 0 0 0 6.225 0C2.802 0 0 2.802 0 6.226c0 3.438 2.802 6.226 6.226 6.226zm0-11.32a5.1 5.1 0 0 1 5.094 5.094 5.09 5.09 0 0 1-5.094 5.094 5.1 5.1 0 0 1-5.094-5.094 5.108 5.108 0 0 1 5.094-5.094z"/></symbol><symbol viewBox="0 0 17 16" id="skype" xmlns="http://www.w3.org/2000/svg"><path d="M15.99 9.562A7.67 7.67 0 0 0 16.157 8a7.22 7.22 0 0 0-.578-2.85 7.332 7.332 0 0 0-1.563-2.343 7.332 7.332 0 0 0-2.343-1.562 7.21 7.21 0 0 0-2.85-.578 7.67 7.67 0 0 0-1.562.166A3.897 3.897 0 0 0 4.823 0C3.72 0 2.777.39 1.995 1.172A3.854 3.854 0 0 0 .823 4c0 .903.278 1.715.834 2.437A7.675 7.675 0 0 0 1.49 8c0 .993.193 1.943.578 2.849a7.332 7.332 0 0 0 1.563 2.344 7.335 7.335 0 0 0 2.343 1.562 7.206 7.206 0 0 0 2.85.578c.506 0 1.027-.055 1.562-.167a3.895 3.895 0 0 0 2.438.834c1.104 0 2.046-.39 2.827-1.172A3.854 3.854 0 0 0 16.823 12a3.9 3.9 0 0 0-.833-2.438zm-3.292 1.547a2.687 2.687 0 0 1-.922.974c-.385.243-.81.429-1.276.558a5.458 5.458 0 0 1-1.458.192c-1.173 0-2.184-.227-3.031-.682-.847-.455-1.27-1.002-1.27-1.64 0-.313.088-.573.265-.782.177-.208.439-.312.786-.312.202 0 .389.055.563.166.173.111.333.245.479.402.146.156.304.312.474.468.17.157.395.29.677.401.281.111.599.167.953.167.451 0 .816-.088 1.094-.265.278-.178.416-.402.416-.672 0-.278-.11-.486-.333-.625-.152-.098-.541-.223-1.166-.376l-1.521-.375a6.444 6.444 0 0 1-1.073-.338 3.534 3.534 0 0 1-.834-.505 1.973 1.973 0 0 1-.583-.787 2.864 2.864 0 0 1-.198-1.11c0-.506.117-.952.35-1.338.232-.385.54-.687.926-.906.385-.219.8-.382 1.245-.49a5.818 5.818 0 0 1 1.375-.161c.667 0 1.298.08 1.896.24.597.16 1.09.394 1.479.703.389.309.583.654.583 1.036 0 .313-.099.58-.297.802-.198.222-.46.333-.786.333-.18 0-.347-.041-.5-.125a2.003 2.003 0 0 1-.417-.302 7.925 7.925 0 0 0-.396-.348 1.85 1.85 0 0 0-.562-.297 2.403 2.403 0 0 0-.802-.125c-1 0-1.5.267-1.5.802 0 .118.026.222.078.312.052.09.11.163.172.219.062.056.166.111.312.167.146.055.268.095.365.12l.458.109 1.084.25c.34.076.643.156.91.24a5.8 5.8 0 0 1 .86.354c.306.152.56.322.76.51a2.295 2.295 0 0 1 .709 1.667c0 .506-.114.963-.344 1.37z"/></symbol><symbol viewBox="0 0 22 16" id="sound" xmlns="http://www.w3.org/2000/svg"><path d="M9.536.79c1.066-.71 2.494.054 2.494 1.335v11.787c0 1.28-1.428 2.045-2.494 1.334L4.71 12.028H1.604A1.604 1.604 0 0 1 0 10.424V5.613c0-.886.719-1.604 1.604-1.604h3.105L9.536.79zm.489 2.084L5.72 5.744c-.263.176-.574.27-.89.27H2.005v4.01H4.83c.316 0 .627.093.89.269l4.305 2.87V2.873zm5.558 3.443a.601.601 0 0 1 0-.85l.568-.568a.6.6 0 0 1 .85 0l1.701 1.702 1.702-1.702a.6.6 0 0 1 .85 0l.567.568a.601.601 0 0 1 0 .85L20.12 8.018l1.7 1.702a.601.601 0 0 1 0 .85l-.567.567a.602.602 0 0 1-.85 0l-1.702-1.701L17 11.137a.602.602 0 0 1-.851 0l-.567-.567a.601.601 0 0 1 0-.85l1.702-1.702-1.702-1.7z" fill-rule="evenodd"/></symbol><symbol viewBox="0 0 24 17" id="sound-active" xmlns="http://www.w3.org/2000/svg"><path d="M18.83 2.266a.61.61 0 0 1 .09-.84l.61-.52c.26-.22.64-.18.85.09.22.28.48.62.59.79 2.78 4.07 2.78 9.44 0 13.52-.11.15-.34.47-.54.75-.21.28-.61.33-.87.1l-.62-.52a.608.608 0 0 1-.11-.82c.2-.3.45-.65.57-.82a10.01 10.01 0 0 0-.04-11c-.11-.17-.37-.51-.59-.79l.06.06zm-8.33-.48c1.06-.71 2.48.05 2.48 1.33v11.75c0 1.27-1.43 2.04-2.49 1.33l-4.82-3.22h-3.1c-.89 0-1.6-.72-1.6-1.6v-4.81c0-.89.71-1.61 1.59-1.61h3.09l4.81-3.22.04.05zm.48 2.07l-4.3 2.86c-.27.17-.58.26-.89.26H2.97v4h2.81c.31 0 .62.09.88.26l4.29 2.86V3.826l.03.03zm5.21.72a.59.59 0 0 0-.16.74c.22.44.56 1.1.65 1.32.47 1.17.48 2.48.03 3.66-.1.24-.47.92-.72 1.37a.59.59 0 0 0 .14.76l.62.51c.28.23.71.15.89-.17.28-.5.64-1.16.75-1.4a7.01 7.01 0 0 0-.07-5.89c-.13-.28-.45-.84-.7-1.27a.605.605 0 0 0-.9-.17l-.61.48.08.06z" fill-rule="evenodd"/></symbol><symbol viewBox="0 0 22 16" id="sound-off" xmlns="http://www.w3.org/2000/svg"><path d="M9.536.79c1.066-.71 2.494.054 2.494 1.335v11.787c0 1.28-1.428 2.045-2.494 1.334L4.71 12.028H1.604A1.604 1.604 0 0 1 0 10.424V5.613c0-.886.719-1.604 1.604-1.604h3.105L9.536.79zm.489 2.084L5.72 5.744c-.263.176-.574.27-.89.27H2.005v4.01H4.83c.316 0 .627.093.89.269l4.305 2.87V2.873zm5.558 3.443a.601.601 0 0 1 0-.85l.568-.568a.6.6 0 0 1 .85 0l1.701 1.702 1.702-1.702a.6.6 0 0 1 .85 0l.567.568a.601.601 0 0 1 0 .85L20.12 8.018l1.7 1.702a.601.601 0 0 1 0 .85l-.567.567a.602.602 0 0 1-.85 0l-1.702-1.701L17 11.137a.602.602 0 0 1-.851 0l-.567-.567a.601.601 0 0 1 0-.85l1.702-1.702-1.702-1.7z" fill-rule="evenodd"/></symbol><symbol viewBox="0 0 18.82373 16" id="tg" xmlns="http://www.w3.org/2000/svg"><path d="M7.386 10.545l-.311 4.467c.445 0 .638-.195.87-.43l2.088-2.035 4.328 3.232c.794.452 1.353.214 1.567-.744L18.77 1.457h.001C19.022.26 18.346-.209 17.572.084L.874 6.605C-.266 7.058-.248 7.706.68 8l4.27 1.354 9.916-6.329c.466-.315.89-.14.542.175l-8.022 7.346z"/></symbol><symbol viewBox="0 0 64 64" id="trx-logo" xmlns="http://www.w3.org/2000/svg"><path class="cacls-1" d="M61.55 19.28c-3-2.77-7.15-7-10.53-10l-.2-.14a3.82 3.82 0 0 0-1.11-.62C41.56 7 3.63-.09 2.89 0a1.4 1.4 0 0 0-.58.22l-.19.15a2.23 2.23 0 0 0-.52.84l-.05.13v.82C5.82 14.05 22.68 53 26 62.14c.2.62.58 1.8 1.29 1.86h.16c.38 0 2-2.14 2-2.14S58.41 26.74 61.34 23a9.46 9.46 0 0 0 1-1.48 2.41 2.41 0 0 0-.79-2.24zm-24.67 4.09l12.36-10.25 7.25 6.68zm-4.8-.67L10.8 5.26l34.43 6.35zM34 27.27l21.78-3.51-24.9 30zM7.91 7L30.3 26l-3.24 27.78z"/></symbol><symbol viewBox="0 0 18 14.383881" id="tw" xmlns="http://www.w3.org/2000/svg"><path d="M17.505.252a7.487 7.487 0 0 1-2.35.9A3.717 3.717 0 0 0 12.456 0a3.663 3.663 0 0 0-3.69 3.6c.002.279.035.557.1.828A10.539 10.539 0 0 1 1.25.63a3.6 3.6 0 0 0-.504 1.8 3.6 3.6 0 0 0 1.647 3.024A3.726 3.726 0 0 1 .72 4.995v.045a3.654 3.654 0 0 0 2.96 3.6 3.772 3.772 0 0 1-1.664.063 3.69 3.69 0 0 0 3.447 2.52A7.479 7.479 0 0 1 .9 12.798c-.3 0-.601-.018-.9-.054a10.575 10.575 0 0 0 5.661 1.638c5.715.104 10.433-4.444 10.537-10.16l.002-.18v-.469a7.478 7.478 0 0 0 1.8-1.88 7.469 7.469 0 0 1-2.124.575A3.663 3.663 0 0 0 17.505.252z"/></symbol><symbol viewBox="0 0 226.777 226.777" id="usdt-logo" xmlns="http://www.w3.org/2000/svg"><path d="M226.883 107.66c0-14.245-38.761-26.13-90.27-28.872l-.004-22.697h64.315V8.855H25.06v47.236h64.31v22.808C38.799 81.829.97 93.59.97 107.66c0 14.072 37.829 25.834 88.4 28.759v81.504h47.239V136.53c51.513-2.736 90.274-14.625 90.274-28.87zm-112.957 14.033c-55.288 0-100.109-8.557-100.109-19.119 0-8.943 32.139-16.451 75.553-18.54v5.383h.005v22.059c7.827.439 16.053.669 24.551.669 7.825 0 15.424-.199 22.688-.563v-27.63c44.355 1.961 77.423 9.548 77.423 18.622-.001 10.562-44.823 19.119-100.111 19.119z"/></symbol><symbol viewBox="0 0 512 512" id="wapp" xmlns="http://www.w3.org/2000/svg"><path d="M256.064 0h-.13C114.77 0-.01 114.816-.01 256c0 56 18.048 107.904 48.73 150.048l-31.904 95.1 98.4-31.46c40.48 26.81 88.76 42.3 140.832 42.3 141.15 0 255.93-114.85 255.93-256 0-141.16-114.79-256-255.94-256zm148.96 361.504c-6.18 17.44-30.69 31.9-50.24 36.12-13.38 2.84-30.85 5.12-89.67-19.27-75.24-31.17-123.68-107.62-127.46-112.58-3.62-4.96-30.4-40.48-30.4-77.22s18.65-54.63 26.17-62.304c6.17-6.31 16.38-9.19 26.17-9.19 3.16 0 6.01.16 8.57.28 7.52.32 11.29.76 16.256 12.64 6.17 14.88 21.21 51.61 23 55.39 1.82 3.77 3.64 8.89 1.08 13.85-2.4 5.12-4.52 7.39-8.29 11.744-3.78 4.35-7.36 7.68-11.14 12.35-3.46 4.06-7.36 8.41-3.01 15.93 4.35 7.36 19.39 31.9 41.536 51.61 28.57 25.44 51.74 33.56 60.03 37.024 6.17 2.56 13.53 1.95 18.04-2.85 5.72-6.18 12.8-16.42 20-26.5 5.12-7.24 11.58-8.13 18.36-5.57 6.91 2.4 43.488 20.48 51 24.22 7.52 3.77 12.48 5.56 14.3 8.73 1.79 3.16 1.79 18.04-4.39 35.52z"/></symbol><symbol viewBox="0 0 226.777 226.777" id="xrp" xmlns="http://www.w3.org/2000/svg"><path d="M113.48.183C50.908.183.183 50.908.183 113.48c0 62.572 50.725 113.297 113.297 113.297 62.572 0 113.297-50.726 113.297-113.297C226.777 50.908 176.052.183 113.48.183zm47.419 163.777c-7.365 12.656-23.905 17.119-36.941 9.97-13.037-7.149-17.635-23.205-10.268-35.862 3.068-5.272 1.153-11.96-4.28-14.941-5.356-2.937-12.132-1.166-15.261 3.941h-.002v-.021c-.044.078-.083.155-.128.232-7.365 12.656-23.904 17.12-36.94 9.97-13.038-7.149-17.636-23.207-10.271-35.86 7.367-12.657 23.905-17.12 36.944-9.969 4.357 2.39 7.765 5.779 10.107 9.7v-.014l.002-.002c3.248 5.032 10.055 6.654 15.341 3.603 5.362-3.095 7.125-9.824 3.936-15.03-7.651-12.494-3.42-28.645 9.451-36.072 12.869-7.428 29.506-3.321 37.159 9.172 7.651 12.495 3.422 28.645-9.451 36.073a27.612 27.612 0 0 1-13.697 3.694l.012.005v.002c-6.175.207-11.081 5.161-11.007 11.191.073 6.11 5.239 11.008 11.533 10.936l-.039.021a27.627 27.627 0 0 1 13.533 3.401c13.034 7.151 17.632 23.206 10.267 35.86z"/></symbol><symbol id="xrp-logo" viewBox="0 0 52.44 56.69" xmlns="http://www.w3.org/2000/svg"><defs><style>.cfcls-1{fill:#363635}</style></defs><title>Artboard 53</title><path class="cfcls-1" d="M34.67 1.53a12 12 0 0 0-5.93 10.3 13.42 13.42 0 0 0 2 6.36C31.59 20 32 23 29 24.56a4.71 4.71 0 0 1-6.4-1.76 19.78 19.78 0 0 0-4.83-4.8 11.49 11.49 0 0 0-11.84 0 11.94 11.94 0 0 0 0 20.63 11.51 11.51 0 0 0 11.85 0 12.06 12.06 0 0 0 4.6-4.82A4.51 4.51 0 0 1 28.73 32a4.91 4.91 0 0 1 1.76 6.36 13.24 13.24 0 0 0-1.76 6.36 11.92 11.92 0 0 0 5.94 10.31 11.49 11.49 0 0 0 11.84 0 11.93 11.93 0 0 0 0-20.62 13.24 13.24 0 0 0-6.58-1.54 4.6 4.6 0 1 1 0-9.2 13.81 13.81 0 0 0 6.58-1.54 11.92 11.92 0 0 0 0-20.61A11.37 11.37 0 0 0 40.59 0a11.31 11.31 0 0 0-5.92 1.53z"/></symbol><symbol viewBox="0 0 19.35791 20.167297" id="yt" xmlns="http://www.w3.org/2000/svg"><path d="M5.895 6.784H4.62l.018-2.807L3.088 0H4.4l.88 2.64L6.16 0h1.188L5.895 3.977v2.807zm3.37.088h-.36A1.452 1.452 0 0 1 7.46 5.447v-2.35a1.452 1.452 0 0 1 1.452-1.443h.361a1.452 1.452 0 0 1 1.443 1.426v2.349a1.452 1.452 0 0 1-1.452 1.443zm3.274 0c.513-.05.994-.273 1.363-.633v.545h1.056v-5.13h-1.056v3.977s-.36.423-.704.423c-.343 0-.36-.273-.36-.273V1.654H11.72v4.514a.827.827 0 0 0 .819.704zm-3.45-4.426a.546.546 0 0 0-.545.546v2.525a.546.546 0 0 0 1.09 0V2.992a.546.546 0 0 0-.544-.546zm7.268 5.552h.046a2.64 2.64 0 0 1 2.682 2.596c.17 1.118.262 2.248.273 3.379a24.628 24.628 0 0 1-.273 3.379c0 .03 0 .06-.002.09a2.64 2.64 0 0 1-2.726 2.55s-3.282.175-6.678.175S3 19.991 3 19.991l-.089.002a2.64 2.64 0 0 1-2.638-2.641A24.374 24.374 0 0 1 0 13.972a24.23 24.23 0 0 1 .273-3.343l.001-.09A2.64 2.64 0 0 1 3 7.99s3.335-.175 6.679-.175c3.343 0 6.66.184 6.66.184h.018zM4.4 10.946h1.33l.025-1.126H1.76v1.126h1.328v6.846H4.4v-6.846zm6.872 6.353c.28.37.717.585 1.18.58 1.003 0 1.003-1.39 1.003-1.39l-.01-3.282c0-.783-.272-1.39-1.002-1.39a1.76 1.76 0 0 0-1.18.59V9.82h-1.178v7.972h1.188v-.493zm4.18-2.253h2.27v-1.76a1.435 1.435 0 0 0-1.637-1.469 1.53 1.53 0 0 0-1.76 1.47v3.396a1.672 1.672 0 0 0 1.76 1.214 1.531 1.531 0 0 0 1.637-1.214v-.95h-1.179v.616s0 .607-.546.607c-.545 0-.545-.607-.545-.607v-1.303zm-7.365 2.746h1.1l.035-5.984h-1.09v4.857s-.37.431-.731.431c-.36 0-.36-.264-.36-.264v-5.024H5.903v5.376a.81.81 0 0 0 .818.696 2.3 2.3 0 0 0 1.364-.607v.519zm3.185-4.752a.757.757 0 0 1 .546-.273c.449 0 .546.607.546.608v2.938s0 .608-.546.608a.722.722 0 0 1-.546-.238V13.04zm4.725-.273c-.545 0-.545.607-.545.607v.784h1.091v-.784s0-.607-.546-.607z" fill-rule="evenodd"/></symbol></svg>