<svg width="28" height="20" viewBox="0 0 28 20" xmlns="http://www.w3.org/2000/svg">
    <path d="M14.181-.001h.078l.308.001c1.568.009 6.046.053 9.227.289.546.065 1.74.072 2.806 1.205.841.86 1.114 2.82 1.114 2.82h.002l.004.032c.033.285.275 2.43.28 4.572v2.155c0 2.146-.242 4.288-.275 4.573l-.004.032s-.273 1.962-1.114 2.822c-1.066 1.133-2.258 1.14-2.806 1.205-3.589.261-8.833.292-9.682.295h-.157c-.572-.005-7.337-.074-9.483-.283-.625-.12-2.026-.084-3.091-1.216C.552 17.64.278 15.68.278 15.68S0 13.374 0 11.074l.001-2.393c.017-2.064.242-4.06.274-4.335l.004-.032s.267-1.96 1.11-2.82C2.453.36 3.645.356 4.193.289A82.66 82.66 0 0 1 6.826.142l.55-.021c2.48-.092 4.96-.115 6.045-.12l.308-.002h.077zm-3.083 5.698v7.992l7.564-3.983-7.564-4.009z" fill="#C00" fill-rule="evenodd"/>
</svg>
