<svg width="17" height="17" viewBox="0 0 17 17" xmlns="http://www.w3.org/2000/svg">
    <path d="m3.513.13 1.219 1.247a7.406 7.406 0 0 0-3.027 5.597H0A9.153 9.153 0 0 1 3.512.131zm9.975 0A9.206 9.206 0 0 1 17 6.975h-1.705a7.45 7.45 0 0 0-3.018-5.597l1.21-1.246zM9.779 1.309V1.9c2.438.593 3.837 2.834 3.837 5.51v4.359l1.705 1.744v.871H1.681v-.871l1.705-1.744v-4.36c0-2.684 1.39-4.916 3.836-5.509v-.592C7.222.584 7.794 0 8.502 0 9.208 0 9.78.584 9.78 1.308zM6.786 15.257h3.41c0 .244-.042.47-.127.68a1.738 1.738 0 0 1-1.228 1.028c-.11.027-.221.035-.34.035-.947 0-1.706-.785-1.714-1.744z" fill="#FFF" fill-rule="evenodd"/>
</svg>
