<svg width="24" height="24" viewBox="0 0 24 24" fill="none" xmlns="http://www.w3.org/2000/svg">
<circle opacity="0.3" cx="12" cy="12" r="12" transform="rotate(-90 12 12)" fill="white"/>
<path d="M12.5497 7.20302L12.1565 7.5961C12.0329 7.71951 11.9645 7.88449 11.9645 8.0601C11.9645 8.2359 12.0329 8.4158 12.1565 8.53922L14.6827 11.0806H6.65668C6.29473 11.0806 6 11.3448 6 11.7066V12.2628C6 12.6246 6.29473 12.9556 6.65668 12.9556H14.7113L12.1565 15.4919C12.0329 15.6155 11.9645 15.771 11.9645 15.9468C11.9645 16.1224 12.0329 16.2828 12.1565 16.4063L12.5497 16.7973C12.8056 17.0531 13.2219 17.052 13.4778 16.7962L17.8084 12.4651C17.9317 12.3418 18 12.1763 18 11.9992V11.9974C18 11.8217 17.9317 11.6566 17.8084 11.5333L13.4779 7.20302C13.222 6.94703 12.8056 6.94703 12.5497 7.20302Z" fill="white"/>
</svg>
