<svg width="17" height="16" viewBox="0 0 17 16" fill="none" xmlns="http://www.w3.org/2000/svg"><g clip-path="url(#clip0)"><path d="M8.329 16a8 8 0 100-16 8 8 0 000 16z" fill="#F0F0F0"/><path d="M1.982 3.13A7.97 7.97 0 00.604 5.912h4.162L1.982 3.13zm14.071 2.783a7.973 7.973 0 00-1.378-2.784l-2.784 2.784h4.162zM.604 10.087a7.972 7.972 0 001.378 2.783l2.784-2.783H.604zM13.2 1.654A7.971 7.971 0 0010.415.276v4.161l2.783-2.783zM3.458 14.346a7.97 7.97 0 002.783 1.378v-4.162l-2.783 2.784zM6.241.276a7.972 7.972 0 00-2.783 1.378L6.24 4.437V.276zm4.175 15.448a7.97 7.97 0 002.783-1.378l-2.783-2.784v4.162zm1.475-5.637l2.784 2.783a7.972 7.972 0 001.378-2.783h-4.162z" fill="#0052B4"/><path d="M16.26 6.957H9.373V.067a8.08 8.08 0 00-2.087 0v6.89H.396a8.08 8.08 0 000 2.086h6.89v6.89a8.074 8.074 0 002.086 0v-6.89h6.889a8.074 8.074 0 000-2.086z" fill="#D80027"/><path d="M10.416 10.087l3.57 3.57c.164-.164.32-.336.47-.514L11.4 10.087h-.984zm-4.175 0l-3.57 3.57c.165.164.336.32.514.47l3.056-3.056v-.984zm.002-4.174l-3.57-3.57a7.611 7.611 0 00-.47.514l3.056 3.056h.984zm4.173 0l3.57-3.57a7.997 7.997 0 00-.514-.47l-3.056 3.056v.984z" fill="#D80027"/></g><defs><clipPath id="clip0"><rect x=".329" width="16" height="16" rx="8" fill="#fff"/></clipPath></defs></svg>