<svg width="24" height="25" viewBox="0 0 24 25" fill="none" xmlns="http://www.w3.org/2000/svg">
<circle opacity="0.3" cx="12" cy="12.0212" r="12" transform="rotate(-90 12 12.0212)" fill="white"/>
<path d="M12.5497 7.2242L12.1565 7.61728C12.0329 7.74069 11.9645 7.90567 11.9645 8.08128C11.9645 8.25708 12.0329 8.43698 12.1565 8.5604L14.6827 11.1018H6.65668C6.29473 11.1018 6 11.366 6 11.7278V12.284C6 12.6458 6.29473 12.9768 6.65668 12.9768H14.7113L12.1565 15.5131C12.0329 15.6367 11.9645 15.7922 11.9645 15.968C11.9645 16.1436 12.0329 16.304 12.1565 16.4275L12.5497 16.8184C12.8056 17.0743 13.2219 17.0732 13.4778 16.8174L17.8084 12.4863C17.9317 12.3629 18 12.1975 18 12.0204V12.0185C18 11.8428 17.9317 11.6778 17.8084 11.5544L13.4779 7.2242C13.222 6.9682 12.8056 6.9682 12.5497 7.2242Z" fill="white"/>
</svg>
