<?xml version="1.0" encoding="utf-8"?>
<svg width="40px" height="39.098083px" viewBox="0 0 40 39.098083" version="1.1" xmlns:xlink="http://www.w3.org/1999/xlink" xmlns="http://www.w3.org/2000/svg">
  <g id="邵">
    <path d="M24.0812 0L24.0812 39.0981L27.283 39.0981L27.283 2.97632L35.9414 2.97632C34.363 7.80158 32.7396 11.9955 31.071 15.513C34.9042 19.9324 36.8433 23.54 36.8884 26.2909C36.8433 27.7339 36.5276 28.726 35.9865 29.2672C35.4904 29.8083 34.2728 30.0789 32.3788 30.1691C31.5671 30.1691 30.575 30.0789 29.4476 29.9887L30.4397 33.1003C34.3179 33.1003 36.8884 32.5592 38.1511 31.522C39.3687 30.575 40 28.8162 40 26.2909C39.9549 23.4949 38.106 19.8873 34.4532 15.513C36.212 11.4994 37.8805 7.12514 39.4138 2.43517L39.4138 0L24.0812 0ZM20.0676 20.3833L2.75085 20.3833L2.75085 39.053L5.86246 39.053L5.86246 36.3472L16.9109 36.3472L16.9109 38.8726L20.0676 38.8726L20.0676 20.3833ZM5.86246 33.3258L5.86246 23.4498L16.9109 23.4498L16.9109 33.3258L5.86246 33.3258ZM7.5761 3.15671C7.03495 6.26832 6.22322 8.79369 5.23112 10.7328C4.05862 12.7621 2.29989 14.611 0 16.3247L1.89402 18.7148C4.59977 16.7306 6.62909 14.5209 7.98196 12.0406C9.06426 9.83089 9.96618 6.85457 10.5975 3.15671L17.6776 3.15671C17.5874 8.29763 17.3619 11.4994 17.0913 12.717C16.7756 13.9346 16.009 14.566 14.8365 14.6561C13.8444 14.611 12.6268 14.5209 11.0936 14.4307L11.9053 17.3168C13.3033 17.407 14.5209 17.4972 15.5581 17.4972C17.4521 17.4972 18.7599 16.6855 19.5716 15.062C20.3833 13.3935 20.7892 8.38782 20.7892 0.0901917L1.17249 0.0901917L1.17249 3.15671L7.5761 3.15671Z" id="Shape" fill="#017EFB" stroke="none" />
  </g>
</svg>