<svg width="64" height="64" viewBox="0 0 64 64" fill="none" xmlns="http://www.w3.org/2000/svg">
<path fill-rule="evenodd" clip-rule="evenodd" d="M45.7713 43.1168L43.4894 39.0958L32.3371 50.8677L45.7713 43.1168ZM47.2918 42.2395L48.9395 41.2889L48.9468 41.2962L58.086 36.3257C60.645 34.8529 60.645 32.4599 58.086 30.9871L53.6111 28.4118L44.7516 37.7634L47.2918 42.2395ZM52.0462 27.5112L49.1329 25.8346L49.1296 25.8327L49.1288 25.8322L48.7571 25.6114L48.7538 25.6149L32.517 16.205L43.8458 36.1672L52.0462 27.5112ZM29.5095 14.462L42.5835 37.4996L27.004 53.9447L22.4414 56.577C20.8788 57.2763 19.8607 57.1792 18.9794 56.3789L18.9716 56.3868L18.7888 56.2028C18.2405 55.6506 17.875 54.7301 17.875 53.6254V12.9418C17.875 11.8373 18.1115 11.0351 18.6599 10.4829L18.6717 10.4829C19.5807 9.62104 20.8373 9.46831 22.4415 10.3658L29.5095 14.462Z" fill="white"/>
</svg>
